<svg id="_0254_snow" xmlns="http://www.w3.org/2000/svg" xmlns:xlink="http://www.w3.org/1999/xlink" viewBox="0 0 500 500" data-imageid="snow-76-5d130" imageName="Snow" class="illustrations_image" style="width: 137px;"><defs><style>.cls-1_snow-76-5d130{isolation:isolate;opacity:.44;}.cls-1_snow-76-5d130,.cls-2_snow-76-5d130,.cls-3_snow-76-5d130,.cls-4_snow-76-5d130,.cls-5_snow-76-5d130,.cls-6_snow-76-5d130,.cls-7_snow-76-5d130,.cls-8_snow-76-5d130,.cls-9_snow-76-5d130,.cls-10_snow-76-5d130,.cls-11_snow-76-5d130,.cls-12_snow-76-5d130,.cls-13_snow-76-5d130,.cls-14_snow-76-5d130,.cls-15_snow-76-5d130,.cls-16_snow-76-5d130,.cls-17_snow-76-5d130,.cls-18_snow-76-5d130,.cls-19_snow-76-5d130,.cls-20_snow-76-5d130,.cls-21_snow-76-5d130,.cls-22_snow-76-5d130,.cls-23_snow-76-5d130,.cls-24_snow-76-5d130,.cls-25_snow-76-5d130,.cls-26_snow-76-5d130,.cls-27_snow-76-5d130,.cls-28_snow-76-5d130,.cls-29_snow-76-5d130,.cls-30_snow-76-5d130,.cls-31_snow-76-5d130,.cls-32_snow-76-5d130,.cls-33_snow-76-5d130,.cls-34_snow-76-5d130,.cls-35_snow-76-5d130,.cls-36_snow-76-5d130,.cls-37_snow-76-5d130,.cls-38_snow-76-5d130,.cls-39_snow-76-5d130,.cls-40_snow-76-5d130,.cls-41_snow-76-5d130,.cls-42_snow-76-5d130,.cls-43_snow-76-5d130,.cls-44_snow-76-5d130,.cls-45_snow-76-5d130,.cls-46_snow-76-5d130,.cls-47_snow-76-5d130,.cls-48_snow-76-5d130,.cls-49_snow-76-5d130,.cls-50_snow-76-5d130,.cls-51_snow-76-5d130{stroke-width:0px;}.cls-1_snow-76-5d130,.cls-51_snow-76-5d130{fill:#68e1fd;}.cls-2_snow-76-5d130{fill:url(#linear-gradient);}.cls-3_snow-76-5d130{fill:url(#linear-gradient-38-snow-76-5d130);}.cls-4_snow-76-5d130{fill:url(#linear-gradient-33-snow-76-5d130);}.cls-5_snow-76-5d130{fill:url(#linear-gradient-29-snow-76-5d130);}.cls-6_snow-76-5d130{fill:url(#linear-gradient-32-snow-76-5d130);}.cls-7_snow-76-5d130{fill:url(#linear-gradient-30-snow-76-5d130);}.cls-8_snow-76-5d130{fill:url(#linear-gradient-31-snow-76-5d130);}.cls-9_snow-76-5d130{fill:url(#linear-gradient-36-snow-76-5d130);}.cls-10_snow-76-5d130{fill:url(#linear-gradient-39-snow-76-5d130);}.cls-11_snow-76-5d130{fill:url(#linear-gradient-34-snow-76-5d130);}.cls-12_snow-76-5d130{fill:url(#linear-gradient-37-snow-76-5d130);}.cls-13_snow-76-5d130{fill:url(#linear-gradient-35-snow-76-5d130);}.cls-14_snow-76-5d130{fill:url(#linear-gradient-28-snow-76-5d130);}.cls-15_snow-76-5d130{fill:url(#linear-gradient-25-snow-76-5d130);}.cls-16_snow-76-5d130{fill:url(#linear-gradient-11-snow-76-5d130);}.cls-17_snow-76-5d130{fill:url(#linear-gradient-12-snow-76-5d130);}.cls-18_snow-76-5d130{fill:url(#linear-gradient-13-snow-76-5d130);}.cls-19_snow-76-5d130{fill:url(#linear-gradient-10-snow-76-5d130);}.cls-20_snow-76-5d130{fill:url(#linear-gradient-17-snow-76-5d130);}.cls-21_snow-76-5d130{fill:url(#linear-gradient-16-snow-76-5d130);}.cls-22_snow-76-5d130{fill:url(#linear-gradient-19-snow-76-5d130);}.cls-23_snow-76-5d130{fill:url(#linear-gradient-15-snow-76-5d130);}.cls-24_snow-76-5d130{fill:url(#linear-gradient-23-snow-76-5d130);}.cls-25_snow-76-5d130{fill:url(#linear-gradient-21-snow-76-5d130);}.cls-26_snow-76-5d130{fill:url(#linear-gradient-18-snow-76-5d130);}.cls-27_snow-76-5d130{fill:url(#linear-gradient-14-snow-76-5d130);}.cls-28_snow-76-5d130{fill:url(#linear-gradient-22-snow-76-5d130);}.cls-29_snow-76-5d130{fill:url(#linear-gradient-20-snow-76-5d130);}.cls-30_snow-76-5d130{fill:url(#linear-gradient-27-snow-76-5d130);}.cls-31_snow-76-5d130{fill:url(#linear-gradient-24-snow-76-5d130);}.cls-32_snow-76-5d130{fill:url(#linear-gradient-26-snow-76-5d130);}.cls-33_snow-76-5d130{fill:url(#linear-gradient-45-snow-76-5d130);}.cls-34_snow-76-5d130{fill:url(#linear-gradient-46-snow-76-5d130);}.cls-35_snow-76-5d130{fill:url(#linear-gradient-44-snow-76-5d130);}.cls-36_snow-76-5d130{fill:url(#linear-gradient-48-snow-76-5d130);}.cls-37_snow-76-5d130{fill:url(#linear-gradient-47-snow-76-5d130);}.cls-38_snow-76-5d130{fill:url(#linear-gradient-42-snow-76-5d130);}.cls-39_snow-76-5d130{fill:url(#linear-gradient-43-snow-76-5d130);}.cls-40_snow-76-5d130{fill:url(#linear-gradient-40-snow-76-5d130);}.cls-41_snow-76-5d130{fill:url(#linear-gradient-41-snow-76-5d130);}.cls-42_snow-76-5d130{fill:url(#linear-gradient-4-snow-76-5d130);}.cls-43_snow-76-5d130{fill:url(#linear-gradient-2-snow-76-5d130);}.cls-44_snow-76-5d130{fill:url(#linear-gradient-3-snow-76-5d130);}.cls-45_snow-76-5d130{fill:url(#linear-gradient-8-snow-76-5d130);}.cls-46_snow-76-5d130{fill:url(#linear-gradient-9-snow-76-5d130);}.cls-47_snow-76-5d130{fill:url(#linear-gradient-7-snow-76-5d130);}.cls-48_snow-76-5d130{fill:url(#linear-gradient-5-snow-76-5d130);}.cls-49_snow-76-5d130{fill:url(#linear-gradient-6-snow-76-5d130);}.cls-50_snow-76-5d130{fill:#fff;}</style><linearGradient id="linear-gradient-snow-76-5d130" x1="895.69" y1="2701.98" x2="895.96" y2="2685.43" gradientTransform="translate(-471 2941.54) scale(1 -1)" gradientUnits="userSpaceOnUse"><stop offset="0" stop-color="#231f20" stop-opacity="0"/><stop offset="1" stop-color="#231f20"/></linearGradient><linearGradient id="linear-gradient-2-snow-76-5d130" x1="878.34" y1="2706.37" x2="918.05" y2="2709.62" gradientTransform="translate(-469.69 2932.75) scale(1 -1)" xlink:href="#linear-gradient-snow-76-5d130"/><linearGradient id="linear-gradient-3-snow-76-5d130" x1="858.36" y1="2702.54" x2="890.07" y2="2705.13" gradientTransform="translate(-469.69 2932.75) scale(1 -1)" xlink:href="#linear-gradient-snow-76-5d130"/><linearGradient id="linear-gradient-4-snow-76-5d130" x1="806.29" y1="2645.81" x2="806.46" y2="2635.6" xlink:href="#linear-gradient-snow-76-5d130"/><linearGradient id="linear-gradient-5-snow-76-5d130" x1="795.1" y1="2645.1" x2="819.59" y2="2647.1" gradientTransform="translate(-469.69 2932.75) scale(1 -1)" xlink:href="#linear-gradient-snow-76-5d130"/><linearGradient id="linear-gradient-6-snow-76-5d130" x1="797.6" y1="2641.84" x2="797.74" y2="2633.21" xlink:href="#linear-gradient-snow-76-5d130"/><linearGradient id="linear-gradient-7-snow-76-5d130" x1="787.93" y1="2639.88" x2="808.62" y2="2641.57" gradientTransform="translate(-469.69 2932.75) scale(1 -1)" xlink:href="#linear-gradient-snow-76-5d130"/><linearGradient id="linear-gradient-8-snow-76-5d130" x1="916.98" y1="2663.15" x2="917.58" y2="2626.34" xlink:href="#linear-gradient-snow-76-5d130"/><linearGradient id="linear-gradient-9-snow-76-5d130" x1="880.02" y1="2683.45" x2="968.31" y2="2690.67" gradientTransform="translate(-469.69 2932.75) scale(1 -1)" xlink:href="#linear-gradient-snow-76-5d130"/><linearGradient id="linear-gradient-10-snow-76-5d130" x1="602.25" y1="2677.89" x2="641.97" y2="2681.14" gradientTransform="translate(-469.69 2932.75) scale(1 -1)" xlink:href="#linear-gradient-snow-76-5d130"/><linearGradient id="linear-gradient-11-snow-76-5d130" x1="613.5" y1="2681.35" x2="589.99" y2="2671.3" gradientTransform="translate(-469.69 2932.75) scale(1 -1)" xlink:href="#linear-gradient-snow-76-5d130"/><linearGradient id="linear-gradient-12-snow-76-5d130" x1="602.89" y1="2669.31" x2="603.23" y2="2648.28" xlink:href="#linear-gradient-snow-76-5d130"/><linearGradient id="linear-gradient-13-snow-76-5d130" x1="578.44" y1="2655.65" x2="578.87" y2="2628.91" xlink:href="#linear-gradient-snow-76-5d130"/><linearGradient id="linear-gradient-14-snow-76-5d130" x1="583.71" y1="2689.54" x2="572.32" y2="2612.71" gradientTransform="translate(-469.69 2932.75) scale(1 -1)" xlink:href="#linear-gradient-snow-76-5d130"/><linearGradient id="linear-gradient-15-snow-76-5d130" x1="522.14" y1="2653.4" x2="522.82" y2="2611.98" xlink:href="#linear-gradient-snow-76-5d130"/><linearGradient id="linear-gradient-16-snow-76-5d130" x1="552.74" y1="2665.31" x2="553.76" y2="2602.75" xlink:href="#linear-gradient-snow-76-5d130"/><linearGradient id="linear-gradient-17-snow-76-5d130" x1="598.98" y1="2720.33" x2="498.3" y2="2690.93" gradientTransform="translate(-469.69 2932.75) scale(1 -1)" xlink:href="#linear-gradient-snow-76-5d130"/><linearGradient id="linear-gradient-18-snow-76-5d130" x1="549.16" y1="2696.42" x2="492.21" y2="2635.79" gradientTransform="translate(-469.69 2932.75) scale(1 -1)" xlink:href="#linear-gradient-snow-76-5d130"/><linearGradient id="linear-gradient-19-snow-76-5d130" x1="805.86" y1="2574.61" x2="797.53" y2="2631.93" gradientTransform="translate(-469.69 2932.75) scale(1 -1)" gradientUnits="userSpaceOnUse"><stop offset="0" stop-color="#fff" stop-opacity="0"/><stop offset=".13" stop-color="#fff" stop-opacity=".23"/><stop offset=".23" stop-color="#fff" stop-opacity=".41"/><stop offset=".35" stop-color="#fff" stop-opacity=".59"/><stop offset=".48" stop-color="#fff" stop-opacity=".74"/><stop offset=".6" stop-color="#fff" stop-opacity=".85"/><stop offset=".72" stop-color="#fff" stop-opacity=".93"/><stop offset=".84" stop-color="#fff" stop-opacity=".98"/><stop offset=".95" stop-color="#fff"/></linearGradient><linearGradient id="linear-gradient-20-snow-76-5d130" x1="735.83" y1="2502.16" x2="738.77" y2="2675.58" xlink:href="#linear-gradient-19-snow-76-5d130"/><linearGradient id="linear-gradient-21-snow-76-5d130" x1="872.46" y1="2700.91" x2="872.68" y2="2687.68" xlink:href="#linear-gradient-snow-76-5d130"/><linearGradient id="linear-gradient-22-snow-76-5d130" x1="852.94" y1="2707.3" x2="855.7" y2="2670.92" xlink:href="#linear-gradient-19-snow-76-5d130"/><linearGradient id="linear-gradient-23-snow-76-5d130" x1="854.95" y1="2608.28" x2="863.5" y2="2738.75" gradientTransform="translate(-469.69 2932.75) scale(1 -1)" xlink:href="#linear-gradient-snow-76-5d130"/><linearGradient id="linear-gradient-24-snow-76-5d130" x1="825.13" y1="2632.93" x2="838.72" y2="2735.06" xlink:href="#linear-gradient-snow-76-5d130"/><linearGradient id="linear-gradient-25-snow-76-5d130" x1="852.76" y1="2666.25" x2="898.32" y2="2743.66" xlink:href="#linear-gradient-snow-76-5d130"/><linearGradient id="linear-gradient-26-snow-76-5d130" x1="824.2" y1="2660.08" x2="840.48" y2="2718" gradientTransform="translate(-471 2941.54) scale(1 -1)" xlink:href="#linear-gradient-19-snow-76-5d130"/><linearGradient id="linear-gradient-27-snow-76-5d130" x1="867.9" y1="2700.59" x2="867.9" y2="2628.8" xlink:href="#linear-gradient-19-snow-76-5d130"/><linearGradient id="linear-gradient-28-snow-76-5d130" x1="872.64" y1="2674.21" x2="871.91" y2="2617.63" xlink:href="#linear-gradient-snow-76-5d130"/><linearGradient id="linear-gradient-29-snow-76-5d130" x1="873.43" y1="2645.64" x2="870.13" y2="2624.34" xlink:href="#linear-gradient-19-snow-76-5d130"/><linearGradient id="linear-gradient-30-snow-76-5d130" x1="859.98" y1="2600.2" x2="859" y2="2629.1" xlink:href="#linear-gradient-19-snow-76-5d130"/><linearGradient id="linear-gradient-31-snow-76-5d130" x1="823.91" y1="2673.93" x2="860.43" y2="2673.93" xlink:href="#linear-gradient-19-snow-76-5d130"/><linearGradient id="linear-gradient-32-snow-76-5d130" x1="805.41" y1="2683.65" x2="817.17" y2="2659.4" xlink:href="#linear-gradient-19-snow-76-5d130"/><linearGradient id="linear-gradient-33-snow-76-5d130" x1="825.76" y1="2631.87" x2="836.86" y2="2715.3" xlink:href="#linear-gradient-snow-76-5d130"/><linearGradient id="linear-gradient-34-snow-76-5d130" x1="534.61" y1="2603.28" x2="998.06" y2="2649.33" gradientTransform="translate(-469.69 2932.75) scale(1 -1)" xlink:href="#linear-gradient-snow-76-5d130"/><linearGradient id="linear-gradient-35-snow-76-5d130" x1="619.6" y1="2673.58" x2="619.86" y2="2657.03" xlink:href="#linear-gradient-snow-76-5d130"/><linearGradient id="linear-gradient-36-snow-76-5d130" x1="615.97" y1="2577.49" x2="660.79" y2="2640.68" xlink:href="#linear-gradient-19-snow-76-5d130"/><linearGradient id="linear-gradient-37-snow-76-5d130" x1="643.47" y1="2617.01" x2="643.47" y2="2766.8" gradientTransform="translate(-469.69 2932.75) scale(1 -1)" xlink:href="#linear-gradient-snow-76-5d130"/><linearGradient id="linear-gradient-38-snow-76-5d130" x1="614.41" y1="2631.98" x2="680.05" y2="2690.76" xlink:href="#linear-gradient-19-snow-76-5d130"/><linearGradient id="linear-gradient-39-snow-76-5d130" x1="642.83" y1="2672.56" x2="642.83" y2="2721.78" gradientTransform="translate(-469.69 2932.75) scale(1 -1)" xlink:href="#linear-gradient-snow-76-5d130"/><linearGradient id="linear-gradient-40-snow-76-5d130" x1="621.45" y1="2676.36" x2="665.29" y2="2731.48" xlink:href="#linear-gradient-19-snow-76-5d130"/><linearGradient id="linear-gradient-41-snow-76-5d130" x1="639.52" y1="2649.54" x2="292.19" y2="2642.68" gradientTransform="translate(-469.69 2932.75) scale(1 -1)" gradientUnits="userSpaceOnUse"><stop offset="0" stop-color="#010101" stop-opacity="0"/><stop offset=".18" stop-color="#010101" stop-opacity=".18"/><stop offset=".95" stop-color="#010101"/></linearGradient><linearGradient id="linear-gradient-42-snow-76-5d130" x1="644.34" y1="2710.95" x2="619.91" y2="2770.28" gradientTransform="translate(-469.69 2932.75) scale(1 -1)" xlink:href="#linear-gradient-snow-76-5d130"/><linearGradient id="linear-gradient-43-snow-76-5d130" x1="649.72" y1="2699.67" x2="673.42" y2="2699.67" gradientTransform="translate(-469.69 2932.75) scale(1 -1)" xlink:href="#linear-gradient-snow-76-5d130"/><linearGradient id="linear-gradient-44-snow-76-5d130" x1="555.52" y1="2664.44" x2="621.35" y2="2664.44" gradientTransform="translate(-469.69 2932.75) scale(1 -1)" xlink:href="#linear-gradient-snow-76-5d130"/><linearGradient id="linear-gradient-45-snow-76-5d130" x1="666.33" y1="2679.79" x2="709.29" y2="2679.79" gradientTransform="translate(-469.69 2932.75) scale(1 -1)" xlink:href="#linear-gradient-snow-76-5d130"/><linearGradient id="linear-gradient-46-snow-76-5d130" x1="637.9" y1="2725.1" x2="654.06" y2="2761.6" xlink:href="#linear-gradient-19-snow-76-5d130"/><linearGradient id="linear-gradient-47-snow-76-5d130" x1="621.3" y1="2731.26" x2="653.09" y2="2731.26" gradientTransform="translate(-469.69 2932.75) scale(1 -1)" xlink:href="#linear-gradient-snow-76-5d130"/><linearGradient id="linear-gradient-48-snow-76-5d130" x1="636.11" y1="2732.48" x2="671.38" y2="2642.28" gradientTransform="translate(-469.69 2932.75) scale(1 -1)" xlink:href="#linear-gradient-snow-76-5d130"/></defs><g id="background_snow-76-5d130"><path class="cls-1_snow-76-5d130 targetColor" d="M487.69,332.38c-4.05,19.78-15.37,38.03-32.52,48.52-16.65,10.26-36.91,12.69-56.46,12.55-31.74-.21-63.62-6.5-94.94-1.67-12.19,1.88-24.09,5.43-35.97,8.57-39.93,10.49-82.42,16.52-122.3,5.86-31.6-8.57-59.59-27.09-79.84-52.82-6.68-8.65-12.58-17.86-17.65-27.54-2.11-3.84-4.09-7.78-6-11.71-5.92-12.19-11.23-24.89-13.26-38.34-3.74-24.82,3.86-49.98,14.35-72.74,10.49-22.76,23.88-44.18,32.67-67.62,2.51-6.81,4.73-13.8,7.03-20.72,3.68-11.01,7.67-21.87,14.04-31.53,17.2-26,51.68-39.2,81.85-31.29l43.5-5.69c11.71-5.35,25.52-3.78,37.68.42,12.16,4.2,23.28,10.93,35.13,15.94,22.42,9.53,46.84,12.97,70.32,19.47,21.82,6.06,42.8,14.79,62.48,25.99,8.69,4.96,17.25,10.52,23.77,18.14,12.27,14.33,15.84,34.14,16.35,52.98.5,18.85-1.51,37.87,1.51,56.47.18,1.12.39,2.22.6,3.35,4.7,24.01,17.01,46.35,19.06,70.75.63,7.58.16,15.22-1.41,22.67Z" style="fill: rgb(168, 203, 211);"/></g><g id="trees_snow-76-5d130"><rect class="cls-51_snow-76-5d130 targetColor" x="422.84" y="235.57" width="2.88" height="18.44" style="fill: rgb(168, 203, 211);"/><rect class="cls-2_snow-76-5d130" x="423.34" y="235.57" width="2.88" height="18.44"/><path class="cls-51_snow-76-5d130 targetColor" d="M416.19,222.37c.6-.03,1.18-.24,1.67-.59l-.68.88c.61-.11,1.19-.38,1.67-.77-.99,1.44-2.61,2.3-4.18,3.1l-1.87.96c.68.47,1.52.66,2.33.53l-1.67,2.21c.77.05,1.53-.09,2.23-.41l-.54.89c.62-.16,1.22-.38,1.79-.67l.07.67,1.76-.37c-2.38.89-4.63,2.1-6.69,3.58.9.57,1.93.89,2.99.91-.38.37-.72.78-1,1.23.36.19.77.24,1.16.15.71.15,1.44-.08,1.93-.61-.22.34.16.84.56.84.41-.02.79-.18,1.1-.45-1.79.89-3.64,1.65-5.54,2.28-.91.31-1.93.67-2.33,1.54.64.44,1.43.6,2.18.43-.2.42.33.84.79.84s.9-.25,1.37-.29c.12-.03.24,0,.34.07.13.09.14.28.2.43.23.64,1.14.65,1.81.53,1.58-.29,3.14-.68,4.68-1.15.48.66,1.31.97,2.11.77.77-.21,1.5-.57,2.12-1.07-.52.07-1.03-.12-1.37-.52.74.37,1.5.68,2.28.95.37.16.78.2,1.17.13.41-.09.67-.48.61-.89.71.47,1.58.64,2.42.48.19-.05.38-.08.57-.1.22,0,.44.02.65.07,1.99.35,4.02.33,6-.08-1.51-2.51-5.09-2.71-7.29-4.63,1.13.66,2.42,1,3.73.98l-.57-.93c.14.27.54.27.84.13.26-.17.54-.3.84-.38.49-.05,1.04.36,1.41,0,.13-.13.19-.31.18-.49,0-.74-.77-1.22-1.43-1.56l-6.34-3.29c.23.27.6.36.93.24.32-.15.52-.48.49-.84.1.31.32.57.62.71l.28-.84.96.52c.12-.17.16-.39.09-.59.64.33,1.43.08,1.76-.56.07-.13.11-.28.13-.42h.84c-.38-.93-1.56-1.13-2.51-1.46-2-.7-3.44-2.51-5.32-3.45l1.56.48.32-.68c.18.16.4.26.64.28.23,0,.49-.23.4-.45.47.15.98.15,1.46,0,.17-.04.31-.15.38-.3.08-.28-.23-.5-.49-.63-2.36-1.12-4.6-2.47-6.69-4.02.43.17.88.31,1.33.43-.02-.19.03-.39.15-.54.6.34,1.37.14,1.71-.47.02-.03.03-.06.04-.09-1.67-.58-3.5-1.23-4.64-2.63-.84-1.04-1.27-2.43-2.38-3.19l-3.16,5.86c.68.35,1.5.22,2.04-.32-.06.29.14.58.43.64.02,0,.04,0,.06,0-1.29,0-3.45.94-4.57,1.54.27.23.84.22,1,.57s-.24.74-.45,1.04c-.63.87-1.12,1.82-1.48,2.84Z" style="fill: rgb(168, 203, 211);"/><path class="cls-43_snow-76-5d130" d="M416.19,222.37c.6-.03,1.18-.24,1.67-.59l-.68.88c.61-.11,1.19-.38,1.67-.77-.99,1.44-2.61,2.3-4.18,3.1l-1.87.96c.68.47,1.52.66,2.33.53l-1.67,2.21c.77.05,1.53-.09,2.23-.41l-.54.89c.62-.16,1.22-.38,1.79-.67l.07.67,1.76-.37c-2.38.89-4.63,2.1-6.69,3.58.9.57,1.93.89,2.99.91-.38.37-.72.78-1,1.23.36.19.77.24,1.16.15.71.15,1.44-.08,1.93-.61-.22.34.16.84.56.84.41-.02.79-.18,1.1-.45-1.79.89-3.64,1.65-5.54,2.28-.91.31-1.93.67-2.33,1.54.64.44,1.43.6,2.18.43-.2.42.33.84.79.84s.9-.25,1.37-.29c.12-.03.24,0,.34.07.13.09.14.28.2.43.23.64,1.14.65,1.81.53,1.58-.29,3.14-.68,4.68-1.15.48.66,1.31.97,2.11.77.77-.21,1.5-.57,2.12-1.07-.52.07-1.03-.12-1.37-.52.74.37,1.5.68,2.28.95.37.16.78.2,1.17.13.41-.09.67-.48.61-.89.71.47,1.58.64,2.42.48.19-.05.38-.08.57-.1.22,0,.44.02.65.07,1.99.35,4.02.33,6-.08-1.51-2.51-5.09-2.71-7.29-4.63,1.13.66,2.42,1,3.73.98l-.57-.93c.14.27.54.27.84.13.26-.17.54-.3.84-.38.49-.05,1.04.36,1.41,0,.13-.13.19-.31.18-.49,0-.74-.77-1.22-1.43-1.56l-6.34-3.29c.23.27.6.36.93.24.32-.15.52-.48.49-.84.1.31.32.57.62.71l.28-.84.96.52c.12-.17.16-.39.09-.59.64.33,1.43.08,1.76-.56.07-.13.11-.28.13-.42h.84c-.38-.93-1.56-1.13-2.51-1.46-2-.7-3.44-2.51-5.32-3.45l1.56.48.32-.68c.18.16.4.26.64.28.23,0,.49-.23.4-.45.47.15.98.15,1.46,0,.17-.04.31-.15.38-.3.08-.28-.23-.5-.49-.63-2.36-1.12-4.6-2.47-6.69-4.02.43.17.88.31,1.33.43-.02-.19.03-.39.15-.54.6.34,1.37.14,1.71-.47.02-.03.03-.06.04-.09-1.67-.58-3.5-1.23-4.64-2.63-.84-1.04-1.27-2.43-2.38-3.19l-3.16,5.86c.68.35,1.5.22,2.04-.32-.06.29.14.58.43.64.02,0,.04,0,.06,0-1.29,0-3.45.94-4.57,1.54.27.23.84.22,1,.57s-.24.74-.45,1.04c-.63.87-1.12,1.82-1.48,2.84Z"/><path class="cls-51_snow-76-5d130 targetColor" d="M394.68,226.9c.49-.02.96-.18,1.36-.47l-.54.7c.5-.08.97-.29,1.37-.61-.89,1.1-2.04,1.96-3.35,2.51l-1.49.77c.54.37,1.21.52,1.86.43l-1.3,1.76c.61.04,1.23-.07,1.78-.33l-.42.71c.5-.12.97-.3,1.43-.54l.05.54,1.41-.29c-1.89.71-3.68,1.67-5.32,2.85.71.46,1.54.71,2.39.73-.32.29-.6.62-.84.99.29.15.62.19.93.12.56.12,1.15-.07,1.55-.49-.18.28.13.64.44.67.31-.03.6-.15.84-.36-1.43.71-2.91,1.32-4.43,1.82-.76.14-1.43.58-1.86,1.23.47.32,1.04.45,1.61.37-.16.34.26.69.64.69s.73-.2,1.1-.23c.1-.02.19,0,.28.06.1.08.11.22.16.34.19.51.91.52,1.45.42,1.26-.23,2.51-.54,3.73-.92.38.52,1.04.76,1.67.61.61-.16,1.18-.45,1.67-.84-.41.06-.82-.09-1.1-.41.59.29,1.19.54,1.82.75.3.12.62.16.94.11.32-.07.54-.38.49-.71.57.37,1.26.51,1.93.38.15-.04.3-.07.46-.08.17,0,.35.02.52.05,1.59.29,3.21.27,4.79-.06-1.21-1.98-4.07-2.17-5.86-3.69.9.53,1.93.8,2.98.78l-.45-.74c.16.19.43.23.64.1.2-.13.42-.24.65-.3.38,0,.84.28,1.12,0,.1-.11.16-.25.14-.4,0-.59-.61-.97-1.14-1.25l-4.92-2.68c.22.27.62.32.89.1.17-.14.26-.35.24-.57.08.25.26.46.49.58l.23-.67.77.42c.1-.13.13-.31.07-.47.51.27,1.13.07,1.4-.43.06-.11.1-.23.11-.35h.67c-.31-.74-1.25-.9-2.01-1.16-1.6-.56-2.74-1.98-4.25-2.76l1.24.38.26-.54c.14.13.32.2.5.23.19,0,.38-.18.33-.36.38.12.78.12,1.16,0,.13,0,.27-.12.3-.24s-.18-.39-.38-.49c-1.88-.9-3.66-1.97-5.33-3.22.35.14.7.25,1.06.34-.02-.15.03-.31.12-.43.49.27,1.1.1,1.38-.38,0-.02.02-.03.03-.05-1.41-.34-2.69-1.07-3.71-2.1-.68-.84-1.02-1.95-1.9-2.51l-2.51,4.69c.54.28,1.2.18,1.63-.25-.04.24.12.46.35.5.01,0,.03,0,.04,0-1.29.16-2.53.58-3.65,1.23.21.19.69.18.84.45s-.19.59-.36.84c-.5.65-.9,1.37-1.2,2.13Z" style="fill: rgb(168, 203, 211);"/><path class="cls-44_snow-76-5d130" d="M394.68,226.9c.49-.02.96-.18,1.36-.47l-.54.7c.5-.08.97-.29,1.37-.61-.89,1.1-2.04,1.96-3.35,2.51l-1.49.77c.54.37,1.21.52,1.86.43l-1.3,1.76c.61.04,1.23-.07,1.78-.33l-.42.71c.5-.12.97-.3,1.43-.54l.05.54,1.41-.29c-1.89.71-3.68,1.67-5.32,2.85.71.46,1.54.71,2.39.73-.32.29-.6.62-.84.99.29.15.62.19.93.12.56.12,1.15-.07,1.55-.49-.18.28.13.64.44.67.31-.03.6-.15.84-.36-1.43.71-2.91,1.32-4.43,1.82-.76.14-1.43.58-1.86,1.23.47.32,1.04.45,1.61.37-.16.34.26.69.64.69s.73-.2,1.1-.23c.1-.02.19,0,.28.06.1.08.11.22.16.34.19.51.91.52,1.45.42,1.26-.23,2.51-.54,3.73-.92.38.52,1.04.76,1.67.61.61-.16,1.18-.45,1.67-.84-.41.06-.82-.09-1.1-.41.59.29,1.19.54,1.82.75.3.12.62.16.94.11.32-.07.54-.38.49-.71.57.37,1.26.51,1.93.38.15-.04.3-.07.46-.08.17,0,.35.02.52.05,1.59.29,3.21.27,4.79-.06-1.21-1.98-4.07-2.17-5.86-3.69.9.53,1.93.8,2.98.78l-.45-.74c.16.19.43.23.64.1.2-.13.42-.24.65-.3.38,0,.84.28,1.12,0,.1-.11.16-.25.14-.4,0-.59-.61-.97-1.14-1.25l-4.92-2.68c.22.27.62.32.89.1.17-.14.26-.35.24-.57.08.25.26.46.49.58l.23-.67.77.42c.1-.13.13-.31.07-.47.51.27,1.13.07,1.4-.43.06-.11.1-.23.11-.35h.67c-.31-.74-1.25-.9-2.01-1.16-1.6-.56-2.74-1.98-4.25-2.76l1.24.38.26-.54c.14.13.32.2.5.23.19,0,.38-.18.33-.36.38.12.78.12,1.16,0,.13,0,.27-.12.3-.24s-.18-.39-.38-.49c-1.88-.9-3.66-1.97-5.33-3.22.35.14.7.25,1.06.34-.02-.15.03-.31.12-.43.49.27,1.1.1,1.38-.38,0-.02.02-.03.03-.05-1.41-.34-2.69-1.07-3.71-2.1-.68-.84-1.02-1.95-1.9-2.51l-2.51,4.69c.54.28,1.2.18,1.63-.25-.04.24.12.46.35.5.01,0,.03,0,.04,0-1.29.16-2.53.58-3.65,1.23.21.19.69.18.84.45s-.19.59-.36.84c-.5.65-.9,1.37-1.2,2.13Z"/><rect class="cls-51_snow-76-5d130 targetColor" x="334.16" y="293.27" width="1.77" height="11.38" style="fill: rgb(168, 203, 211);"/><rect class="cls-42_snow-76-5d130" x="334.46" y="293.27" width="1.77" height="11.38"/><path class="cls-51_snow-76-5d130 targetColor" d="M330.06,285.13c.38-.02.74-.14,1.05-.36l-.42.54c.39-.06.75-.22,1.05-.47-.69.84-1.57,1.49-2.57,1.91l-1.15.59c.42.28.94.4,1.44.33l-1,1.36c.47.03.94-.05,1.37-.25l-.33.54c.38-.09.75-.23,1.1-.41l.04.41,1.09-.22c-1.46.55-2.85,1.29-4.12,2.2.55.35,1.19.55,1.85.56-.24.23-.44.48-.62.76.22.12.48.15.72.09.44.09.89-.05,1.2-.38-.13.21.09.5.34.52.25-.02.49-.11.68-.28-1.11.55-2.25,1.02-3.42,1.41-.55.19-1.19.41-1.43.95.36.25.8.36,1.24.29-.12.26.21.54.49.54s.56-.16.84-.18c.07-.01.15,0,.21.04.08.06.09.18.13.27.15.39.7.4,1.12.33.97-.18,1.93-.42,2.88-.71.3.41.82.59,1.3.47.48-.12.92-.35,1.3-.65-.32.04-.63-.08-.84-.33.45.23.92.43,1.41.59.23.09.48.12.72.08.25-.05.41-.29.38-.54.44.29.97.39,1.49.29.12-.03.24-.05.36-.07.13,0,.26.01.39.04,1.23.22,2.48.2,3.71-.04-.94-1.54-3.15-1.67-4.5-2.85.7.4,1.49.61,2.3.6l-.35-.57c.08.16.33.16.5.08.16-.1.32-.18.5-.23.29,0,.64.23.84,0,.08-.08.12-.19.11-.3,0-.46-.48-.75-.84-.96l-3.91-2.01c.14.17.37.23.58.16.2-.09.31-.3.29-.51.06.19.2.35.38.44l.18-.52.59.33c.08-.11.1-.24.05-.37.42.19.92,0,1.11-.41.03-.06.05-.13.06-.19h.51c-.23-.58-.96-.69-1.55-.9-1.23-.43-2.12-1.52-3.28-2.12l.96.29.19-.42c.11.1.25.16.39.18.14,0,.29-.14.25-.28.29.1.61.1.9,0,.1-.02.19-.1.23-.19.05-.17-.14-.3-.3-.38-1.45-.7-2.82-1.54-4.11-2.51.27.1.55.19.84.26,0-.12.03-.24.1-.33.37.21.84.09,1.05-.28,0-.02.02-.03.03-.05-1.09-.27-2.08-.83-2.86-1.62-.52-.64-.79-1.51-1.46-1.97l-1.99,3.68c.42.21.92.13,1.25-.2-.03.18.09.36.27.39.01,0,.02,0,.03,0-.99.13-1.95.45-2.81.95.16.14.53.13.62.35s-.15.45-.28.64c-.36.51-.66,1.06-.88,1.64Z" style="fill: rgb(168, 203, 211);"/><path class="cls-48_snow-76-5d130" d="M330.06,285.13c.38-.02.74-.14,1.05-.36l-.42.54c.39-.06.75-.22,1.05-.47-.69.84-1.57,1.49-2.57,1.91l-1.15.59c.42.28.94.4,1.44.33l-1,1.36c.47.03.94-.05,1.37-.25l-.33.54c.38-.09.75-.23,1.1-.41l.04.41,1.09-.22c-1.46.55-2.85,1.29-4.12,2.2.55.35,1.19.55,1.85.56-.24.23-.44.48-.62.76.22.12.48.15.72.09.44.09.89-.05,1.2-.38-.13.21.09.5.34.52.25-.02.49-.11.68-.28-1.11.55-2.25,1.02-3.42,1.41-.55.19-1.19.41-1.43.95.36.25.8.36,1.24.29-.12.26.21.54.49.54s.56-.16.84-.18c.07-.01.15,0,.21.04.08.06.09.18.13.27.15.39.7.4,1.12.33.97-.18,1.93-.42,2.88-.71.3.41.82.59,1.3.47.48-.12.92-.35,1.3-.65-.32.04-.63-.08-.84-.33.45.23.92.43,1.41.59.23.09.48.12.72.08.25-.05.41-.29.38-.54.44.29.97.39,1.49.29.12-.03.24-.05.36-.07.13,0,.26.01.39.04,1.23.22,2.48.2,3.71-.04-.94-1.54-3.15-1.67-4.5-2.85.7.4,1.49.61,2.3.6l-.35-.57c.08.16.33.16.5.08.16-.1.32-.18.5-.23.29,0,.64.23.84,0,.08-.08.12-.19.11-.3,0-.46-.48-.75-.84-.96l-3.91-2.01c.14.17.37.23.58.16.2-.09.31-.3.29-.51.06.19.2.35.38.44l.18-.52.59.33c.08-.11.1-.24.05-.37.42.19.92,0,1.11-.41.03-.06.05-.13.06-.19h.51c-.23-.58-.96-.69-1.55-.9-1.23-.43-2.12-1.52-3.28-2.12l.96.29.19-.42c.11.1.25.16.39.18.14,0,.29-.14.25-.28.29.1.61.1.9,0,.1-.02.19-.1.23-.19.05-.17-.14-.3-.3-.38-1.45-.7-2.82-1.54-4.11-2.51.27.1.55.19.84.26,0-.12.03-.24.1-.33.37.21.84.09,1.05-.28,0-.02.02-.03.03-.05-1.09-.27-2.08-.83-2.86-1.62-.52-.64-.79-1.51-1.46-1.97l-1.99,3.68c.42.21.92.13,1.25-.2-.03.18.09.36.27.39.01,0,.02,0,.03,0-.99.13-1.95.45-2.81.95.16.14.53.13.62.35s-.15.45-.28.64c-.36.51-.66,1.06-.88,1.64Z"/><rect class="cls-51_snow-76-5d130 targetColor" x="325.63" y="297.62" width="1.5" height="9.61" style="fill: rgb(168, 203, 211);"/><rect class="cls-49_snow-76-5d130" x="325.89" y="297.62" width="1.5" height="9.61"/><path class="cls-51_snow-76-5d130 targetColor" d="M322.17,290.74c.32-.01.63-.12.89-.3l-.35.45c.32-.05.63-.19.89-.39-.58.7-1.32,1.26-2.17,1.61l-.97.5c.35.24.79.34,1.21.28l-.84,1.15c.4.03.8-.04,1.16-.21l-.28.46c.32-.08.64-.2.94-.35v.35l.92-.19c-1.24.47-2.41,1.09-3.48,1.87.47.29,1.01.46,1.56.48-.2.19-.38.41-.53.64.19.1.4.12.61.08.37.07.75-.05,1-.32-.11.18.08.42.29.43.21-.01.41-.09.57-.23-.93.46-1.89.86-2.88,1.19-.5.1-.94.4-1.21.84.3.21.68.3,1.05.24-.1.22.17.45.42.45.24-.04.48-.09.71-.15.06-.02.12-.02.18,0,.07.05.08.15.11.23.13.33.59.34.95.28.82-.16,1.63-.36,2.43-.6.25.34.68.5,1.1.4.4-.11.78-.3,1.1-.56-.27.04-.54-.06-.71-.27.38.19.78.35,1.19.49.19.08.4.11.61.08.21-.04.35-.25.32-.46.37.25.82.34,1.25.25.1-.03.2-.05.3-.06.11-.01.22-.01.33,0,1.03.2,2.09.2,3.13,0-.79-1.3-2.65-1.41-3.8-2.41.59.34,1.26.52,1.94.5l-.29-.48c.07.14.28.13.42.07.13-.09.27-.15.43-.19.25,0,.54.18.73,0,.07-.07.1-.16.09-.26,0-.38-.4-.64-.74-.84l-3.3-1.67c.13.18.39.22.57.09.12-.09.18-.24.16-.39.05.17.17.3.33.38l.15-.43.49.27c.07-.09.08-.2.05-.3.34.17.75.03.92-.31.03-.07.06-.14.07-.21h.43c-.2-.48-.84-.59-1.31-.75-1.05-.37-1.79-1.3-2.77-1.8l.84.24.17-.35c.09.09.2.14.33.15.13,0,.25-.13.21-.24.25.08.51.08.76,0,.09-.02.16-.08.2-.16.04-.14-.13-.26-.26-.33-1.22-.59-2.38-1.29-3.47-2.09.22.09.45.16.69.22,0-.1.02-.2.08-.28.31.18.7.08.88-.23.01-.02.02-.04.03-.06-.92-.22-1.75-.7-2.42-1.37-.43-.54-.66-1.26-1.24-1.67l-1.67,3.06c.35.18.78.12,1.06-.16-.02.16.08.3.24.32,0,0,.01,0,.02,0-.84.12-1.65.4-2.38.84.13.13.44.12.52.3s-.13.38-.23.54c-.3.43-.55.9-.73,1.39Z" style="fill: rgb(168, 203, 211);"/><path class="cls-47_snow-76-5d130" d="M322.17,290.74c.32-.01.63-.12.89-.3l-.35.45c.32-.05.63-.19.89-.39-.58.7-1.32,1.26-2.17,1.61l-.97.5c.35.24.79.34,1.21.28l-.84,1.15c.4.03.8-.04,1.16-.21l-.28.46c.32-.08.64-.2.94-.35v.35l.92-.19c-1.24.47-2.41,1.09-3.48,1.87.47.29,1.01.46,1.56.48-.2.19-.38.41-.53.64.19.1.4.12.61.08.37.07.75-.05,1-.32-.11.18.08.42.29.43.21-.01.41-.09.57-.23-.93.46-1.89.86-2.88,1.19-.5.1-.94.4-1.21.84.3.21.68.3,1.05.24-.1.22.17.45.42.45.24-.04.48-.09.71-.15.06-.02.12-.02.18,0,.07.05.08.15.11.23.13.33.59.34.95.28.82-.16,1.63-.36,2.43-.6.25.34.68.5,1.1.4.4-.11.78-.3,1.1-.56-.27.04-.54-.06-.71-.27.38.19.78.35,1.19.49.19.08.4.11.61.08.21-.04.35-.25.32-.46.37.25.82.34,1.25.25.1-.03.2-.05.3-.06.11-.01.22-.01.33,0,1.03.2,2.09.2,3.13,0-.79-1.3-2.65-1.41-3.8-2.41.59.34,1.26.52,1.94.5l-.29-.48c.07.14.28.13.42.07.13-.09.27-.15.43-.19.25,0,.54.18.73,0,.07-.07.1-.16.09-.26,0-.38-.4-.64-.74-.84l-3.3-1.67c.13.18.39.22.57.09.12-.09.18-.24.16-.39.05.17.17.3.33.38l.15-.43.49.27c.07-.09.08-.2.05-.3.34.17.75.03.92-.31.03-.07.06-.14.07-.21h.43c-.2-.48-.84-.59-1.31-.75-1.05-.37-1.79-1.3-2.77-1.8l.84.24.17-.35c.09.09.2.14.33.15.13,0,.25-.13.21-.24.25.08.51.08.76,0,.09-.02.16-.08.2-.16.04-.14-.13-.26-.26-.33-1.22-.59-2.38-1.29-3.47-2.09.22.09.45.16.69.22,0-.1.02-.2.08-.28.31.18.7.08.88-.23.01-.02.02-.04.03-.06-.92-.22-1.75-.7-2.42-1.37-.43-.54-.66-1.26-1.24-1.67l-1.67,3.06c.35.18.78.12,1.06-.16-.02.16.08.3.24.32,0,0,.01,0,.02,0-.84.12-1.65.4-2.38.84.13.13.44.12.52.3s-.13.38-.23.54c-.3.43-.55.9-.73,1.39Z"/><rect class="cls-51_snow-76-5d130 targetColor" x="441.87" y="269.53" width="6.4" height="41.01" style="fill: rgb(168, 203, 211);"/><rect class="cls-45_snow-76-5d130" x="442.97" y="269.53" width="6.4" height="41.01"/><path class="cls-51_snow-76-5d130 targetColor" d="M427.09,240.18c1.36-.06,2.67-.51,3.78-1.3l-1.5,1.95c1.39-.22,2.7-.8,3.8-1.67-2.2,3.2-5.8,5.1-9.26,6.88l-4.18,2.13c1.51,1.04,3.36,1.46,5.18,1.18l-3.63,4.9c1.71.11,3.41-.2,4.97-.9l-1.17,1.97c1.37-.34,2.7-.84,3.96-1.48l.16,1.47,3.91-.84c-5.27,1.99-10.25,4.66-14.82,7.95,2,1.27,4.32,1.97,6.69,2.02-.85.82-1.6,1.75-2.23,2.75.8.41,1.71.53,2.58.33,1.57.32,3.2-.19,4.31-1.36-.49.75.34,1.8,1.24,1.86.9-.04,1.76-.4,2.43-1-3.98,1.98-8.09,3.68-12.31,5.09-2.02.68-4.28,1.47-5.16,3.41,1.3.91,2.91,1.28,4.48,1.04-.45.95.72,1.94,1.76,1.93s2.02-.55,3.05-.65c.26-.05.53,0,.76.15.28.22.32.62.43.96.54,1.43,2.51,1.45,4.04,1.16,3.51-.65,6.98-1.5,10.4-2.55.91,1.52,2.95,2.05,4.69,1.67,1.71-.47,3.32-1.27,4.71-2.38-1.15.17-2.3-.27-3.04-1.15,1.62.82,3.3,1.51,5.02,2.09.82.35,1.72.46,2.6.31.9-.19,1.5-1.05,1.36-1.97,1.6,1.04,3.53,1.42,5.4,1.05.42-.11.85-.19,1.28-.23.48,0,.97.05,1.44.16,4.43.79,8.97.73,13.38-.17-3.35-5.54-11.32-6.04-16.22-10.29,2.51,1.48,5.38,2.23,8.29,2.17l-1.31-2.02c.31.59,1.19.58,1.79.28.56-.37,1.17-.66,1.82-.84,1.07-.12,2.31.79,3.11.08.29-.29.44-.69.4-1.1,0-1.67-1.67-2.71-3.18-3.47l-14.1-7.3c.6.77,1.71.91,2.48.31.49-.38.74-.98.67-1.59.22.7.72,1.28,1.38,1.6l.62-1.85,2.14,1.16c.28-.38.35-.87.19-1.3,1.43.72,3.18.15,3.9-1.28.14-.28.24-.59.28-.91h1.86c-.84-2.07-3.48-2.51-5.59-3.25-4.45-1.56-7.64-5.5-11.83-7.67l3.45,1.06.71-1.51c.39.36.89.58,1.41.64.53,0,1.07-.52.89-1.01,1.05.35,2.19.35,3.25,0,.37-.08.68-.33.84-.68.18-.61-.5-1.1-1.08-1.38-5.2-2.5-10.15-5.5-14.77-8.96.96.38,1.94.7,2.94.95-.04-.43.08-.86.34-1.21,1.34.77,3.05.3,3.81-1.04.03-.06.06-.12.09-.18-3.8-1.3-7.8-2.74-10.32-5.86-1.87-2.3-2.83-5.41-5.28-7.07l-7.03,13.07c1.5.77,3.33.49,4.53-.7-.13.64.29,1.27.94,1.39.05.01.1.02.16.02-2.87,0-7.66,2.09-10.16,3.42.59.54,1.9.49,2.23,1.28s-.54,1.67-1.01,2.3c-1.33,1.84-2.39,3.85-3.17,5.97Z" style="fill: rgb(168, 203, 211);"/><path class="cls-46_snow-76-5d130" d="M427.09,240.18c1.36-.06,2.67-.51,3.78-1.3l-1.5,1.95c1.39-.22,2.7-.8,3.8-1.67-2.2,3.2-5.8,5.1-9.26,6.88l-4.18,2.13c1.51,1.04,3.36,1.46,5.18,1.18l-3.63,4.9c1.71.11,3.41-.2,4.97-.9l-1.17,1.97c1.37-.34,2.7-.84,3.96-1.48l.16,1.47,3.91-.84c-5.27,1.99-10.25,4.66-14.82,7.95,2,1.27,4.32,1.97,6.69,2.02-.85.82-1.6,1.75-2.23,2.75.8.41,1.71.53,2.58.33,1.57.32,3.2-.19,4.31-1.36-.49.75.34,1.8,1.24,1.86.9-.04,1.76-.4,2.43-1-3.98,1.98-8.09,3.68-12.31,5.09-2.02.68-4.28,1.47-5.16,3.41,1.3.91,2.91,1.28,4.48,1.04-.45.95.72,1.94,1.76,1.93s2.02-.55,3.05-.65c.26-.05.53,0,.76.15.28.22.32.62.43.96.54,1.43,2.51,1.45,4.04,1.16,3.51-.65,6.98-1.5,10.4-2.55.91,1.52,2.95,2.05,4.69,1.67,1.71-.47,3.32-1.27,4.71-2.38-1.15.17-2.3-.27-3.04-1.15,1.62.82,3.3,1.51,5.02,2.09.82.35,1.72.46,2.6.31.9-.19,1.5-1.05,1.36-1.97,1.6,1.04,3.53,1.42,5.4,1.05.42-.11.85-.19,1.28-.23.48,0,.97.05,1.44.16,4.43.79,8.97.73,13.38-.17-3.35-5.54-11.32-6.04-16.22-10.29,2.51,1.48,5.38,2.23,8.29,2.17l-1.31-2.02c.31.59,1.19.58,1.79.28.56-.37,1.17-.66,1.82-.84,1.07-.12,2.31.79,3.11.08.29-.29.44-.69.4-1.1,0-1.67-1.67-2.71-3.18-3.47l-14.1-7.3c.6.77,1.71.91,2.48.31.49-.38.74-.98.67-1.59.22.7.72,1.28,1.38,1.6l.62-1.85,2.14,1.16c.28-.38.35-.87.19-1.3,1.43.72,3.18.15,3.9-1.28.14-.28.24-.59.28-.91h1.86c-.84-2.07-3.48-2.51-5.59-3.25-4.45-1.56-7.64-5.5-11.83-7.67l3.45,1.06.71-1.51c.39.36.89.58,1.41.64.53,0,1.07-.52.89-1.01,1.05.35,2.19.35,3.25,0,.37-.08.68-.33.84-.68.18-.61-.5-1.1-1.08-1.38-5.2-2.5-10.15-5.5-14.77-8.96.96.38,1.94.7,2.94.95-.04-.43.08-.86.34-1.21,1.34.77,3.05.3,3.81-1.04.03-.06.06-.12.09-.18-3.8-1.3-7.8-2.74-10.32-5.86-1.87-2.3-2.83-5.41-5.28-7.07l-7.03,13.07c1.5.77,3.33.49,4.53-.7-.13.64.29,1.27.94,1.39.05.01.1.02.16.02-2.87,0-7.66,2.09-10.16,3.42.59.54,1.9.49,2.23,1.28s-.54,1.67-1.01,2.3c-1.33,1.84-2.39,3.85-3.17,5.97Z"/><circle class="cls-50_snow-76-5d130" cx="138.09" cy="232.28" r="1.27"/><path class="cls-51_snow-76-5d130 targetColor" d="M140.1,250.77c.6-.03,1.18-.24,1.67-.59l-.68.84c.61-.11,1.19-.38,1.67-.77-1.12,1.36-2.56,2.42-4.18,3.1l-1.87.96c.68.47,1.51.65,2.33.53l-1.54,2.27c.77.05,1.53-.09,2.23-.41l-.53.89c.62-.16,1.21-.38,1.78-.67l.08.67,1.76-.37c-2.38.89-4.63,2.1-6.69,3.58.9.57,1.93.89,2.99.91-.38.37-.72.78-1,1.23.36.19.77.24,1.16.15.71.14,1.44-.09,1.94-.61-.22.34.15.84.55.84.41-.02.79-.18,1.1-.45-1.79.89-3.64,1.66-5.54,2.28-.9.31-1.92.67-2.32,1.54.59.41,1.3.57,2.01.47-.2.42.33.84.79.84s.91-.25,1.37-.29c.12-.03.24,0,.34.07.13.09.14.28.2.43.23.64,1.14.65,1.82.53,1.58-.29,3.14-.68,4.68-1.15.48.66,1.31.97,2.11.77.77-.21,1.49-.57,2.12-1.07-.52.07-1.03-.12-1.37-.52.74.37,1.5.68,2.28.95.37.16.78.2,1.17.13.41-.09.67-.48.61-.89.71.47,1.58.64,2.42.48.19-.05.38-.08.58-.1.22,0,.43.02.64.07,1.99.35,4.03.33,6.01-.08-1.52-2.51-5.09-2.71-7.3-4.63,1.13.66,2.42,1,3.73.98l-.56-.92c.13.27.53.26.84.13.26-.17.54-.3.84-.38.48-.05,1.04.36,1.4,0,.13-.13.19-.31.18-.49,0-.74-.77-1.22-1.43-1.56l-6.35-3.29c.23.27.6.36.93.24.32-.15.52-.48.49-.84.1.31.33.57.63.71l.28-.84.96.52c.12-.17.16-.39.09-.59.64.32,1.43.06,1.75-.59.05-.11.09-.22.12-.34h.84c-.38-.93-1.56-1.13-2.51-1.46-2.01-.7-3.44-2.51-5.33-3.45l1.56.48.32-.68c.18.16.4.26.64.28.24,0,.49-.23.4-.45.48.15.99.15,1.46,0,.17-.04.31-.15.38-.3.08-.28-.23-.5-.49-.63-2.36-1.12-4.6-2.47-6.69-4.02.43.17.87.31,1.32.43-.02-.19.03-.39.15-.54.6.34,1.37.14,1.71-.47.02-.03.03-.06.04-.09-1.67-.58-3.5-1.23-4.64-2.63-.84-1.04-1.27-2.43-2.38-3.18l-3.15,5.86c.67.35,1.49.22,2.03-.31-.05.3.15.58.44.63.02,0,.03,0,.05,0-1.29,0-3.44.94-4.57,1.54.27.23.84.22,1.01.57s-.24.74-.46,1.04c-.59.84-1.06,1.75-1.41,2.72Z" style="fill: rgb(168, 203, 211);"/><path class="cls-19_snow-76-5d130" d="M140.1,250.77c.6-.03,1.18-.24,1.67-.59l-.68.84c.61-.11,1.19-.38,1.67-.77-1.12,1.36-2.56,2.42-4.18,3.1l-1.87.96c.68.47,1.51.65,2.33.53l-1.54,2.27c.77.05,1.53-.09,2.23-.41l-.53.89c.62-.16,1.21-.38,1.78-.67l.08.67,1.76-.37c-2.38.89-4.63,2.1-6.69,3.58.9.57,1.93.89,2.99.91-.38.37-.72.78-1,1.23.36.19.77.24,1.16.15.71.14,1.44-.09,1.94-.61-.22.34.15.84.55.84.41-.02.79-.18,1.1-.45-1.79.89-3.64,1.66-5.54,2.28-.9.31-1.92.67-2.32,1.54.59.41,1.3.57,2.01.47-.2.42.33.84.79.84s.91-.25,1.37-.29c.12-.03.24,0,.34.07.13.09.14.28.2.43.23.64,1.14.65,1.82.53,1.58-.29,3.14-.68,4.68-1.15.48.66,1.31.97,2.11.77.77-.21,1.49-.57,2.12-1.07-.52.07-1.03-.12-1.37-.52.74.37,1.5.68,2.28.95.37.16.78.2,1.17.13.41-.09.67-.48.61-.89.71.47,1.58.64,2.42.48.19-.05.38-.08.58-.1.22,0,.43.02.64.07,1.99.35,4.03.33,6.01-.08-1.52-2.51-5.09-2.71-7.3-4.63,1.13.66,2.42,1,3.73.98l-.56-.92c.13.27.53.26.84.13.26-.17.54-.3.84-.38.48-.05,1.04.36,1.4,0,.13-.13.19-.31.18-.49,0-.74-.77-1.22-1.43-1.56l-6.35-3.29c.23.27.6.36.93.24.32-.15.52-.48.49-.84.1.31.33.57.63.71l.28-.84.96.52c.12-.17.16-.39.09-.59.64.32,1.43.06,1.75-.59.05-.11.09-.22.12-.34h.84c-.38-.93-1.56-1.13-2.51-1.46-2.01-.7-3.44-2.51-5.33-3.45l1.56.48.32-.68c.18.16.4.26.64.28.24,0,.49-.23.4-.45.48.15.99.15,1.46,0,.17-.04.31-.15.38-.3.08-.28-.23-.5-.49-.63-2.36-1.12-4.6-2.47-6.69-4.02.43.17.87.31,1.32.43-.02-.19.03-.39.15-.54.6.34,1.37.14,1.71-.47.02-.03.03-.06.04-.09-1.67-.58-3.5-1.23-4.64-2.63-.84-1.04-1.27-2.43-2.38-3.18l-3.15,5.86c.67.35,1.49.22,2.03-.31-.05.3.15.58.44.63.02,0,.03,0,.05,0-1.29,0-3.44.94-4.57,1.54.27.23.84.22,1.01.57s-.24.74-.46,1.04c-.59.84-1.06,1.75-1.41,2.72Z"/><path class="cls-51_snow-76-5d130 targetColor" d="M121.1,250.41c.78-.04,1.52-.3,2.16-.74l-.84,1.11c.79-.13,1.54-.47,2.17-.97-1.25,1.82-3.35,2.91-5.29,3.92l-2.37,1.22c.86.59,1.92.84,2.95.68l-2.07,2.79c.98.07,1.95-.11,2.84-.51l-.68,1.12c.78-.2,1.54-.48,2.27-.84l.09.84,2.23-.46c-3.01,1.13-5.86,2.66-8.47,4.53,1.14.73,2.45,1.13,3.81,1.16-.49.47-.91.99-1.27,1.56.45.23.97.3,1.47.19.9.18,1.83-.11,2.46-.78-.28.43.2,1.03.71,1.06.52-.03,1.01-.23,1.39-.58-2.27,1.14-4.62,2.11-7.03,2.91-1.15.38-2.45.84-2.94,1.95.73.5,1.63.71,2.51.59-.25.54.42,1.11,1.01,1.1s1.15-.32,1.74-.37c.15-.03.31,0,.43.08.16.13.18.36.25.55.31.84,1.45.84,2.31.66,2-.37,3.98-.86,5.93-1.46.61.84,1.67,1.23,2.68.98.98-.26,1.9-.72,2.69-1.36-.65.09-1.31-.16-1.74-.66.93.47,1.9.87,2.89,1.2.47.2.99.26,1.49.18.52-.11.86-.61.78-1.13.91.59,2.01.81,3.07.61.24-.06.48-.11.73-.13.28,0,.56.02.84.08,2.52.45,5.11.42,7.62-.09-1.93-3.16-6.47-3.45-9.27-5.86,1.43.84,3.07,1.27,4.73,1.24l-.72-1.17c.18.33.68.33,1.03.17.32-.22.67-.38,1.04-.49.61-.07,1.31.46,1.77.05.16-.17.25-.39.23-.63,0-.95-.98-1.55-1.82-1.98l-8.06-4.18c.34.44.97.52,1.41.18.28-.22.42-.56.38-.92.12.4.41.73.79.91l.37-1.06,1.21.67c.16-.22.2-.5.12-.75.83.41,1.83.08,2.24-.75.08-.16.13-.32.16-.5h1.05c-.48-1.18-1.98-1.43-3.19-1.86-2.51-.89-4.37-3.14-6.76-4.37l1.97.6.41-.84c.23.21.52.34.84.37.3,0,.61-.29.51-.58.6.2,1.25.2,1.86,0,.21-.05.39-.19.48-.38.11-.35-.28-.64-.61-.79-2.98-1.43-5.82-3.14-8.47-5.12.55.22,1.1.4,1.67.54-.02-.25.05-.5.2-.69.76.44,1.73.17,2.17-.59.02-.03.04-.07.06-.11-2.17-.74-4.45-1.56-5.86-3.35-1.06-1.32-1.61-3.1-3.01-4.04l-4.02,7.46c.86.44,1.9.28,2.58-.4-.08.37.15.74.52.82.04,0,.07.01.11.02-1.67,0-4.37,1.19-5.8,1.95.33.31,1.09.28,1.28.74.19.45-.31.94-.58,1.31-.78,1.03-1.4,2.15-1.87,3.35Z" style="fill: rgb(168, 203, 211);"/><path class="cls-16_snow-76-5d130" d="M121.1,250.41c.78-.04,1.52-.3,2.16-.74l-.84,1.11c.79-.13,1.54-.47,2.17-.97-1.25,1.82-3.35,2.91-5.29,3.92l-2.37,1.22c.86.59,1.92.84,2.95.68l-2.07,2.79c.98.07,1.95-.11,2.84-.51l-.68,1.12c.78-.2,1.54-.48,2.27-.84l.09.84,2.23-.46c-3.01,1.13-5.86,2.66-8.47,4.53,1.14.73,2.45,1.13,3.81,1.16-.49.47-.91.99-1.27,1.56.45.23.97.3,1.47.19.9.18,1.83-.11,2.46-.78-.28.43.2,1.03.71,1.06.52-.03,1.01-.23,1.39-.58-2.27,1.14-4.62,2.11-7.03,2.91-1.15.38-2.45.84-2.94,1.95.73.5,1.63.71,2.51.59-.25.54.42,1.11,1.01,1.1s1.15-.32,1.74-.37c.15-.03.31,0,.43.08.16.13.18.36.25.55.31.84,1.45.84,2.31.66,2-.37,3.98-.86,5.93-1.46.61.84,1.67,1.23,2.68.98.98-.26,1.9-.72,2.69-1.36-.65.09-1.31-.16-1.74-.66.93.47,1.9.87,2.89,1.2.47.2.99.26,1.49.18.52-.11.86-.61.78-1.13.91.59,2.01.81,3.07.61.24-.06.48-.11.73-.13.28,0,.56.02.84.08,2.52.45,5.11.42,7.62-.09-1.93-3.16-6.47-3.45-9.27-5.86,1.43.84,3.07,1.27,4.73,1.24l-.72-1.17c.18.33.68.33,1.03.17.32-.22.67-.38,1.04-.49.61-.07,1.31.46,1.77.05.16-.17.25-.39.23-.63,0-.95-.98-1.55-1.82-1.98l-8.06-4.18c.34.44.97.52,1.41.18.28-.22.42-.56.38-.92.12.4.41.73.79.91l.37-1.06,1.21.67c.16-.22.2-.5.12-.75.83.41,1.83.08,2.24-.75.08-.16.13-.32.16-.5h1.05c-.48-1.18-1.98-1.43-3.19-1.86-2.51-.89-4.37-3.14-6.76-4.37l1.97.6.41-.84c.23.21.52.34.84.37.3,0,.61-.29.51-.58.6.2,1.25.2,1.86,0,.21-.05.39-.19.48-.38.11-.35-.28-.64-.61-.79-2.98-1.43-5.82-3.14-8.47-5.12.55.22,1.1.4,1.67.54-.02-.25.05-.5.2-.69.76.44,1.73.17,2.17-.59.02-.03.04-.07.06-.11-2.17-.74-4.45-1.56-5.86-3.35-1.06-1.32-1.61-3.1-3.01-4.04l-4.02,7.46c.86.44,1.9.28,2.58-.4-.08.37.15.74.52.82.04,0,.07.01.11.02-1.67,0-4.37,1.19-5.8,1.95.33.31,1.09.28,1.28.74.19.45-.31.94-.58,1.31-.78,1.03-1.4,2.15-1.87,3.35Z"/><rect class="cls-51_snow-76-5d130 targetColor" x="129.54" y="267.16" width="3.66" height="23.43" style="fill: rgb(168, 203, 211);"/><rect class="cls-17_snow-76-5d130" x="130.17" y="267.16" width="3.66" height="23.43"/><rect class="cls-51_snow-76-5d130 targetColor" x="104.46" y="279.44" width="4.65" height="29.8" style="fill: rgb(168, 203, 211);"/><rect class="cls-18_snow-76-5d130" x="105.25" y="279.44" width="4.65" height="29.8"/><path class="cls-51_snow-76-5d130 targetColor" d="M93.71,258.11c.99-.04,1.95-.37,2.75-.95l-1.09,1.42c1.01-.17,1.96-.59,2.76-1.24-1.61,2.33-4.18,3.71-6.69,5.02l-3.02,1.55c1.1.75,2.45,1.05,3.76.84l-2.63,3.56c1.24.08,2.48-.14,3.61-.66l-.84,1.43c.98-.27,1.93-.64,2.84-1.11l.11,1.08,2.84-.59c-3.83,1.44-7.45,3.38-10.77,5.77,1.45.92,3.13,1.43,4.84,1.47-.62.59-1.16,1.26-1.61,1.99.58.3,1.24.39,1.87.24,1.14.24,2.33-.13,3.13-.98-.35.54.25,1.3.9,1.35.66-.04,1.28-.3,1.77-.74-2.89,1.45-5.88,2.68-8.94,3.7-1.46.49-3.12,1.07-3.76,2.51.95.66,2.11.93,3.25.75-.33.69.53,1.41,1.28,1.41s1.46-.41,2.23-.48c.19-.03.38,0,.54.11.21.16.23.45.33.69.38,1.05,1.84,1.05,2.93.84,2.54-.48,5.06-1.1,7.53-1.87.78,1.07,2.12,1.56,3.4,1.24,1.25-.33,2.41-.92,3.42-1.72-.83.12-1.66-.2-2.21-.84,1.19.6,2.41,1.11,3.67,1.52.6.25,1.25.33,1.89.22.65-.14,1.09-.77.99-1.43,1.15.76,2.55,1.03,3.91.77.3-.08.61-.13.92-.17.35,0,.71.04,1.05.12,3.21.57,6.5.53,9.7-.13-2.46-4.02-8.22-4.38-11.79-7.47,1.83,1.07,3.91,1.61,6.02,1.57l-.88-1.46c.22.43.84.42,1.3.21.41-.27.85-.48,1.32-.61.78-.08,1.67.58,2.26.07.22-.22.33-.53.29-.84,0-1.2-1.24-1.97-2.31-2.51l-10.25-5.3c.43.56,1.24.66,1.8.23.36-.28.54-.72.49-1.17.16.51.52.93,1,1.16l.46-1.35,1.55.84c.2-.27.26-.63.14-.95,1.03.54,2.31.14,2.84-.9.11-.22.19-.45.22-.69h1.35c-.62-1.5-2.51-1.82-4.06-2.36-3.24-1.13-5.55-4-8.6-5.57l2.51.77.52-1.1c.29.26.65.42,1.03.46.38,0,.78-.37.64-.73.77.25,1.59.25,2.36,0,.27-.06.5-.24.61-.49.13-.44-.36-.84-.78-1-3.8-1.82-7.41-3.99-10.78-6.51.7.28,1.41.51,2.14.69-.03-.32.06-.63.25-.89.97.56,2.21.23,2.76-.74.03-.04.05-.09.07-.13-2.76-.95-5.66-1.99-7.53-4.25-1.36-1.67-2.05-3.93-3.83-5.14l-5.1,9.5c1.09.56,2.42.35,3.29-.51-.1.45.18.9.63,1,.07.02.14.02.2.02-2.09,0-5.56,1.52-7.38,2.51.43.38,1.38.35,1.62.92.24.57-.39,1.2-.74,1.67-.97,1.34-1.75,2.8-2.33,4.35Z" style="fill: rgb(168, 203, 211);"/><path class="cls-27_snow-76-5d130" d="M93.71,258.11c.99-.04,1.95-.37,2.75-.95l-1.09,1.42c1.01-.17,1.96-.59,2.76-1.24-1.61,2.33-4.18,3.71-6.69,5.02l-3.02,1.55c1.1.75,2.45,1.05,3.76.84l-2.63,3.56c1.24.08,2.48-.14,3.61-.66l-.84,1.43c.98-.27,1.93-.64,2.84-1.11l.11,1.08,2.84-.59c-3.83,1.44-7.45,3.38-10.77,5.77,1.45.92,3.13,1.43,4.84,1.47-.62.59-1.16,1.26-1.61,1.99.58.3,1.24.39,1.87.24,1.14.24,2.33-.13,3.13-.98-.35.54.25,1.3.9,1.35.66-.04,1.28-.3,1.77-.74-2.89,1.45-5.88,2.68-8.94,3.7-1.46.49-3.12,1.07-3.76,2.51.95.66,2.11.93,3.25.75-.33.69.53,1.41,1.28,1.41s1.46-.41,2.23-.48c.19-.03.38,0,.54.11.21.16.23.45.33.69.38,1.05,1.84,1.05,2.93.84,2.54-.48,5.06-1.1,7.53-1.87.78,1.07,2.12,1.56,3.4,1.24,1.25-.33,2.41-.92,3.42-1.72-.83.12-1.66-.2-2.21-.84,1.19.6,2.41,1.11,3.67,1.52.6.25,1.25.33,1.89.22.65-.14,1.09-.77.99-1.43,1.15.76,2.55,1.03,3.91.77.3-.08.61-.13.92-.17.35,0,.71.04,1.05.12,3.21.57,6.5.53,9.7-.13-2.46-4.02-8.22-4.38-11.79-7.47,1.83,1.07,3.91,1.61,6.02,1.57l-.88-1.46c.22.43.84.42,1.3.21.41-.27.85-.48,1.32-.61.78-.08,1.67.58,2.26.07.22-.22.33-.53.29-.84,0-1.2-1.24-1.97-2.31-2.51l-10.25-5.3c.43.56,1.24.66,1.8.23.36-.28.54-.72.49-1.17.16.51.52.93,1,1.16l.46-1.35,1.55.84c.2-.27.26-.63.14-.95,1.03.54,2.31.14,2.84-.9.11-.22.19-.45.22-.69h1.35c-.62-1.5-2.51-1.82-4.06-2.36-3.24-1.13-5.55-4-8.6-5.57l2.51.77.52-1.1c.29.26.65.42,1.03.46.38,0,.78-.37.64-.73.77.25,1.59.25,2.36,0,.27-.06.5-.24.61-.49.13-.44-.36-.84-.78-1-3.8-1.82-7.41-3.99-10.78-6.51.7.28,1.41.51,2.14.69-.03-.32.06-.63.25-.89.97.56,2.21.23,2.76-.74.03-.04.05-.09.07-.13-2.76-.95-5.66-1.99-7.53-4.25-1.36-1.67-2.05-3.93-3.83-5.14l-5.1,9.5c1.09.56,2.42.35,3.29-.51-.1.45.18.9.63,1,.07.02.14.02.2.02-2.09,0-5.56,1.52-7.38,2.51.43.38,1.38.35,1.62.92.24.57-.39,1.2-.74,1.67-.97,1.34-1.75,2.8-2.33,4.35Z"/><rect class="cls-51_snow-76-5d130 targetColor" x="46.52" y="278.16" width="7.2" height="46.15" style="fill: rgb(168, 203, 211);"/><rect class="cls-23_snow-76-5d130" x="47.76" y="278.16" width="7.2" height="46.15"/><rect class="cls-51_snow-76-5d130 targetColor" x="74.75" y="261.17" width="10.88" height="69.71" style="fill: rgb(168, 203, 211);"/><rect class="cls-21_snow-76-5d130" x="76.63" y="261.17" width="10.88" height="69.71"/><path class="cls-51_snow-76-5d130 targetColor" d="M49.63,211.27c2.31-.1,4.55-.87,6.43-2.21l-2.51,3.35c2.37-.39,4.59-1.39,6.47-2.89-3.75,5.44-9.86,8.67-15.74,11.71l-7.05,3.62c2.57,1.77,5.72,2.49,8.8,2.02l-6.16,8.36c2.9.19,5.8-.33,8.44-1.53l-2,3.35c2.34-.58,4.6-1.42,6.75-2.51l.26,2.51,6.65-1.36c-8.96,3.33-17.45,7.83-25.24,13.38,3.4,2.15,7.31,3.34,11.33,3.44-1.45,1.4-2.72,2.96-3.79,4.67,1.35.7,2.91.9,4.39.56,2.68.55,5.45-.33,7.32-2.32-.84,1.28.59,3.04,2.1,3.15s2.9-.84,4.18-1.67c-6.76,3.37-13.75,6.26-20.91,8.64-3.43,1.15-7.29,2.51-8.77,5.8,2.21,1.54,4.93,2.18,7.6,1.76-.75,1.61,1.24,3.3,3.01,3.29s3.42-.95,5.19-1.11c.43-.08.87,0,1.25.22.48.37.54,1.05.75,1.62.9,2.44,4.3,2.47,6.86,1.99,5.96-1.11,11.86-2.57,17.66-4.36,1.55,2.58,5.02,3.48,7.96,2.9s5.53-2.33,8.01-4.03c-1.95.27-3.9-.47-5.18-1.97,2.77,1.4,5.64,2.59,8.59,3.56,1.39.6,2.93.78,4.43.52,1.46-.38,2.73-1.89,2.31-3.35,2.7,1.76,5.97,2.4,9.13,1.8.72-.18,1.44-.31,2.17-.39.83-.01,1.65.07,2.46.26,7.51,1.35,15.2,1.28,22.68-.23-5.75-9.41-19.24-10.26-27.6-17.49,4.27,2.51,9.15,3.78,14.09,3.7l-2.14-3.49c.53,1.01,2.02.98,3.05.49,1.04-.49,1.95-1.3,3.08-1.43,1.82-.2,3.92,1.36,5.3.14.48-.5.73-1.18.68-1.87-.08-2.8-2.91-4.61-5.4-5.86l-23.97-12.41c1.02,1.3,2.9,1.54,4.2.52.82-.64,1.25-1.67,1.13-2.7.37,1.19,1.23,2.17,2.35,2.7l1.07-3.15,3.63,1.97c.47-.64.6-1.47.33-2.23,2.74,1.73,6.99-.49,7.14-3.72h3.15c-1.43-3.5-5.91-4.26-9.49-5.51-7.53-2.65-12.99-9.35-20.08-13.03l5.86,1.81,1.21-2.58c.67.6,1.51.98,2.4,1.08.9,0,1.82-.84,1.51-1.67,1.79.59,3.72.59,5.51,0,.63-.14,1.16-.57,1.43-1.15.32-1.04-.84-1.87-1.83-2.34-8.88-4.28-17.32-9.42-25.2-15.33,1.64.64,3.31,1.18,5.02,1.61-.07-.74.13-1.47.58-2.07,2.27,1.3,5.17.51,6.47-1.76.06-.1.11-.2.16-.31-6.45-2.21-13.25-4.65-17.57-9.95-3.18-3.91-4.81-9.2-8.98-12.02l-11.92,22.22c2.55,1.3,5.65.83,7.7-1.16-.19,1.11.55,2.16,1.65,2.35.06.01.13.02.19.02-4.88-.06-13.01,3.54-17.25,5.81,1,.9,3.23.84,3.8,2.17.65,1.52-.92,2.79-1.72,3.91-2.25,3.13-4.07,6.55-5.39,10.17Z" style="fill: rgb(168, 203, 211);"/><path class="cls-20_snow-76-5d130" d="M49.63,211.27c2.31-.1,4.55-.87,6.43-2.21l-2.51,3.35c2.37-.39,4.59-1.39,6.47-2.89-3.75,5.44-9.86,8.67-15.74,11.71l-7.05,3.62c2.57,1.77,5.72,2.49,8.8,2.02l-6.16,8.36c2.9.19,5.8-.33,8.44-1.53l-2,3.35c2.34-.58,4.6-1.42,6.75-2.51l.26,2.51,6.65-1.36c-8.96,3.33-17.45,7.83-25.24,13.38,3.4,2.15,7.31,3.34,11.33,3.44-1.45,1.4-2.72,2.96-3.79,4.67,1.35.7,2.91.9,4.39.56,2.68.55,5.45-.33,7.32-2.32-.84,1.28.59,3.04,2.1,3.15s2.9-.84,4.18-1.67c-6.76,3.37-13.75,6.26-20.91,8.64-3.43,1.15-7.29,2.51-8.77,5.8,2.21,1.54,4.93,2.18,7.6,1.76-.75,1.61,1.24,3.3,3.01,3.29s3.42-.95,5.19-1.11c.43-.08.87,0,1.25.22.48.37.54,1.05.75,1.62.9,2.44,4.3,2.47,6.86,1.99,5.96-1.11,11.86-2.57,17.66-4.36,1.55,2.58,5.02,3.48,7.96,2.9s5.53-2.33,8.01-4.03c-1.95.27-3.9-.47-5.18-1.97,2.77,1.4,5.64,2.59,8.59,3.56,1.39.6,2.93.78,4.43.52,1.46-.38,2.73-1.89,2.31-3.35,2.7,1.76,5.97,2.4,9.13,1.8.72-.18,1.44-.31,2.17-.39.83-.01,1.65.07,2.46.26,7.51,1.35,15.2,1.28,22.68-.23-5.75-9.41-19.24-10.26-27.6-17.49,4.27,2.51,9.15,3.78,14.09,3.7l-2.14-3.49c.53,1.01,2.02.98,3.05.49,1.04-.49,1.95-1.3,3.08-1.43,1.82-.2,3.92,1.36,5.3.14.48-.5.73-1.18.68-1.87-.08-2.8-2.91-4.61-5.4-5.86l-23.97-12.41c1.02,1.3,2.9,1.54,4.2.52.82-.64,1.25-1.67,1.13-2.7.37,1.19,1.23,2.17,2.35,2.7l1.07-3.15,3.63,1.97c.47-.64.6-1.47.33-2.23,2.74,1.73,6.99-.49,7.14-3.72h3.15c-1.43-3.5-5.91-4.26-9.49-5.51-7.53-2.65-12.99-9.35-20.08-13.03l5.86,1.81,1.21-2.58c.67.6,1.51.98,2.4,1.08.9,0,1.82-.84,1.51-1.67,1.79.59,3.72.59,5.51,0,.63-.14,1.16-.57,1.43-1.15.32-1.04-.84-1.87-1.83-2.34-8.88-4.28-17.32-9.42-25.2-15.33,1.64.64,3.31,1.18,5.02,1.61-.07-.74.13-1.47.58-2.07,2.27,1.3,5.17.51,6.47-1.76.06-.1.11-.2.16-.31-6.45-2.21-13.25-4.65-17.57-9.95-3.18-3.91-4.81-9.2-8.98-12.02l-11.92,22.22c2.55,1.3,5.65.83,7.7-1.16-.19,1.11.55,2.16,1.65,2.35.06.01.13.02.19.02-4.88-.06-13.01,3.54-17.25,5.81,1,.9,3.23.84,3.8,2.17.65,1.52-.92,2.79-1.72,3.91-2.25,3.13-4.07,6.55-5.39,10.17Z"/><path class="cls-51_snow-76-5d130 targetColor" d="M29.89,245.13c1.53-.06,3.01-.57,4.26-1.46l-1.67,2.2c1.56-.27,3.02-.93,4.26-1.92-2.51,3.6-6.53,5.74-10.42,7.74l-4.63,2.39c1.71,1.18,3.8,1.66,5.86,1.34l-4.09,5.5c1.92.13,3.84-.22,5.59-1.01l-1.37,2.21c1.55-.39,3.05-.95,4.48-1.67l.17,1.67,4.43-.9c-5.95,2.23-11.57,5.24-16.73,8.94,2.26,1.43,4.86,2.22,7.53,2.28-.96.92-1.8,1.95-2.51,3.07.89.47,1.92.6,2.9.38,1.77.36,3.6-.21,4.84-1.52-.54.84.39,2.02,1.4,2.08,1.01-.05,1.98-.45,2.74-1.13-4.47,2.24-9.1,4.15-13.84,5.72-2.28.76-4.83,1.67-5.81,3.84,1.46,1.02,3.26,1.44,5.02,1.17-.5,1.06.84,2.18,1.99,2.17s2.27-.63,3.43-.74c.29-.05.59.01.84.17.32.25.36.7.49,1.08.6,1.61,2.85,1.63,4.54,1.31,3.96-.74,7.87-1.7,11.71-2.88,1.03,1.67,3.35,2.3,5.28,1.92,1.93-.52,3.73-1.43,5.3-2.67-1.29.18-2.59-.31-3.43-1.3,1.84.92,3.74,1.71,5.69,2.36.92.39,1.94.51,2.93.34,1.01-.21,1.69-1.18,1.53-2.21,1.78,1.16,3.95,1.59,6.04,1.19.47-.12.95-.21,1.44-.26.56,0,1.12.05,1.67.17,4.97.89,10.06.83,15.01-.18-3.81-6.23-12.73-6.8-18.25-11.58,2.83,1.65,6.05,2.5,9.33,2.44l-1.41-2.31c.35.67,1.34.65,2.02.33.62-.42,1.31-.74,2.04-.95,1.2-.13,2.6.9,3.5.09.33-.33.49-.78.45-1.24-.05-1.86-1.92-3.05-3.57-3.91l-15.89-8.22c.68.86,1.92,1.01,2.78.34.54-.42.82-1.1.75-1.78.24.79.81,1.44,1.56,1.8l.71-2.08,2.4,1.3c.31-.43.39-.97.23-1.47,1.59.83,3.56.21,4.39-1.39.18-.34.29-.7.34-1.08h2.09c-.95-2.32-3.91-2.82-6.28-3.65-5.02-1.76-8.6-6.19-13.32-8.63l3.89,1.2.84-1.67c.44.4,1,.65,1.59.71.59,0,1.2-.58,1-1.13,1.18.39,2.46.39,3.65,0,.42-.09.77-.37.95-.76.21-.69-.56-1.25-1.21-1.56-5.89-2.8-11.49-6.16-16.73-10.04,1.09.42,2.21.78,3.35,1.07-.05-.49.09-.98.38-1.37,1.51.85,3.42.31,4.27-1.2.04-.08.08-.15.12-.23-4.27-1.46-8.77-3.08-11.62-6.58-2.1-2.59-3.18-6.09-5.94-7.96l-7.9,14.7c1.69.87,3.75.55,5.1-.79-.14.73.33,1.43,1.06,1.57.06.01.11.02.17.02-3.23,0-8.62,2.35-11.42,3.86.66.59,2.13.55,2.51,1.43.43,1.01-.6,1.85-1.14,2.59-1.5,2.07-2.71,4.33-3.6,6.73Z" style="fill: rgb(168, 203, 211);"/><path class="cls-26_snow-76-5d130" d="M29.89,245.13c1.53-.06,3.01-.57,4.26-1.46l-1.67,2.2c1.56-.27,3.02-.93,4.26-1.92-2.51,3.6-6.53,5.74-10.42,7.74l-4.63,2.39c1.71,1.18,3.8,1.66,5.86,1.34l-4.09,5.5c1.92.13,3.84-.22,5.59-1.01l-1.37,2.21c1.55-.39,3.05-.95,4.48-1.67l.17,1.67,4.43-.9c-5.95,2.23-11.57,5.24-16.73,8.94,2.26,1.43,4.86,2.22,7.53,2.28-.96.92-1.8,1.95-2.51,3.07.89.47,1.92.6,2.9.38,1.77.36,3.6-.21,4.84-1.52-.54.84.39,2.02,1.4,2.08,1.01-.05,1.98-.45,2.74-1.13-4.47,2.24-9.1,4.15-13.84,5.72-2.28.76-4.83,1.67-5.81,3.84,1.46,1.02,3.26,1.44,5.02,1.17-.5,1.06.84,2.18,1.99,2.17s2.27-.63,3.43-.74c.29-.05.59.01.84.17.32.25.36.7.49,1.08.6,1.61,2.85,1.63,4.54,1.31,3.96-.74,7.87-1.7,11.71-2.88,1.03,1.67,3.35,2.3,5.28,1.92,1.93-.52,3.73-1.43,5.3-2.67-1.29.18-2.59-.31-3.43-1.3,1.84.92,3.74,1.71,5.69,2.36.92.39,1.94.51,2.93.34,1.01-.21,1.69-1.18,1.53-2.21,1.78,1.16,3.95,1.59,6.04,1.19.47-.12.95-.21,1.44-.26.56,0,1.12.05,1.67.17,4.97.89,10.06.83,15.01-.18-3.81-6.23-12.73-6.8-18.25-11.58,2.83,1.65,6.05,2.5,9.33,2.44l-1.41-2.31c.35.67,1.34.65,2.02.33.62-.42,1.31-.74,2.04-.95,1.2-.13,2.6.9,3.5.09.33-.33.49-.78.45-1.24-.05-1.86-1.92-3.05-3.57-3.91l-15.89-8.22c.68.86,1.92,1.01,2.78.34.54-.42.82-1.1.75-1.78.24.79.81,1.44,1.56,1.8l.71-2.08,2.4,1.3c.31-.43.39-.97.23-1.47,1.59.83,3.56.21,4.39-1.39.18-.34.29-.7.34-1.08h2.09c-.95-2.32-3.91-2.82-6.28-3.65-5.02-1.76-8.6-6.19-13.32-8.63l3.89,1.2.84-1.67c.44.4,1,.65,1.59.71.59,0,1.2-.58,1-1.13,1.18.39,2.46.39,3.65,0,.42-.09.77-.37.95-.76.21-.69-.56-1.25-1.21-1.56-5.89-2.8-11.49-6.16-16.73-10.04,1.09.42,2.21.78,3.35,1.07-.05-.49.09-.98.38-1.37,1.51.85,3.42.31,4.27-1.2.04-.08.08-.15.12-.23-4.27-1.46-8.77-3.08-11.62-6.58-2.1-2.59-3.18-6.09-5.94-7.96l-7.9,14.7c1.69.87,3.75.55,5.1-.79-.14.73.33,1.43,1.06,1.57.06.01.11.02.17.02-3.23,0-8.62,2.35-11.42,3.86.66.59,2.13.55,2.51,1.43.43,1.01-.6,1.85-1.14,2.59-1.5,2.07-2.71,4.33-3.6,6.73Z"/></g><g id="ground_snow-76-5d130"><path class="cls-51_snow-76-5d130 targetColor" d="M416.9,296.35c-20.65-2.96-41.77-4.77-62.33-1.15-37.77,6.64-70.32,30.91-107.57,40-17.73,4.33-36.1,5.11-54.37,5.86,20.58,9.01,42.66,13.94,64.72,18.31,30.04,5.99,60.22,11.01,90.56,15.06,21.75,2.91,43.77,5.35,65.59,3.04,19.77-2.09,57.88-9.59,60.35-34.67,3.1-31.19-33.09-43.02-56.96-46.43Z" style="fill: rgb(168, 203, 211);"/><path class="cls-22_snow-76-5d130" d="M473.88,342.78c-2.51,25.09-40.59,32.57-60.37,34.66-21.82,2.32-43.84-.11-65.58-3.03-30.33-4.08-60.51-9.1-90.54-15.06-22.02-4.36-44.13-9.29-64.72-18.29,18.24-.78,36.61-1.56,54.37-5.86,26.2-6.39,50.08-20.3,75.08-30.27,10.55-4.23,21.27-7.75,32.46-9.71,20.57-3.62,41.68-1.82,62.35,1.15,11.35,1.61,25.5,5.16,36.88,11.79,12.49,7.23,21.68,18.27,20.06,34.61Z"/><path class="cls-51_snow-76-5d130 targetColor" d="M487.7,332.38c-4.05,19.79-15.39,38.03-32.52,48.52-16.66,10.24-36.92,12.67-56.46,12.55-31.74-.22-63.62-6.51-94.95-1.67-12.2,1.9-24.08,5.44-35.97,8.57-39.92,10.5-82.4,16.53-122.29,5.86-31.6-8.57-59.6-27.09-79.84-52.82-6.67-8.65-12.57-17.86-17.64-27.53,1.3-1.46,2.79-2.94,4.43-4.55,18.71-18.21,43.72-29.28,69.43-32.91,31.9-4.43,64.64,2.02,94.45,14.22,18.04,7.36,35.31,16.85,54.05,22.25,18.4,5.28,37.58,6.52,56.65,7.37,49.63,2.28,99.31,2.28,149.03,0,3.88-.28,7.77-.23,11.64.15Z" style="fill: rgb(168, 203, 211);"/><path class="cls-29_snow-76-5d130" d="M487.7,332.38c-4.05,19.79-15.39,38.03-32.52,48.52-16.66,10.24-36.92,12.67-56.46,12.55-31.74-.22-63.62-6.51-94.95-1.67-12.2,1.9-24.08,5.44-35.97,8.57-39.92,10.5-82.4,16.53-122.29,5.86-31.6-8.57-59.6-27.09-79.84-52.82-6.67-8.65-12.57-17.86-17.64-27.53,1.3-1.46,2.79-2.94,4.43-4.55,18.71-18.21,43.72-29.28,69.43-32.91,31.9-4.43,64.64,2.02,94.45,14.22,18.04,7.36,35.31,16.85,54.05,22.25,18.4,5.28,37.58,6.52,56.65,7.37,49.63,2.28,99.31,2.28,149.03,0,3.88-.28,7.77-.23,11.64.15Z"/></g><g id="house_snow-76-5d130"><circle class="cls-50_snow-76-5d130" cx="409.1" cy="251.18" r="3.11"/><circle class="cls-50_snow-76-5d130" cx="429.95" cy="239.86" r="1.77"/><circle class="cls-50_snow-76-5d130" cx="333.16" cy="257.9" r="2.89"/><circle class="cls-50_snow-76-5d130" cx="324.56" cy="272.13" r="1.65"/><circle class="cls-50_snow-76-5d130" cx="349.56" cy="267.6" r="2.89"/><circle class="cls-50_snow-76-5d130" cx="364.38" cy="248.24" r="2.89"/><circle class="cls-50_snow-76-5d130" cx="365.68" cy="272.91" r="1.65"/><rect class="cls-51_snow-76-5d130 targetColor" x="399.99" y="237.45" width="2.3" height="14.73" style="fill: rgb(168, 203, 211);"/><rect class="cls-25_snow-76-5d130" x="400.38" y="237.45" width="2.3" height="14.73"/><path class="cls-51_snow-76-5d130 targetColor" d="M351.49,240.37c.94-1.99,3.09-3.18,5.25-3.57,2.19-.28,4.4-.28,6.58,0,13.69,1.03,27.38-2.04,41.11-1.82,3.35.05,6.78.32,9.85,1.67,1.34.51,2.47,1.46,3.21,2.69.71,1.29.41,2.9-.71,3.85-.78.43-1.66.63-2.55.59l-8.08.33-32.62,1.28c-3.86.23-26.36,4.27-22.03-5.01Z" style="fill: rgb(168, 203, 211);"/><path class="cls-28_snow-76-5d130" d="M351.57,240.43c.93-1.99,3.09-3.18,5.25-3.57,2.19-.27,4.4-.25,6.58.04,13.69,1.02,27.37-2.04,41.1-1.83,3.35.05,6.78.32,9.85,1.67,1.34.51,2.48,1.45,3.21,2.69.72,1.29.42,2.9-.7,3.85-.78.44-1.67.64-2.56.59l-8.08.32-32.62,1.29c-3.87.18-26.36,4.21-22.02-5.04Z"/><ellipse class="cls-51_snow-76-5d130 targetColor" cx="356.17" cy="242.23" rx="4.81" ry="4.44" style="fill: rgb(168, 203, 211);"/><path class="cls-24_snow-76-5d130" d="M453.79,308.12c-.08.01-.16.01-.23,0-3.61.21-7.24-.47-10.87-.44-5.33.05-10.5,1.67-15.72,2.74-10.23,2.11-20.77,2.16-31.21,2.16-13.68,0-27.54-.59-41.16.37-12.32.84-24.07.47-35.76-4.02.89-1.5,1.98-2.87,3.24-4.07,10.55-4.23,21.27-7.75,32.46-9.71,20.57-3.62,41.68-1.82,62.35,1.15,11.37,1.66,25.55,5.21,36.9,11.82Z"/><rect class="cls-51_snow-76-5d130 targetColor" x="366.28" y="265.91" width="63.33" height="47.17" rx="6.27" ry="6.27" style="fill: rgb(168, 203, 211);"/><rect class="cls-51_snow-76-5d130 targetColor" x="340.2" y="265.91" width="32.95" height="47.17" rx="4.52" ry="4.52" style="fill: rgb(168, 203, 211);"/><rect class="cls-31_snow-76-5d130" x="340.2" y="265.91" width="32.95" height="47.17" rx="4.52" ry="4.52"/><polygon class="cls-51_snow-76-5d130 targetColor" points="326.92 272.2 354.67 244.47 414.37 244.47 440.92 271.02 326.92 272.2" style="fill: rgb(168, 203, 211);"/><polygon class="cls-15_snow-76-5d130" points="326.92 272.2 354.67 244.47 414.37 244.47 440.92 271.02 326.92 272.2"/><polygon class="cls-32_snow-76-5d130" points="355.95 249.43 378.18 271.66 333.72 271.66 355.95 249.43"/><path class="cls-51_snow-76-5d130 targetColor" d="M374.95,259.39c.55,1.45.84,3.02,1.67,4.35,1.37,2.28,4.07,3.51,5.4,5.81.76,1.3,1.05,2.91,2.09,4,1.24,1.1,2.91,1.58,4.55,1.31,1.63-.17,3.19-.74,4.78-1.04,2.53-.38,5.1-.43,7.65-.16l26.54,1.72c1.09.13,2.19.07,3.26-.16,1.59-.46,2.85-1.68,3.35-3.26l-1.75.4c.59-.98,1.98-1.06,3.07-.74s2.11.95,3.24,1c1.92-.06,3.53-1.46,3.86-3.35.25-1.87-.31-3.76-1.53-5.2-1.22-1.41-2.63-2.64-4.18-3.66l-7.07-5.02c-2.75-1.97-5.55-3.97-7.61-6.69-1.06-1.38-1.94-2.95-3.3-4.05-2.51-2.01-6.01-1.97-9.2-1.87-10.08.27-20.16.12-30.23-.45-2.51-.14-5.02-.31-7.49-.5-1.67-.13-15.12.18-16.63,1.13-2.42,1.51-1.74,5.11-.3,7.04,2.67,3.68,18.06,4.8,19.83,9.38Z" style="fill: rgb(168, 203, 211);"/><path class="cls-30_snow-76-5d130" d="M442.63,269.26c-.34,1.88-1.94,3.28-3.86,3.35-1.12-.19-2.22-.52-3.26-.99-1.07-.34-2.51-.23-3.05.73l1.75-.39c-.5,1.58-1.76,2.8-3.35,3.26-1.07.24-2.17.3-3.26.16l-26.54-1.72c-2.55-.27-5.11-.22-7.65.16-.91.18-1.82.44-2.74.65-.67.18-1.35.31-2.03.39-1.64.27-3.31-.22-4.54-1.33-1.05-1.07-1.33-2.69-2.11-4-1.34-2.29-4.02-3.52-5.4-5.81-.84-1.34-1.07-2.9-1.67-4.33-1.75-4.57-17.15-5.7-19.91-9.43-.31-.42-.55-.87-.74-1.36-.84-1.96-.84-4.49,1.05-5.69,1.51-.94,14.98-1.25,16.62-1.12,2.51.18,5.02.36,7.53.49,10.04.6,20.15.73,30.22.44,3.21-.08,6.73-.1,9.2,1.88,1.36,1.1,2.23,2.69,3.29,4.07,2.07,2.67,4.89,4.68,7.62,6.69,2.35,1.67,4.7,3.35,7.08,5.02,1.56,1.02,2.97,2.25,4.18,3.66,1.24,1.44,1.81,3.33,1.58,5.22Z"/><rect class="cls-14_snow-76-5d130" x="383.26" y="279.19" width="36.25" height="15.68"/><path class="cls-51_snow-76-5d130 targetColor" d="M384.94,298.09c1.02-1.35,3.2-.59,4.51.49s2.84,2.44,4.45,1.93,2.39-2.89,4.18-3.1c2.39-.28,3.62,3.71,6.03,3.48,1.12-.11,1.89-1.11,2.66-1.94.77-.83,1.93-1.59,2.94-1.09.79.39,1.05,1.38,1.38,2.21s1.04,1.72,1.91,1.53,1.12-1.32,1.3-2.22.84-1.97,1.67-1.73,1.17,2.09,2.21,1.99c.84-.08,1.04-1.41,1.86-1.6.28-.02.56,0,.84.05,1.2-.06,2.13-1.08,2.07-2.29,0-.09-.02-.19-.03-.28-.31-1.25-1.27-2.23-2.51-2.57-1.22-.32-2.48-.43-3.74-.31-9.55.36-19.11.05-28.65.33-2.69.08-5.62.61-6.34,3.61-.23.92-.38,4.04.61,4.58,1.94,1.05,1.96-2.21,2.65-3.09Z" style="fill: rgb(168, 203, 211);"/><path class="cls-5_snow-76-5d130" d="M384.94,298.09c1.02-1.35,3.2-.59,4.51.49s2.84,2.44,4.45,1.93,2.39-2.89,4.18-3.1c2.39-.28,3.62,3.71,6.03,3.48,1.12-.11,1.89-1.11,2.66-1.94.77-.83,1.93-1.59,2.94-1.09.79.39,1.05,1.38,1.38,2.21s1.04,1.72,1.91,1.53,1.12-1.32,1.3-2.22.84-1.97,1.67-1.73,1.17,2.09,2.21,1.99c.84-.08,1.04-1.41,1.86-1.6.28-.02.56,0,.84.05,1.2-.06,2.13-1.08,2.07-2.29,0-.09-.02-.19-.03-.28-.31-1.25-1.27-2.23-2.51-2.57-1.22-.32-2.48-.43-3.74-.31-9.55.36-19.11.05-28.65.33-2.69.08-5.62.61-6.34,3.61-.23.92-.38,4.04.61,4.58,1.94,1.05,1.96-2.21,2.65-3.09Z"/><path class="cls-51_snow-76-5d130 targetColor" d="M353,314.1c9.39-1.39,16.91-9.7,26.4-10.08,3.64-.15,7.21.91,10.78,1.67,8.78,1.84,17.84,1.82,26.61-.05,4.64-1,9.45-2.51,14.04-1.26,3.35.91,6.15,3.22,8.54,5.73,1.58,1.67,3.14,3.94,2.31,6.07-.6,1.55-2.26,2.38-3.81,2.93-5.02,1.75-10.4,1.92-15.69,2.07l-43,1.17c-8.28.23-16.68.45-24.72-1.54-6.23-1.54-13.2-4.68-17.11-9.95,4.72-.77,9.94,4.1,15.67,3.25Z" style="fill: rgb(168, 203, 211);"/><path class="cls-7_snow-76-5d130" d="M353,314.1c9.39-1.39,16.91-9.7,26.4-10.08,3.64-.15,7.21.91,10.78,1.67,8.78,1.84,17.84,1.82,26.61-.05,4.64-1,9.45-2.51,14.04-1.26,3.35.91,6.15,3.22,8.54,5.73,1.58,1.67,3.14,3.94,2.31,6.07-.6,1.55-2.26,2.38-3.81,2.93-5.02,1.75-10.4,1.92-15.69,2.07l-43,1.17c-8.28.23-16.68.45-24.72-1.54-6.23-1.54-13.2-4.68-17.11-9.95,4.72-.77,9.94,4.1,15.67,3.25Z"/><path class="cls-8_snow-76-5d130" d="M390.67,274.48c-.67.18-1.35.31-2.03.39-1.64.27-3.31-.22-4.54-1.33-1.05-1.07-1.33-2.69-2.11-4-1.34-2.29-4.02-3.52-5.4-5.81-.84-1.34-1.07-2.9-1.67-4.33-1.75-4.57-17.15-5.7-19.91-9.43-.31-.42-.55-.87-.74-1.36-.11-.95-.04-1.91.23-2.82.43-1.52,1.65-2.69,3.19-3.05,2.24-.42,4.18,1.38,6.03,2.82,2.58,2.06,5.51,3.63,8.66,4.64,1.57.5,3.24.89,4.54,1.91,2.51,1.96,2.88,5.5,3.68,8.59.55,2.08,1.44,5.09,3.05,6.63,1.25,1.23,2.82,1.1,4.28,1.86,1.99.96,3.1,3.12,2.74,5.3Z"/><path class="cls-51_snow-76-5d130 targetColor" d="M345.87,247.43c-2.36,2.23-4.11,5.02-6.27,7.45-2.09,2.34-4.54,4.32-7.28,5.86-1.27.61-2.46,1.36-3.56,2.24-1.12,1.14-1.99,2.49-2.58,3.97-.73,1.44-1.16,3.03-1.24,4.64-.06,1.64.74,3.2,2.1,4.12,1.44.86,3.31.4,4.18-1.05.24-.69.39-1.4.45-2.12.44-2.34,2.23-4.18,4.1-5.65s3.96-2.74,5.45-4.6c1.61-2.02,2.41-4.62,4.08-6.59,1.63-1.72,3.63-3.05,5.86-3.87,1.27-.46,2.48-1.09,3.59-1.87,2.12-1.67,2.63-5.4-.57-6.06-2.8-.61-6.41,1.73-8.31,3.53Z" style="fill: rgb(168, 203, 211);"/><path class="cls-6_snow-76-5d130" d="M345.87,247.43c-2.36,2.23-4.11,5.02-6.27,7.45-2.09,2.34-4.54,4.32-7.28,5.86-1.27.61-2.46,1.36-3.56,2.24-1.12,1.14-1.99,2.49-2.58,3.97-.73,1.44-1.16,3.03-1.24,4.64-.06,1.64.74,3.2,2.1,4.12,1.44.86,3.31.4,4.18-1.05.24-.69.39-1.4.45-2.12.44-2.34,2.23-4.18,4.1-5.65s3.96-2.74,5.45-4.6c1.61-2.02,2.41-4.62,4.08-6.59,1.63-1.72,3.63-3.05,5.86-3.87,1.27-.46,2.48-1.09,3.59-1.87,2.12-1.67,2.63-5.4-.57-6.06-2.8-.61-6.41,1.73-8.31,3.53Z"/><rect class="cls-4_snow-76-5d130" x="345.05" y="275.02" width="23.57" height="38.05"/></g><g id="snowman_snow-76-5d130"><path class="cls-11_snow-76-5d130" d="M163.76,354.41c-11.43-2.08-21.97-7.68-31.43-14.43-9.46-6.75-18.01-14.68-26.93-22.13-.91-.84-1.96-1.53-3.1-2.02-2.07-.74-4.34-.17-6.54-.16-6.39,0-12.26-5.65-12.48-12.04-.12-1.47.24-2.93,1.01-4.18.68-.89,1.54-1.63,2.51-2.18,6.51-4.09,13.96-6.45,21.64-6.83,2.42-.26,4.86.09,7.11,1,2.19,1.03,4,3.19,3.97,5.6,3.15-.61,5.91-2.4,8.76-3.88,9.89-5.14,21.49-6.63,32.51-5.02,11.03,1.61,21.48,6.29,30.6,12.71,4.42,3.1,8.68,6.8,10.87,11.71,3.97,8.98-.18,19.88-7.34,26.59-7.16,6.71-16.73,10.1-26.07,13.12"/><circle class="cls-50_snow-76-5d130" cx="185.84" cy="245.18" r="2.39"/><circle class="cls-50_snow-76-5d130" cx="196" cy="264.8" r="2.39"/><circle class="cls-50_snow-76-5d130" cx="163.46" cy="259.82" r="2.39"/><circle class="cls-50_snow-76-5d130" cx="176.29" cy="272.85" r="1.36"/><circle class="cls-50_snow-76-5d130" cx="156.09" cy="226.05" r="2.23"/><circle class="cls-50_snow-76-5d130" cx="172.45" cy="210.17" r="2.23"/><circle class="cls-50_snow-76-5d130" cx="189.85" cy="221.14" r="2.23"/><circle class="cls-50_snow-76-5d130" cx="177.47" cy="217.8" r="1.27"/><rect class="cls-51_snow-76-5d130 targetColor" x="146.75" y="263.97" width="2.88" height="18.44" style="fill: rgb(168, 203, 211);"/><rect class="cls-13_snow-76-5d130" x="147.24" y="263.97" width="2.88" height="18.44"/><circle class="cls-51_snow-76-5d130 targetColor" cx="174.48" cy="315.5" r="40.71" style="fill: rgb(168, 203, 211);"/><path class="cls-9_snow-76-5d130" d="M215.18,315.51c0,22.48-18.24,40.7-40.72,40.69-22.48,0-40.7-18.24-40.69-40.72,0-22.48,18.24-40.7,40.72-40.69,9.91,0,19.48,3.62,26.91,10.18,8.76,7.73,13.78,18.85,13.78,30.54Z"/><path class="cls-12_snow-76-5d130" d="M144.93,294.2c.28,2.8,1.67,5.37,3.86,7.14,1.78,1.2,3.84,1.92,5.98,2.1,9.04,1.36,18.15,1.19,27.23.95,5.86-.15,11.9-.39,17.21-4.33,2.11-1.44,3.42-3.8,3.53-6.35-.01-1.51-.37-2.99-1.04-4.34-3.49-7.53-10.16-8.84-16.06-9.12-8.36-.38-16.86,0-25.19,2.03-4.22,1.04-16.86.54-15.52,11.92Z"/><circle class="cls-51_snow-76-5d130 targetColor" cx="173.12" cy="275.32" r="29.86" style="fill: rgb(168, 203, 211);"/><path class="cls-3_snow-76-5d130" d="M203,275.34c.01,3.28-.52,6.53-1.59,9.63-4.14,12.11-15.53,20.24-28.32,20.23-3.37,0-6.71-.57-9.9-1.67-7.98-2.82-14.39-8.88-17.67-16.68-1.53-3.64-2.3-7.56-2.29-11.51,0-9.9,4.92-19.16,13.12-24.71,1.32-.91,2.72-1.7,4.18-2.38,9.3-4.32,20.17-3.58,28.78,1.98,8.53,5.5,13.68,14.96,13.68,25.11Z"/><path class="cls-10_snow-76-5d130" d="M154.45,253.1c.41,1.14,1.34,2.02,2.51,2.35,1.25.41,2.56.64,3.87.69,5.86.44,11.71.39,17.62.32,3.79-.05,7.7-.13,11.13-1.42,1.1-.42,2.26-1.11,2.29-2.09-.03-.54-.28-1.05-.68-1.42-2.25-2.51-6.57-2.91-10.39-2.99-5.45-.18-10.9.04-16.31.66-2.74.38-10.93.18-10.05,3.91Z"/><circle class="cls-51_snow-76-5d130 targetColor" cx="172.57" cy="230.25" r="26.05" style="fill: rgb(168, 203, 211);"/><path class="cls-40_snow-76-5d130" d="M198.61,230.25c-.01,14.41-11.71,26.09-26.12,26.08-3.54,0-7.04-.72-10.29-2.12-2.11-.93-4.1-2.14-5.9-3.58-11.25-8.96-13.11-25.35-4.15-36.6,8.96-11.25,25.35-13.11,36.6-4.15,6.21,4.94,9.82,12.44,9.82,20.37h.03Z"/><path class="cls-41_snow-76-5d130" d="M162.42,304.47c-7.62,8.82-7.6,22.42-2.56,32.93,1.28,2.72,2.87,5.3,3.63,8.17s.52,6.27-1.51,8.48c-.06.05-.11.1-.16.16-21.37-6.99-33.03-29.99-26.04-51.37,1.97-6.02,5.32-11.5,9.78-16-1.53-3.64-2.3-7.56-2.29-11.51,0-9.9,4.9-19.16,13.09-24.72-11.26-8.98-13.11-25.38-4.13-36.64.33-.42.68-.82,1.03-1.22.29-.07.59-.1.89-.08,3.35.33,2.99,4.62,2.92,7.28-.23,10.23-1.46,19.06,3.45,28.29.31.63.65,1.24,1.02,1.83.5.68.85,1.46,1.01,2.29.04.63-.06,1.25-.31,1.83-.13.33-.28.68-.44,1.01-3.1,7.05-3.52,14.8-2.35,22.45.95,5.78,2.59,11.42,4.88,16.81.74,1.72,1.51,3.57,1.13,5.4-.42,1.39-1.19,2.64-2.23,3.66-.26.3-.54.61-.8.93Z"/><path class="cls-38_snow-76-5d130" d="M187.86,210.25c.21.9-.52,1.67-1.24,2.28-4.61,3.65-10.8,4.54-16.67,4.66-4.23.08-8.46-.17-12.68-.42-1.39.04-2.77-.3-3.98-.98-.34-.18-.55-.53-.57-.91.06-.28.22-.52.45-.69,1.79-1.57,4.18-2.24,6.39-3.15,3.77-1.54,7.24-3.88,11.19-4.83,1.73-.37,3.49-.61,5.25-.7,3.35-.33,6.71-.47,10.08-.43.49,0,1.15.24,1.04.72-.19.84-1.76.7-1.33,2.07.32,1.04,1.81,1.25,2.07,2.38Z"/><path class="cls-51_snow-76-5d130 targetColor" d="M203.73,232.04c-.35.68-.99,1.17-1.74,1.32-5.69,1.84-12.04.48-17.73,2.33-.79.35-1.65.5-2.51.42-2.36-.5-1.98-3.45-.77-4.83,1.38-1.57,2.78-1.3,4.68-1.1,1.79.16,17.52,3.38,18.06,1.87Z" style="fill: rgb(168, 203, 211);"/><path class="cls-39_snow-76-5d130" d="M203.73,232.04c-.35.68-.99,1.17-1.74,1.32-5.69,1.84-12.04.48-17.73,2.33-.79.35-1.65.5-2.51.42-2.36-.5-1.98-3.45-.77-4.83,1.38-1.57,2.78-1.3,4.68-1.1,1.79.16,17.52,3.38,18.06,1.87Z"/><path class="cls-51_snow-76-5d130 targetColor" d="M181,231.27c1.38-1.57,2.78-1.3,4.68-1.1,1.78.17,17.57,3.35,18.05,1.87" style="fill: rgb(168, 203, 211);"/><path class="cls-51_snow-76-5d130 targetColor" d="M132.87,266.25c-5.08-2.87-9.83-6.4-15.32-8.36-5.25-1.91-11.33-2.51-15.25-6.51-.54.95.38,2.06,1.24,2.74,3.15,2.46,6.69,4.37,10.47,5.66,2.05.69,4.67,1.94,4.32,4.07-3.06,1.05-6.24,1.72-9.46,1.99-2.66.23-5.35.18-7.99.66-5.53,1-10.36,4.23-15.06,7.39l16.84-4.38c-.53,5.34-1.6,10.6-3.2,15.73,2.6-.52,3.84-3.53,4.18-6.16.34-2.63.31-5.54,2.02-7.58.84-.92,1.88-1.65,3.03-2.14,5.55-2.65,12.02-2.97,18.03-1.67,6.01,1.3,11.62,4.04,16.81,7.33,1.28.97,2.76,1.63,4.33,1.93,1.59.17,3.41-.72,3.71-2.28.77-4.13-4.14-3.76-6.52-4-4.32-.46-8.42-2.26-12.19-4.4Z" style="fill: rgb(168, 203, 211);"/><path class="cls-35_snow-76-5d130" d="M132.87,266.25c-5.08-2.87-9.83-6.4-15.32-8.36-5.25-1.91-11.33-2.51-15.25-6.51-.54.95.38,2.06,1.24,2.74,3.15,2.46,6.69,4.37,10.47,5.66,2.05.69,4.67,1.94,4.32,4.07-3.06,1.05-6.24,1.72-9.46,1.99-2.66.23-5.35.18-7.99.66-5.53,1-10.36,4.23-15.06,7.39l16.84-4.38c-.53,5.34-1.6,10.6-3.2,15.73,2.6-.52,3.84-3.53,4.18-6.16.34-2.63.31-5.54,2.02-7.58.84-.92,1.88-1.65,3.03-2.14,5.55-2.65,12.02-2.97,18.03-1.67,6.01,1.3,11.62,4.04,16.81,7.33,1.28.97,2.76,1.63,4.33,1.93,1.59.17,3.41-.72,3.71-2.28.77-4.13-4.14-3.76-6.52-4-4.32-.46-8.42-2.26-12.19-4.4Z"/><path class="cls-51_snow-76-5d130 targetColor" d="M202.52,256.26c.79-.69,1.68-1.25,2.64-1.67,1.36-.5,2.86-.42,4.24-.84,2.79-.84,4.53-3.52,6.52-5.66,5.97-6.47,15.06-8.77,23.68-10.76-6.34,3.04-13.92,3.71-19.24,8.26-2.7,2.31-4.58,5.41-6.83,8.16-2.25,2.74-5.14,5.3-8.67,5.74,3.73,2.93,7.4,5.94,11.02,9.01-2.24.42-4.43-.9-6.17-2.37-1.75-1.46-3.4-3.2-5.57-3.86-2.17-.66-5.09.31-5.48,2.56.2-1.13-2.67-2.27-1.88-4.12.63-1.53,4.41-3.45,5.74-4.44Z" style="fill: rgb(168, 203, 211);"/><path class="cls-33_snow-76-5d130" d="M202.52,256.26c.79-.69,1.68-1.25,2.64-1.67,1.36-.5,2.86-.42,4.24-.84,2.79-.84,4.53-3.52,6.52-5.66,5.97-6.47,15.06-8.77,23.68-10.76-6.34,3.04-13.92,3.71-19.24,8.26-2.7,2.31-4.58,5.41-6.83,8.16-2.25,2.74-5.14,5.3-8.67,5.74,3.73,2.93,7.4,5.94,11.02,9.01-2.24.42-4.43-.9-6.17-2.37-1.75-1.46-3.4-3.2-5.57-3.86-2.17-.66-5.09.31-5.48,2.56.2-1.13-2.67-2.27-1.88-4.12.63-1.53,4.41-3.45,5.74-4.44Z"/><path class="cls-51_snow-76-5d130 targetColor" d="M190.47,203.73c-.08.78-.44,1.5-1.02,2.03-2.51,2.71-6.27,3.97-9.81,5.09-8.17,2.63-16.6,5.28-25.16,4.68-1.45-.03-2.88-.38-4.18-1.02-1.98-1.1-2.51-2.71-1.82-4.18.33-.72.85-1.35,1.49-1.82.59-.44,1.13-.94,1.61-1.49.91-1.12,1-2.19.68-4.23-.03-.33-.08-.66-.16-.99-.42-2.46-.26-5.19,1.44-7.03.99-.96,2.16-1.7,3.45-2.19,4.12-1.9,8.22-3.81,12.35-5.69.42-.23.88-.34,1.36-.33.52.08.99.32,1.36.7,2.12,1.78,3.91,3.93,5.27,6.34.29.52.58,1.05.89,1.56.6,1.22,1.55,2.24,2.74,2.9.78.27,1.6.43,2.43.47.44.05.89.08,1.33.15,1.78.32,3.4,1.26,4.57,2.64.22.27.42.55.6.84.35.45.57,1,.61,1.57Z" style="fill: rgb(168, 203, 211);"/><path class="cls-34_snow-76-5d130" d="M190.47,203.73c-.08.78-.44,1.5-1.02,2.03-2.51,2.71-6.27,3.97-9.81,5.09-8.17,2.63-16.6,5.28-25.16,4.68-1.45-.03-2.88-.38-4.18-1.02-1.98-1.1-2.51-2.71-1.82-4.18.33-.72.85-1.35,1.49-1.82.59-.44,1.13-.94,1.61-1.49.91-1.12,1-2.19.68-4.23-.03-.33-.08-.66-.16-.99-.42-2.46-.26-5.19,1.44-7.03.99-.96,2.16-1.7,3.45-2.19,4.12-1.9,8.22-3.81,12.35-5.69.42-.23.88-.34,1.36-.33.52.08.99.32,1.36.7,2.12,1.78,3.91,3.93,5.27,6.34.29.52.58,1.05.89,1.56.6,1.22,1.55,2.24,2.74,2.9.78.27,1.6.43,2.43.47.44.05.89.08,1.33.15,1.78.32,3.4,1.26,4.57,2.64.22.27.42.55.6.84.35.45.57,1,.61,1.57Z"/><path class="cls-37_snow-76-5d130" d="M183.4,198.54c-10.41,12.2-28.24,8.98-31.79,8.48.91-1.12,1-2.19.68-4.23.32,0,.65,0,.97.05,4.61.16,9.2-.6,13.52-2.22,3.97-1.47,7.8-3.29,11.45-5.43.6,1.22,1.55,2.24,2.74,2.9.78.26,1.6.41,2.43.44Z"/><path class="cls-36_snow-76-5d130" d="M190.47,203.73c-.08.78-.44,1.5-1.02,2.03-2.51,2.71-6.27,3.97-9.81,5.09-8.17,2.63-16.6,5.28-25.16,4.68-1.45-.03-2.88-.38-4.18-1.02-1.98-1.1-2.51-2.71-1.82-4.18,1.22-.1,2.45-.03,3.66.18,8.64,1.16,17.41.83,25.93-.97,2.83-.46,5.54-1.48,7.98-2.99,1.11-.73,2.03-1.71,2.67-2.88.24-.77.43-1.55.57-2.34.22.27.42.55.6.84.35.45.55,1,.59,1.57Z"/></g><g id="snow_snow-76-5d130"><circle class="cls-50_snow-76-5d130" cx="327.41" cy="144.87" r="3.99"/><circle class="cls-50_snow-76-5d130" cx="361.2" cy="159.34" r="3.99"/><circle class="cls-50_snow-76-5d130" cx="314.13" cy="187.33" r="3.99"/><circle class="cls-50_snow-76-5d130" cx="344.39" cy="190.51" r="2.28"/><circle class="cls-50_snow-76-5d130" cx="195.02" cy="143.58" r="3.71"/><circle class="cls-50_snow-76-5d130" cx="228.97" cy="139.28" r="3.71"/><circle class="cls-50_snow-76-5d130" cx="209.54" cy="148.08" r="2.12"/><circle class="cls-50_snow-76-5d130" cx="239.27" cy="161.44" r="3.71"/><circle class="cls-50_snow-76-5d130" cx="268.99" cy="151.74" r="3.71"/><circle class="cls-50_snow-76-5d130" cx="252.44" cy="178.77" r="2.12"/><circle class="cls-50_snow-76-5d130" cx="273.2" cy="114.06" r="3.71"/><circle class="cls-50_snow-76-5d130" cx="307.16" cy="109.76" r="3.71"/><circle class="cls-50_snow-76-5d130" cx="287.72" cy="118.56" r="2.12"/><circle class="cls-50_snow-76-5d130" cx="381.54" cy="130.69" r="3.71"/><circle class="cls-50_snow-76-5d130" cx="415.49" cy="126.38" r="3.71"/><circle class="cls-50_snow-76-5d130" cx="396.05" cy="135.18" r="2.12"/><circle class="cls-50_snow-76-5d130" cx="313.25" cy="275.66" r="2.89"/><circle class="cls-50_snow-76-5d130" cx="427.4" cy="185.02" r="2.89"/><circle class="cls-50_snow-76-5d130" cx="447.31" cy="167.26" r="2.89" transform="translate(121.61 516.51) rotate(-67.5)"/><circle class="cls-50_snow-76-5d130" cx="438.71" cy="181.49" r="1.65"/><circle class="cls-50_snow-76-5d130" cx="191.89" cy="94.53" r="2.03"/><circle class="cls-50_snow-76-5d130" cx="209.13" cy="101.92" r="2.03"/><circle class="cls-50_snow-76-5d130" cx="185.12" cy="116.2" r="2.03"/><circle class="cls-50_snow-76-5d130" cx="200.55" cy="117.82" r="1.16"/><circle class="cls-50_snow-76-5d130" cx="124.34" cy="93.88" r="1.89"/><circle class="cls-50_snow-76-5d130" cx="141.66" cy="91.68" r="1.89"/><circle class="cls-50_snow-76-5d130" cx="131.75" cy="96.16" r="1.08"/><circle class="cls-50_snow-76-5d130" cx="146.92" cy="102.98" r="1.89"/><circle class="cls-50_snow-76-5d130" cx="162.08" cy="98.04" r="1.89"/><circle class="cls-50_snow-76-5d130" cx="153.64" cy="111.82" r="1.08"/><circle class="cls-50_snow-76-5d130" cx="164.23" cy="78.81" r="1.89"/><circle class="cls-50_snow-76-5d130" cx="181.56" cy="76.61" r="1.89"/><circle class="cls-50_snow-76-5d130" cx="171.64" cy="81.11" r="1.08"/><circle class="cls-50_snow-76-5d130" cx="219.51" cy="87.3" r="1.89"/><circle class="cls-50_snow-76-5d130" cx="236.83" cy="85.1" r="1.89"/><circle class="cls-50_snow-76-5d130" cx="226.92" cy="89.58" r="1.08"/><circle class="cls-50_snow-76-5d130" cx="150.81" cy="160.41" r="1.77"/><circle class="cls-50_snow-76-5d130" cx="158.28" cy="174.86" r="1.77"/><circle class="cls-50_snow-76-5d130" cx="134.33" cy="171.19" r="1.77"/><circle class="cls-50_snow-76-5d130" cx="143.77" cy="180.78" r="1"/><circle class="cls-50_snow-76-5d130" cx="105.91" cy="122.73" r="1.64"/><circle class="cls-50_snow-76-5d130" cx="118.73" cy="130.8" r="1.64"/><circle class="cls-50_snow-76-5d130" cx="109.61" cy="128.35" r=".94"/><circle class="cls-50_snow-76-5d130" cx="116.02" cy="141.28" r="1.64"/><circle class="cls-50_snow-76-5d130" cx="128.9" cy="146.32" r="1.64"/><circle class="cls-50_snow-76-5d130" cx="115.64" cy="150.9" r=".94"/><circle class="cls-50_snow-76-5d130" cx="140.94" cy="134.63" r="1.64"/><circle class="cls-50_snow-76-5d130" cx="153.76" cy="142.71" r="1.64"/><circle class="cls-50_snow-76-5d130" cx="144.64" cy="140.25" r=".94"/><circle class="cls-50_snow-76-5d130" cx="173.3" cy="170.78" r="1.64"/><circle class="cls-50_snow-76-5d130" cx="186.11" cy="178.86" r="1.64"/><circle class="cls-50_snow-76-5d130" cx="177" cy="176.4" r=".94"/><circle class="cls-50_snow-76-5d130" cx="83.7" cy="185.12" r="1.64"/><circle class="cls-50_snow-76-5d130" cx="80.01" cy="199.81" r="1.64"/><circle class="cls-50_snow-76-5d130" cx="79.51" cy="190.38" r=".94"/><circle class="cls-50_snow-76-5d130" cx="69.21" cy="200.48" r="1.64"/><circle class="cls-50_snow-76-5d130" cx="68.42" cy="214.3" r="1.64"/><circle class="cls-50_snow-76-5d130" cx="83.28" cy="222.11" r="1.64"/><circle class="cls-50_snow-76-5d130" cx="79.59" cy="236.8" r="1.64"/><circle class="cls-50_snow-76-5d130" cx="79.08" cy="227.38" r=".94"/><circle class="cls-50_snow-76-5d130" cx="258.49" cy="237.49" r="1.77"/><circle class="cls-50_snow-76-5d130" cx="216.39" cy="259.26" r="2.23"/><circle class="cls-50_snow-76-5d130" cx="233.79" cy="270.23" r="2.23"/><circle class="cls-50_snow-76-5d130" cx="221.41" cy="266.89" r="1.27"/><circle class="cls-50_snow-76-5d130" cx="239.63" cy="231.84" r="1.77"/><circle class="cls-50_snow-76-5d130" cx="238.38" cy="245.25" r="1"/><circle class="cls-50_snow-76-5d130" cx="252.26" cy="252.52" r="1.77"/><circle class="cls-50_snow-76-5d130" cx="252.34" cy="210.98" r="1.64"/><circle class="cls-50_snow-76-5d130" cx="267.17" cy="214.06" r="1.64"/><circle class="cls-50_snow-76-5d130" cx="257.77" cy="214.95" r=".94"/><circle class="cls-50_snow-76-5d130" cx="286.67" cy="240.84" r="1.64"/><circle class="cls-50_snow-76-5d130" cx="288.76" cy="255.84" r="1.64"/><circle class="cls-50_snow-76-5d130" cx="284.76" cy="247.29" r=".94"/><circle class="cls-50_snow-76-5d130" cx="279.89" cy="288.88" r="1.64"/><circle class="cls-50_snow-76-5d130" cx="281.98" cy="303.88" r="1.64"/><circle class="cls-50_snow-76-5d130" cx="277.98" cy="295.33" r=".94"/><circle class="cls-50_snow-76-5d130" cx="124.87" cy="194.01" r="2.23"/><circle class="cls-50_snow-76-5d130" cx="61.84" cy="239.5" r="1.77"/><circle class="cls-50_snow-76-5d130" cx="50.43" cy="251.1" r="1.77"/><circle class="cls-50_snow-76-5d130" cx="46.47" cy="227.18" r="1.77"/><circle class="cls-50_snow-76-5d130" cx="40.29" cy="239.15" r="1"/><circle class="cls-50_snow-76-5d130" cx="59.95" cy="203.13" r=".94"/><circle class="cls-50_snow-76-5d130" cx="58.97" cy="264.1" r="1.64"/><circle class="cls-50_snow-76-5d130" cx="55.28" cy="278.8" r="1.64"/><circle class="cls-50_snow-76-5d130" cx="54.78" cy="269.37" r=".94"/><circle class="cls-50_snow-76-5d130" cx="142.28" cy="204.98" r="2.23"/><circle class="cls-50_snow-76-5d130" cx="129.89" cy="201.64" r="1.27"/><circle class="cls-50_snow-76-5d130" cx="138.59" cy="219.2" r="2.23"/><circle class="cls-50_snow-76-5d130" cx="223.2" cy="191.58" r="1.64"/><circle class="cls-50_snow-76-5d130" cx="227.66" cy="204.69" r="1.64"/><circle class="cls-50_snow-76-5d130" cx="215.6" cy="197.51" r=".94"/><circle class="cls-50_snow-76-5d130" cx="398.89" cy="218.03" r="3.11"/><circle class="cls-50_snow-76-5d130" cx="426.98" cy="212.4" r="3.11"/><circle class="cls-50_snow-76-5d130" cx="350.45" cy="222.17" r="2.89"/><circle class="cls-50_snow-76-5d130" cx="370.36" cy="204.41" r="2.89"/><circle class="cls-50_snow-76-5d130" cx="361.76" cy="218.64" r="1.65"/></g></svg>