<svg version="1.1" id="Layer_1" xmlns="http://www.w3.org/2000/svg" xmlns:xlink="http://www.w3.org/1999/xlink" x="0px" y="0px" viewBox="0 0 500 500" style="width: 148px;" xml:space="preserve" data-imageid="pizza-17" imageName="Pizza" class="illustrations_image">
<style type="text/css">
	.st0_pizza-17{fill:#68E1FD;}
	.st1_pizza-17{fill:#093F68;}
	.st2_pizza-17{fill:#F56132;}
	.st3_pizza-17{fill:#FFFFFF;}
	.st4_pizza-17{fill:#FFBC0E;}
	.st5_pizza-17{fill:#70CC40;}
	.st6_pizza-17{fill:none;}
</style>
<g id="pizza-2_pizza-17">
	<path class="st0_pizza-17 targetColor" d="M417,141.4c22.5,33.7,32.4,74.2,28,114.4l-23.4-2.6l-147.5-16.3l123.3-82.5L417,141.4z" style="fill: rgb(204, 245, 255);"/>
	<path class="st1_pizza-17" d="M445,257.7h-0.2l-170.9-18.9c-1-0.1-1.8-1-1.7-2c0.1-0.6,0.4-1.1,0.8-1.4L416,139.8c0.9-0.6,2-0.3,2.6,0.5&#10;&#9;&#9;c0,0,0,0,0,0c22.7,34.1,32.7,75,28.3,115.7C446.8,257,446,257.7,445,257.7z M279.5,235.6l163.9,18.1c3.8-38.6-5.7-77.3-26.8-109.8&#10;&#9;&#9;L279.5,235.6z"/>
	<path class="st0_pizza-17 targetColor" d="M417,141.4c22.5,33.7,32.4,74.2,28,114.4l-23.4-2.6l-147.5-16.3l123.3-82.5L417,141.4z" style="fill: rgb(204, 245, 255);"/>
	<path class="st1_pizza-17" d="M445,257.7h-0.2l-170.9-18.9c-1-0.1-1.8-1-1.7-2c0.1-0.6,0.4-1.1,0.8-1.4L416,139.8c0.9-0.6,2-0.3,2.6,0.5&#10;&#9;&#9;c0,0,0,0,0,0c22.7,34.1,32.7,75,28.3,115.7C446.8,257,446,257.7,445,257.7z M279.5,235.6l163.9,18.1c3.8-38.6-5.7-77.3-26.8-109.8&#10;&#9;&#9;L279.5,235.6z"/>
	<path class="st0_pizza-17 targetColor" d="M397.5,154.4c19.4,29.1,27.9,64,24.1,98.8l-147.5-16.3L397.5,154.4z" style="fill: rgb(204, 245, 255);"/>
	<path class="st1_pizza-17" d="M421.6,255.1h-0.2l-147.5-16.3c-1-0.1-1.8-1-1.7-2c0.1-0.6,0.4-1.1,0.8-1.4l123.4-82.5&#10;&#9;&#9;c0.4-0.3,0.9-0.4,1.4-0.3c0.5,0.1,0.9,0.4,1.2,0.8c19.6,29.4,28.3,64.8,24.4,100c0,0.5-0.3,1-0.7,1.3&#10;&#9;&#9;C422.5,255,422.1,255.1,421.6,255.1z M279.5,235.6L420,251.2c3.2-33.1-4.9-66.2-23-94.1L279.5,235.6z"/>
	<circle class="st2_pizza-17" cx="385.4" cy="198.6" r="17.5"/>
	<path class="st1_pizza-17" d="M385.4,218c-10.7,0-19.4-8.7-19.4-19.4s8.7-19.4,19.4-19.4s19.4,8.7,19.4,19.4&#10;&#9;&#9;C404.7,209.3,396.1,218,385.4,218z M385.4,183c-8.6,0-15.6,7-15.6,15.6s7,15.6,15.6,15.6c8.6,0,15.6-7,15.6-15.6&#10;&#9;&#9;C401,190,394,183,385.4,183z"/>
	<path class="st3_pizza-17" d="M329.5,209.3c-5.7,4.6-4.5,15.6-1.8,19.1c2.2,2.8,4.9-0.4,8.9-4.1l7.3,10c3.1,4.3,10.4-1.6,6.9-5.6l-8.2-9.2&#10;&#9;&#9;c4.5-3.1,8.2-5,5.9-7.8C345.7,208.1,335.2,204.6,329.5,209.3z"/>
	<path class="st1_pizza-17" d="M346.7,237.5c-1.7,0-3.4-0.8-4.4-2.2l-6-8.2c-2.6,2.5-4.6,4.4-7,4.2c-1.2-0.1-2.4-0.7-3.1-1.8&#10;&#9;&#9;c-1.7-2.1-2.8-6.2-2.7-10.3c0.1-5,1.8-9,4.8-11.4c6.7-5.4,18.4-1.5,21.6,2.5c0.8,0.9,1.2,2.2,1.1,3.4c-0.4,2.3-2.6,3.9-5.6,5.9&#10;&#9;&#9;l6.8,7.6c1.4,1.5,1.8,3.6,1,5.5c-1,2.4-3.1,4.2-5.7,4.6C347.3,237.5,347,237.5,346.7,237.5z M336.6,222.3h0.2&#10;&#9;&#9;c0.5,0.1,1,0.3,1.4,0.8l7.3,10c0.3,0.5,1,0.8,1.6,0.7c1.2-0.2,2.2-1.1,2.7-2.2c0.3-0.6,0.1-1.3-0.3-1.7l-8.2-9.2&#10;&#9;&#9;c-0.4-0.4-0.5-0.9-0.5-1.5c0.1-0.5,0.4-1,0.8-1.3l1.5-1c1.7-1.2,4.1-2.8,4.2-3.5c0-0.1-0.1-0.2-0.3-0.5c-2.1-2.6-11.4-6-16.4-2&#10;&#9;&#9;c-2.9,2.3-3.4,6.4-3.4,8.6c-0.1,3.5,0.9,6.6,1.9,7.8c0.2,0.3,0.4,0.4,0.4,0.4c0.8,0.1,2.8-1.9,4.3-3.4l1.4-1.3&#10;&#9;&#9;C335.6,222.5,336.1,222.3,336.6,222.3z"/>
	<path class="st1_pizza-17" d="M398.2,237.5c-0.2,0-0.4,0-0.6-0.1l-24.1-8.6c-1-0.4-1.5-1.4-1.1-2.4c0.4-1,1.4-1.5,2.4-1.1l0,0l24.1,8.6&#10;&#9;&#9;c1,0.3,1.5,1.4,1.1,2.4C399.7,237,399,237.5,398.2,237.5L398.2,237.5z"/>
</g>
<g id="pizza-1_pizza-17">
	<path class="st0_pizza-17 targetColor" d="M186.6,83c70.2-17.1,143.5,11.4,183.7,71.4l-19.5,13.1L227.3,250l147.5,16.3l23.4,2.6&#10;&#9;&#9;c-10.4,94.4-95.4,162.4-189.8,152c-94.4-10.4-162.4-95.4-152-189.8C64.4,159.3,116.4,100.1,186.6,83z" style="fill: rgb(204, 245, 255);"/>
	<path class="st1_pizza-17" d="M227.4,423.8c-78.2,0-149.4-53.3-168.8-132.5C35.8,198,92.9,104,186.1,81.2l0,0c70.9-17.2,145,11.6,185.7,72.2&#10;&#9;&#9;c0.3,0.4,0.4,0.9,0.3,1.4c-0.1,0.5-0.4,0.9-0.8,1.2l-138.6,92.7L398.4,267c0.5,0.1,0.9,0.3,1.3,0.7c0.3,0.4,0.5,0.9,0.4,1.4&#10;&#9;&#9;C390.3,357.1,315.9,423.7,227.4,423.8z M227.1,80c-93.9,0.1-169.8,76.3-169.7,170.2c0,13.5,1.7,27,4.9,40.1&#10;&#9;&#9;c22.2,91,114.4,147,205.5,124.8c68.6-16.9,119.7-74.4,128.5-144.6l-169-18.7c-1-0.1-1.8-1.1-1.7-2.1c0.1-0.5,0.4-1,0.8-1.3&#10;&#9;&#9;l141.3-94.5C335.8,107.7,283.2,80,227.1,80z M186.6,83L186.6,83z"/>
	<path class="st0_pizza-17 targetColor" d="M191.4,106c60.6-14.8,123.9,9.8,158.6,61.7l-123.3,82.5l147.5,16.3c-9,81.5-82.3,140.2-163.8,131.2&#10;&#9;&#9;c-81.5-9-140.2-82.3-131.2-163.8C86.1,171.9,130.9,120.8,191.4,106z" style="fill: rgb(204, 245, 255);"/>
	<path class="st1_pizza-17" d="M226.4,400.5c-83-0.1-150.2-67.6-150-150.5c0.1-69.2,47.4-129.3,114.6-145.7l0,0&#10;&#9;&#9;c61.3-14.8,125.4,10.1,160.6,62.4c0.3,0.4,0.4,0.9,0.3,1.4c-0.1,0.5-0.4,0.9-0.8,1.2L232,248.8l142.4,15.7c0.5,0.1,1,0.3,1.3,0.7&#10;&#9;&#9;c0.3,0.4,0.5,0.9,0.4,1.4C367.5,342.9,303.1,400.5,226.4,400.5z M191.9,107.8C113.3,127,65.2,206.3,84.4,284.9&#10;&#9;&#9;s98.5,126.7,177.1,107.5l0,0c59.1-14.6,103-64,110.7-124.3L226.4,252c-1-0.1-1.8-1.1-1.7-2.1c0.1-0.5,0.4-1,0.8-1.3l121.8-81.4&#10;&#9;&#9;C312.8,117.1,251,93.5,191.9,107.8z M191.4,106L191.4,106z"/>
	<path class="st1_pizza-17" d="M226.9,252c-0.1,0-0.2,0-0.3,0L56.8,225.5c-1-0.2-1.7-1.1-1.6-2.1c0.2-1,1.1-1.7,2.2-1.6l169.8,26.4&#10;&#9;&#9;c1,0.1,1.8,1.1,1.7,2.1c-0.1,0.8-0.7,1.5-1.5,1.6l0,0C227.1,252,227,252,226.9,252z"/>
	<path class="st1_pizza-17" d="M328.3,390.8c-0.6,0-1.2-0.3-1.5-0.8L124,112.4c-0.7-0.8-0.7-1.9,0.1-2.7s1.9-0.7,2.7,0.1&#10;&#9;&#9;c0.1,0.1,0.2,0.2,0.3,0.4l202.8,277.6c0.6,0.8,0.4,2-0.4,2.6C329.1,390.6,328.7,390.8,328.3,390.8L328.3,390.8z"/>
	<path class="st1_pizza-17" d="M200.4,421.8c-0.1,0-0.2,0-0.3,0c-1-0.2-1.7-1.1-1.6-2.1c0,0,0,0,0,0L251.5,80c0.2-1,1.1-1.7,2.1-1.6&#10;&#9;&#9;c1,0.2,1.7,1.1,1.6,2.2l-52.9,339.6C202.1,421.1,201.4,421.8,200.4,421.8z"/>
	<path class="st1_pizza-17" d="M88.1,353.4c-1,0-1.9-0.9-1.9-1.9c0-0.6,0.3-1.1,0.8-1.5l138.8-101.4c0.9-0.5,2.1-0.2,2.6,0.7&#10;&#9;&#9;c0.4,0.8,0.3,1.7-0.3,2.3L89.2,353C88.9,353.2,88.5,353.4,88.1,353.4z"/>
	<circle class="st2_pizza-17" cx="133.1" cy="176.1" r="17.5"/>
	<path class="st1_pizza-17" d="M133.1,195.4c-10.7,0-19.4-8.7-19.4-19.4c0-10.7,8.7-19.4,19.4-19.4c10.7,0,19.4,8.7,19.4,19.4c0,0,0,0,0,0&#10;&#9;&#9;C152.4,186.7,143.8,195.4,133.1,195.4z M133.1,160.5c-8.6,0-15.6,7-15.6,15.6s7,15.6,15.6,15.6s15.6-7,15.6-15.6l0,0&#10;&#9;&#9;C148.6,167.4,141.7,160.5,133.1,160.5z"/>
	<circle class="st2_pizza-17" cx="282.8" cy="154.4" r="17.5"/>
	<path class="st1_pizza-17" d="M282.8,173.8c-10.7,0-19.4-8.7-19.4-19.4s8.7-19.4,19.4-19.4s19.4,8.7,19.4,19.4&#10;&#9;&#9;C302.1,165.1,293.5,173.8,282.8,173.8z M282.8,138.9c-8.6,0-15.6,7-15.6,15.6c0,8.6,7,15.6,15.6,15.6c8.6,0,15.6-7,15.6-15.6&#10;&#9;&#9;c0,0,0,0,0,0C298.4,145.8,291.4,138.9,282.8,138.9z"/>
	<circle class="st2_pizza-17" cx="244.8" cy="334.1" r="17.5"/>
	<path class="st1_pizza-17" d="M244.8,353.4c-10.7,0-19.4-8.7-19.4-19.4s8.7-19.4,19.4-19.4s19.4,8.7,19.4,19.4l0,0&#10;&#9;&#9;C264.1,344.8,255.5,353.4,244.8,353.4z M244.8,318.5c-8.6,0-15.6,7-15.6,15.6s7,15.6,15.6,15.6c8.6,0,15.6-7,15.6-15.6c0,0,0,0,0,0&#10;&#9;&#9;C260.4,325.5,253.4,318.5,244.8,318.5L244.8,318.5z"/>
	<circle class="st4_pizza-17" cx="178.6" cy="351.5" r="17.5"/>
	<path class="st1_pizza-17" d="M178.6,370.8c-10.7,0-19.4-8.7-19.3-19.4s8.7-19.4,19.4-19.3c10.7,0,19.3,8.7,19.3,19.4&#10;&#9;&#9;C198,362.2,189.3,370.8,178.6,370.8z M178.6,335.9c-8.6,0-15.6,7-15.6,15.6s7,15.6,15.6,15.6c8.6,0,15.6-7,15.6-15.6c0,0,0,0,0,0&#10;&#9;&#9;C194.2,342.9,187.2,335.9,178.6,335.9z"/>
	<circle class="st4_pizza-17" cx="169.4" cy="211" r="14.9"/>
	<path class="st1_pizza-17" d="M169.4,227.8c-9.3,0-16.8-7.5-16.8-16.8s7.5-16.8,16.8-16.8s16.8,7.5,16.8,16.8c0,0,0,0,0,0&#10;&#9;&#9;C186.2,220.3,178.7,227.7,169.4,227.8z M169.4,197.9c-7.2,0-13,5.8-13,13s5.8,13,13,13s13-5.8,13-13l0,0&#10;&#9;&#9;C182.4,203.8,176.6,198,169.4,197.9z"/>
	<path class="st3_pizza-17" d="M209,132.9c-9.9,0-17.9,12.4-17.9,18.3c0,4.8,5.3,3.7,12.7,3.1l-0.8,16.5c-0.3,7.1,12.2,7.1,11.9,0l-0.8-16.5&#10;&#9;&#9;c7.3,0.6,12.7,1.6,12.7-3.1C226.9,145.3,218.9,132.9,209,132.9z"/>
	<path class="st1_pizza-17" d="M209,177.9c-1.6,0-3.2-0.4-4.6-1.2c-2.1-1.2-3.4-3.6-3.2-6l0.7-14.4h-0.3c-4.8,0.4-8.6,0.7-10.7-1.2&#10;&#9;&#9;c-1.1-1-1.6-2.5-1.6-4c0-6.7,8.5-20.2,19.7-20.2s19.7,13.4,19.7,20.2c0.1,1.5-0.5,3-1.6,4c-2.2,2-5.9,1.7-10.7,1.2h-0.3l0.7,14.4&#10;&#9;&#9;c0.1,2.5-1.1,4.8-3.2,6C212.2,177.5,210.6,178,209,177.9z M203.8,152.4c1,0,1.9,0.8,1.9,1.9c0,0,0,0.1,0,0.1l-0.7,16.5&#10;&#9;&#9;c-0.1,1.1,0.4,2.1,1.4,2.6c1.7,0.9,3.6,0.9,5.3,0c1-0.5,1.5-1.6,1.4-2.6l-0.8-16.5c-0.1-1,0.7-1.9,1.8-2c0.1,0,0.2,0,0.2,0l2.5,0.2&#10;&#9;&#9;c3.4,0.3,6.9,0.6,7.9-0.3c0.1-0.1,0.3-0.3,0.3-1.2c0-4.6-7.1-16.4-16-16.4s-16,11.8-16,16.4c0,0.9,0.2,1.1,0.3,1.2&#10;&#9;&#9;c1,0.9,4.4,0.6,7.8,0.3l2.5-0.2L203.8,152.4z"/>
	<path class="st3_pizza-17" d="M343.2,314.6c1.1-9.8-10.3-19.2-16.1-19.9c-4.8-0.5-4.3,4.9-4.6,12.2l-16.3-2.7c-7-1.1-8.4,11.3-1.4,11.8&#10;&#9;&#9;l16.5,1.2c-1.4,7.2-3.1,12.4,1.6,13C328.8,330.9,342.1,324.4,343.2,314.6z"/>
	<path class="st1_pizza-17" d="M323.9,332.1c-0.4,0-0.7,0-1.1-0.1c-1.5-0.1-2.9-0.8-3.8-2c-1.7-2.4-1-6.1,0-10.8l0.1-0.3l-14.3-1&#10;&#9;&#9;c-2.5-0.1-4.6-1.7-5.6-3.9c-1.3-3-0.9-6.5,1.1-9.1c1.5-2,4-3,6.4-2.5l14.2,2.3c0-0.1,0-0.2,0-0.3c0.1-4.8,0.3-8.6,2.5-10.5&#10;&#9;&#9;c1.2-0.9,2.7-1.3,4.1-1.1c3.5,0.4,8.1,3.2,11.8,7.1c4.4,4.7,6.5,10,5.9,14.9C343.9,325.4,330.9,332.1,323.9,332.1z M305.4,306.1&#10;&#9;&#9;c-0.9,0-1.7,0.4-2.2,1.1c-1.1,1.5-1.3,3.5-0.6,5.2c0.4,1,1.4,1.7,2.5,1.7l16.5,1.2c0.5,0,1,0.3,1.4,0.7c0.3,0.4,0.4,1,0.4,1.5&#10;&#9;&#9;c-0.2,0.8-0.3,1.6-0.5,2.4c-0.7,3.3-1.4,6.8-0.6,7.8c0.1,0.1,0.3,0.4,1.1,0.5c4.6,0.5,17.1-5.1,18.1-14c0.6-5.1-2.8-9.6-4.9-11.8&#10;&#9;&#9;c-3.3-3.6-7.3-5.7-9.5-5.9c-0.9-0.1-1.1,0.1-1.2,0.2c-1,0.8-1.1,4.4-1.2,7.8c0,0.8,0,1.6-0.1,2.5c0,0.5-0.3,1-0.7,1.4&#10;&#9;&#9;c-0.4,0.3-1,0.5-1.5,0.4l-16.2-2.7C305.8,306.1,305.6,306.1,305.4,306.1L305.4,306.1z"/>
	<path class="st3_pizza-17" d="M99,288.7c-1.2-9.8,10.3-19.2,16.1-19.9c4.8-0.6,4.3,4.9,4.6,12.2l16.3-2.7c7-1.1,8.4,11.3,1.4,11.8l-16.5,1.2&#10;&#9;&#9;c1.4,7.2,3.1,12.4-1.6,13C113.4,305,100.2,298.5,99,288.7z"/>
	<path class="st1_pizza-17" d="M118.4,306.2c-7,0-20-6.8-21.2-17.3l0,0c-0.6-4.9,1.5-10.2,5.9-14.9c3.7-3.9,8.3-6.7,11.8-7.1&#10;&#9;&#9;c1.5-0.3,3,0.1,4.1,1.1c2.2,1.9,2.3,5.7,2.5,10.5c0,0.1,0,0.2,0,0.3l14.2-2.3c2.4-0.4,4.9,0.5,6.4,2.5c1.9,2.6,2.3,6.1,1.1,9.1&#10;&#9;&#9;c-1,2.3-3.1,3.8-5.6,3.9l-14.3,1c0,0.1,0,0.2,0.1,0.3c1,4.7,1.7,8.4,0,10.8c-0.9,1.2-2.3,1.9-3.8,2&#10;&#9;&#9;C119.1,306.2,118.8,306.2,118.4,306.2z M100.9,288.5c1,8.8,13.6,14.5,18.2,14c0.9-0.1,1.1-0.4,1.1-0.5c0.8-1,0-4.5-0.6-7.8&#10;&#9;&#9;c-0.2-0.8-0.3-1.6-0.5-2.4c-0.2-1,0.4-2,1.5-2.2c0.1,0,0.2,0,0.3,0l16.5-1.2c1.1,0,2.1-0.7,2.5-1.7c0.7-1.7,0.5-3.7-0.6-5.3&#10;&#9;&#9;c-0.6-0.9-1.7-1.3-2.8-1.1l-16.3,2.7c-1,0.2-2-0.5-2.2-1.6c0-0.1,0-0.2,0-0.2c0-0.9-0.1-1.7-0.1-2.5c-0.1-3.4-0.2-6.9-1.2-7.8&#10;&#9;&#9;c-0.1-0.1-0.3-0.3-1.2-0.2c-2.2,0.3-6.2,2.4-9.5,5.9C103.7,278.9,100.3,283.4,100.9,288.5L100.9,288.5z"/>
	<path class="st1_pizza-17" d="M270.5,208.3c-0.7,0-1.3-0.3-1.6-0.9l-10.5-16.9c-0.6-0.9-0.3-2,0.6-2.6s2-0.3,2.6,0.6l10.5,16.9&#10;&#9;&#9;c0.6,0.9,0.3,2-0.6,2.6c0,0,0,0,0,0C271.2,208.2,270.9,208.3,270.5,208.3z"/>
	<path class="st1_pizza-17" d="M135.5,214.8h-23.3c-1,0-1.9-0.8-1.9-1.9c0-1,0.8-1.9,1.9-1.9c0,0,0,0,0,0h23.3c1,0,1.9,0.8,1.9,1.9&#10;&#9;&#9;C137.4,213.9,136.5,214.8,135.5,214.8z"/>
	<path class="st1_pizza-17" d="M174.4,314.4c-1,0-1.9-0.8-1.9-1.8c0-1,0.7-1.8,1.7-1.9l21.7-2.8c1-0.1,2,0.6,2.1,1.6c0.1,1-0.6,2-1.6,2.1&#10;&#9;&#9;l-21.7,2.8L174.4,314.4z"/>
	<path class="st1_pizza-17" d="M233.6,302.6c-1,0-1.9-0.9-1.9-1.9c0-0.2,0-0.4,0.1-0.6l5.3-14.2c0.4-1,1.5-1.5,2.4-1.1c1,0.4,1.5,1.5,1.1,2.4&#10;&#9;&#9;l0,0l-5.3,14.2C235,302.2,234.3,302.6,233.6,302.6z"/>
	<path class="st1_pizza-17" d="M282.8,368.3c-0.3,0-0.6-0.1-0.9-0.2l-14.8-8c-0.9-0.5-1.3-1.6-0.8-2.5c0.5-0.9,1.6-1.3,2.5-0.8&#10;&#9;&#9;c0,0,0.1,0,0.1,0.1l14.8,8c0.9,0.5,1.3,1.6,0.8,2.5C284.1,367.9,283.5,368.3,282.8,368.3z"/>
	<path class="st1_pizza-17" d="M227.3,386.3c-1,0-1.9-0.8-1.9-1.9c0-0.5,0.2-1.1,0.6-1.4l11.5-10.1c0.8-0.7,2-0.6,2.7,0.2s0.6,2-0.2,2.7&#10;&#9;&#9;l-11.5,10.1C228.2,386.1,227.8,386.3,227.3,386.3z"/>
	<path class="st1_pizza-17" d="M146.8,356.6c-0.5,0-1.1-0.2-1.4-0.6l-11.3-12.7c-0.7-0.8-0.6-2,0.1-2.6c0,0,0,0,0,0c0.8-0.7,2-0.6,2.7,0.1&#10;&#9;&#9;l11.3,12.7c0.7,0.8,0.6,2-0.2,2.7C147.7,356.5,147.3,356.6,146.8,356.6L146.8,356.6z"/>
	<path class="st1_pizza-17" d="M212.9,205.7c-0.5,0-1-0.2-1.3-0.5c-0.7-0.7-0.7-1.9,0-2.7l10.1-10.3c0.7-0.7,1.9-0.8,2.7,0s0.8,1.9,0,2.7&#10;&#9;&#9;l-10.1,10.3C213.9,205.5,213.4,205.7,212.9,205.7z"/>
	<path class="st1_pizza-17" d="M185.1,134.7c-0.1,0-0.2,0-0.3,0c-9.5-1.6-14.9-3.1-16.1-4.5c-0.7-0.8-0.6-2,0.1-2.7c0.8-0.7,2-0.6,2.7,0.1&#10;&#9;&#9;c1.2,0.8,8.1,2.4,13.9,3.3c1,0.1,1.7,1.1,1.6,2.1C186.9,134.1,186.1,134.8,185.1,134.7L185.1,134.7z M171.6,127.7L171.6,127.7z"/>
	<circle class="st5_pizza-17" cx="289" cy="280.9" r="13.6"/>
	<path class="st1_pizza-17" d="M289,296.4c-8.5,0-15.5-6.9-15.5-15.4s6.9-15.5,15.4-15.5s15.5,6.9,15.5,15.4c0,0,0,0,0,0&#10;&#9;&#9;C304.4,289.4,297.5,296.3,289,296.4z M289,269.2c-6.5,0-11.7,5.2-11.7,11.7c0,6.5,5.2,11.7,11.7,11.7c6.5,0,11.7-5.2,11.7-11.7&#10;&#9;&#9;c0,0,0,0,0,0C300.7,274.5,295.4,269.2,289,269.2z"/>
	<circle class="st5_pizza-17" cx="177.7" cy="260.6" r="10.5"/>
	<path class="st1_pizza-17" d="M177.7,273c-6.8,0-12.4-5.5-12.4-12.3s5.5-12.4,12.3-12.4s12.4,5.5,12.4,12.3c0,0,0,0,0,0&#10;&#9;&#9;C190,267.4,184.5,273,177.7,273z M177.7,252c-4.8,0-8.6,3.9-8.6,8.6c0,4.8,3.9,8.6,8.6,8.6s8.6-3.9,8.6-8.6l0,0&#10;&#9;&#9;C186.3,255.9,182.4,252,177.7,252z"/>
	<path class="st1_pizza-17" d="M146.8,262.5c-0.3,0-0.5-0.1-0.8-0.2l-16-7.3c-0.9-0.4-1.4-1.6-0.9-2.5c0.4-0.9,1.6-1.4,2.5-0.9l0,0l16.1,7.4&#10;&#9;&#9;c0.9,0.4,1.4,1.5,0.9,2.5C148.3,262.1,147.6,262.6,146.8,262.5L146.8,262.5z"/>
	<path class="st1_pizza-17" d="M95.2,257.7c-1,0-1.9-0.8-1.9-1.9c0-0.5,0.2-1.1,0.6-1.4l10.6-9.2c0.8-0.7,2-0.6,2.7,0.2s0.6,2-0.2,2.7&#10;&#9;&#9;l-10.6,9.2C96.1,257.5,95.7,257.7,95.2,257.7z"/>
	<path class="st1_pizza-17" d="M241.5,218c-1,0-1.9-0.8-1.9-1.9c0-0.5,0.2-0.9,0.5-1.2l8.5-9.7c0.7-0.8,1.9-0.9,2.7-0.2s0.9,1.9,0.2,2.7&#10;&#9;&#9;l-8.5,9.7C242.6,217.8,242,218,241.5,218z"/>
	<path class="st1_pizza-17" d="M275.4,126.1h-13.1c-1,0-1.9-0.8-1.9-1.9c0-1,0.8-1.9,1.9-1.9h13.1c1,0,1.9,0.8,1.9,1.9&#10;&#9;&#9;C277.3,125.2,276.4,126.1,275.4,126.1z"/>
	<path class="st1_pizza-17" d="M217.9,121.3c-1,0-1.9-0.8-1.9-1.8c0-0.9,0.7-1.8,1.6-1.9l15.6-2.7c1-0.1,2,0.6,2.1,1.7c0.1,0.9-0.5,1.8-1.5,2&#10;&#9;&#9;l-15.6,2.7L217.9,121.3z"/>
	<path class="st1_pizza-17" d="M333.2,284.2c-1,0-1.9-0.9-1.9-1.9c0-0.9,0.7-1.7,1.6-1.8l21.7-2.9c1-0.1,1.9,0.7,2,1.8c0.1,0.9-0.6,1.8-1.5,2&#10;&#9;&#9;l-21.7,2.9L333.2,284.2z"/>
	<path class="st1_pizza-17" d="M255.8,270.7c-1,0-1.9-0.8-1.9-1.9c0-0.9,0.6-1.7,1.5-1.8l9.5-2c1-0.2,2,0.4,2.2,1.4c0.2,1-0.4,2-1.5,2.2&#10;&#9;&#9;l-9.5,2C256.1,270.6,255.9,270.7,255.8,270.7z"/>
	<line class="st6_pizza-17" x1="307.7" y1="337.8" x2="300.3" y2="322.4"/>
	<path class="st1_pizza-17" d="M307.7,339.7c-0.7,0-1.4-0.4-1.7-1.1l-7.5-15.4c-0.5-0.9-0.1-2.1,0.9-2.5c0.9-0.5,2.1-0.1,2.5,0.9l7.5,15.4&#10;&#9;&#9;c0.5,0.9,0.1,2.1-0.9,2.5c0,0,0,0,0,0C308.3,339.6,308,339.7,307.7,339.7z"/>
</g>
</svg>