<svg id="_0285_conversation" xmlns="http://www.w3.org/2000/svg" viewBox="0 0 500 500" data-imageid="conversation-87" imageName="Conversation" class="illustrations_image" style="width: 157px;"><defs><style>.cls-1_conversation-87,.cls-2_conversation-87{fill:#fff;}.cls-3_conversation-87{fill:#f4a28c;}.cls-4_conversation-87{fill:#e6e6e6;}.cls-5_conversation-87{fill:#000001;opacity:.09;}.cls-6_conversation-87{fill:#ce8172;opacity:.31;}.cls-7_conversation-87{fill:#24285b;}.cls-2_conversation-87{opacity:.36;}.cls-8_conversation-87{fill:#ffd200;}.cls-9_conversation-87{fill:#68e1fd;}</style></defs><g id="girl_conversation-87"><rect class="cls-4_conversation-87" x="263.33" y="227.36" width="220.14" height="172.61" transform="translate(746.79 627.33) rotate(-180)"/><polygon class="cls-4_conversation-87" points="460.58 399.97 460.58 453.65 431.26 399.97 460.58 399.97"/><path class="cls-3_conversation-87" d="m332.25,305.33l-16.2,16.91c-5.55,5.79-15.1,4.67-19.16-2.25l-20.92-35.69c-.58-.99-1.01-2.05-1.27-3.16-.92-3.83-3.44-13.16-6.22-14.2-3.52-1.32-4.4,7.32-4.4,7.32,0,0-10.12-6.75-14.52,0-2.62,4.01,3.79,9.37,9.41,13.05,4.7,3.08,8.21,7.63,9.9,12.99,5.37,16.98,18.49,53.02,33.91,55.99,20.23,3.9,55.95-26.58,55.95-26.58l-26.48-24.38Z"/><path class="cls-9_conversation-87 targetColor" d="m371.52,249.36s-64.43,10.43-56.53,54.95c5.73,32.26,22.55,29.96,21.68,54.56l-.38,15.63,68.56-2.07s-4.37-30.85,4.2-52.79c8.58-21.94,32.1-76.13-37.54-70.27Z" style="fill: rgb(227, 178, 134);"/><polygon class="cls-3_conversation-87" points="386.45 210.86 389.44 249.73 367.9 249.85 374.38 221.52 386.45 210.86"/><path class="cls-5_conversation-87" d="m390.84,257.64s-33.49,10.04-22.94,38.88c10.55,28.84,27.38,47.13,10.44,56.34-16.94,9.21-42.04,21.63-42.04,21.63h57.86l13.78-15.04,11.93-43.38-29.03-58.43Z"/><path class="cls-6_conversation-87" d="m372.69,227.66s4.02-.48,7.28-3.57c0,0-.88,7.08-9.26,13.46l1.98-9.89Z"/><path class="cls-3_conversation-87" d="m364.83,207.6s-1.31,11.83.49,19.75c.73,3.22,3.99,5.26,7.19,4.48,3.98-.97,9.08-3.43,10.55-9.68l3.8-10.3s2.16-6.54-4.43-11.52c-6.59-4.98-17.17.03-17.61,7.27Z"/><polygon class="cls-7_conversation-87" points="336.3 374.49 327.88 399.97 414.98 399.97 404.86 372.42 336.3 374.49"/><path class="cls-3_conversation-87" d="m377.23,218.09s.2-4.58,3.63-4.14c3.43.44,3.19,7.05-1.5,7.56l-2.13-3.41Z"/><path class="cls-3_conversation-87" d="m364.39,215.1l-3.42,4.5c-.85,1.11-.25,2.73,1.12,3.02l4.53.96-2.22-8.48Z"/><path class="cls-8_conversation-87" d="m380.86,213.95s-14.3,35.09-2.84,41.77c11.46,6.68,31.87,5.27,34.57-9.69,2.69-14.96-11.97-18.69-12.09-39.63-.13-20.94-40.34-19.45-40.76-7.42-.42,12.04,21.13,14.97,21.13,14.97Z"/><path class="cls-3_conversation-87" d="m390.84,257.64c7.82-6.62,19.73-4.63,25.32,3.95,7.41,11.37,16.35,30.54,14.95,55.44-2.35,41.6,6.6,66.82-36.95,57.46-31.75-6.83-70.38-58.93-70.38-58.93,0,0-12.9-8.55-2.93-21.15,9.97-12.6,17.59,17.3,17.59,17.3,0,0,52.2,43.54,62.76,30.87,9.26-11.12-37.44-62.01-10.36-84.93Z"/></g><g id="speech2_conversation-87"><ellipse class="cls-7_conversation-87" cx="227.58" cy="76.12" rx="36.08" ry="29.76"/><polygon class="cls-7_conversation-87" points="206.48 87.9 188.63 106.89 214.29 96.33 206.48 87.9"/><circle class="cls-1_conversation-87" cx="212.2" cy="76.12" r="5.44"/><circle class="cls-1_conversation-87" cx="228.09" cy="76.12" r="5.44"/><circle class="cls-1_conversation-87" cx="243.58" cy="76.12" r="5.44"/></g><g id="speech1_conversation-87"><ellipse class="cls-7_conversation-87" cx="307.85" cy="168.28" rx="36.08" ry="29.76"/><polygon class="cls-7_conversation-87" points="328.95 180.07 346.8 199.06 321.14 188.5 328.95 180.07"/><circle class="cls-1_conversation-87" cx="323.23" cy="168.28" r="5.44"/><circle class="cls-1_conversation-87" cx="307.34" cy="168.28" r="5.44"/><circle class="cls-1_conversation-87" cx="291.85" cy="168.28" r="5.44"/></g><g id="boy_conversation-87"><rect class="cls-4_conversation-87" x="16.53" y="138.6" width="220.82" height="196.37"/><path class="cls-3_conversation-87" d="m166.14,231.6s-1.32,47.24,20.62,56.6c27.35,11.66,57.74-14.52,70.83-27.85,3.81-3.88,8.77-6.46,14.16-7.18,4.01-.54,8.84-2.11,12.48-6.17,7.48-8.36-8.8-15.84-15.4-9.68,0,0,2.2-3.65-2.2-6-2.16-1.15-3.89,1.78-5.1,5.07-1.76,4.8-5.62,8.54-10.44,10.26l-29.86,10.61c-8.78,3.42-17.94-4.04-16.35-13.33l2.55-14.96-41.29,2.64Z"/><path class="cls-9_conversation-87 targetColor" d="m175.08,159.01s40.27,17.17,34.11,80.07l-39.35-3.37,5.23-76.7Z" style="fill: rgb(227, 178, 134);"/><path class="cls-2_conversation-87" d="m175.08,159.01s40.27,17.17,34.11,80.07l-39.35-3.37,5.23-76.7Z"/><polygon class="cls-3_conversation-87" points="133.17 105.13 122.01 144.5 144.14 149.1 143.38 118.6 133.17 105.13"/><path class="cls-6_conversation-87" d="m143.83,125.27s-4.04-1.34-6.74-5.19c0,0-.57,7.47,6.72,15.78l.02-10.59Z"/><path class="cls-9_conversation-87 targetColor" d="m122.01,144.5l13.12,2.73s60.06,6.47,62.5,40.38c2.44,33.9-31.49,120.53-31.49,120.53h-91S2.22,135.54,122.01,144.5Z" style="fill: rgb(227, 178, 134);"/><path class="cls-3_conversation-87" d="m156.09,106.28s-1.11,12.44-4.62,20.22c-1.42,3.16-5.2,4.58-8.33,3.11-3.89-1.82-8.63-5.42-8.84-12.16l-1.77-11.39s-.86-7.18,6.96-10.93c7.82-3.75,17.66,3.6,16.6,11.15Z"/><path class="cls-5_conversation-87" d="m95.12,160.3s31.13,18.08,23.9,58.99c-7.23,40.91-19.24,54.98,6.44,49.27,25.67-5.72,36.23-18.6,36.23-18.6,0,0,18.47,15.08,0,26.51-18.47,11.44-43.55,11.41-47.51,31.66h-39.05s-3.16-8.87-7.35-20.04c-4.19-11.17,27.33-127.78,27.33-127.78Z"/><path class="cls-8_conversation-87" d="m152.96,106.25c-2.17-.27-6.11-.98-11.18-2.88,0,0,2.89,6.04-2,11.25-4.89,5.21-10.67,1.54-10.67,1.54l3.01-15.76c.73-4.62,3.92-8.49,8.33-10.04,1.8-.63,3.78-1.23,5.73-1.64,4.87-1.02,10.99,3.2,15.61.86,2.03-1.03,4.42.51,4.36,2.78-.14,4.93-2.34,12.34-9.31,13.81-1.28.27-2.58.25-3.88.09Z"/><path class="cls-3_conversation-87" d="m141.16,114.48s.75-4.75-2.87-5.02c-3.62-.27-4.75,6.59-.03,8.09l2.9-3.07Z"/><path class="cls-3_conversation-87" d="m47.11,232.6s-5.13,52.55,20.68,55.49c19.48,2.21,50.7-8.78,69.78-14.22,8.26-2.35,12.27-3.46,18.6-9.25,7.6-6.95,18.16-11.89,9.96-18.5-14.57-11.73-24.9,8.36-24.9,8.36,0,0-18.64,5.71-37.37,6.22-10.2.28-17.79-9.34-15.17-19.2l4.82-18.1s-34.14-32.04-46.4,9.2Z"/><path class="cls-3_conversation-87" d="m154.99,114.08l2.58,5.34c.64,1.32-.31,2.86-1.78,2.87l-4.86.05,4.05-8.26Z"/><path class="cls-9_conversation-87 targetColor" d="m73.91,156.18c-13.33,10.3-33.58,33.04-33.19,76.01l55.13,3.52s15.92-47.17-.73-75.41c-4.43-7.5-14.32-9.44-21.21-4.11Z" style="fill: rgb(227, 178, 134);"/><path class="cls-2_conversation-87" d="m73.91,156.18c-13.33,10.3-33.58,33.04-33.19,76.01l55.13,3.52s15.92-47.17-.73-75.41c-4.43-7.5-14.32-9.44-21.21-4.11Z"/><polygon class="cls-4_conversation-87" points="38.09 334.96 38.09 388.64 67.41 334.96 38.09 334.96"/><polygon class="cls-7_conversation-87" points="75.14 308.12 75.14 334.96 174.45 334.96 166.14 308.12 75.14 308.12"/></g></svg>