<svg id="_0098_open_map" xmlns="http://www.w3.org/2000/svg" viewBox="0 0 500 500" data-imageid="map-1-66" imageName="Map 1" class="illustrations_image" style="width: 157px;"><defs><style>.cls-1_map-1-66{fill:#fff;}.cls-2_map-1-66{fill:#f4a28c;}.cls-3_map-1-66{fill:#a5a5a5;}.cls-4_map-1-66{fill:#e6e6e6;}.cls-5_map-1-66{opacity:.03;}.cls-5_map-1-66,.cls-6_map-1-66,.cls-7_map-1-66,.cls-8_map-1-66,.cls-9_map-1-66{fill:none;}.cls-6_map-1-66{opacity:.08;}.cls-7_map-1-66{opacity:.2;}.cls-8_map-1-66{opacity:.3;}.cls-10_map-1-66{fill:#24285b;}.cls-11_map-1-66{fill:#000001;}.cls-12_map-1-66{fill:#ffd200;}.cls-9_map-1-66{opacity:.49;}.cls-13_map-1-66{fill:#68e1fd;}</style></defs><g id="bg_map-1-66"><g class="cls-8_map-1-66"><path class="cls-4_map-1-66" d="m102.73,124.1c-41.24,32.89-65.67,93.27-61.79,156.31,1.98,32.24,11,63.53,35.3,80.31,65.12,44.98,348.89,44.66,387.57-33.97,39.84-80.98,26.15-193.73-64.43-241.1-78.53-41.07-190.17-46.49-296.66,38.45Z"/></g><path class="cls-4_map-1-66" d="m116.64,379.53c-.83,0-1.5-.67-1.5-1.5v-18.85h-28.51v18.85c0,.83-.67,1.5-1.5,1.5s-1.5-.67-1.5-1.5v-20.35c0-.83.67-1.5,1.5-1.5h31.51c.83,0,1.5.67,1.5,1.5v20.35c0,.83-.67,1.5-1.5,1.5Z"/><g class="cls-5_map-1-66"><ellipse class="cls-11_map-1-66" cx="248.57" cy="439.11" rx="233.55" ry="21.48"/></g><path class="cls-4_map-1-66" d="m89.61,244.19c0-4.89-3.97-8.86-8.86-8.86-.49,0-.96.05-1.42.12-2.02-3.74-5.97-6.29-10.52-6.29-.15,0-.29.02-.44.02.27-1.1.44-2.25.44-3.44,0-7.83-6.35-14.17-14.17-14.17s-14.17,6.35-14.17,14.17c0,1.19.16,2.33.44,3.44-.15,0-.29-.02-.44-.02-6.59,0-11.94,5.35-11.94,11.94s5.35,11.94,11.94,11.94h41.44v-.08c4.34-.56,7.7-4.27,7.7-8.78Z"/><path class="cls-4_map-1-66" d="m442.75,172.54c0-5.81-4.71-10.52-10.52-10.52-.58,0-1.14.06-1.69.15-2.39-4.44-7.09-7.47-12.49-7.47-.18,0-.35.02-.52.03.33-1.31.52-2.67.52-4.08,0-9.3-7.54-16.83-16.83-16.83s-16.83,7.54-16.83,16.83c0,1.41.19,2.77.52,4.08-.17,0-.34-.03-.52-.03-7.83,0-14.18,6.35-14.18,14.18s6.35,14.18,14.18,14.18h49.21v-.1c5.16-.67,9.15-5.07,9.15-10.42Z"/><rect class="cls-3_map-1-66" x="52.02" y="369.73" width="96.76" height="71.61"/><g class="cls-6_map-1-66"><polygon class="cls-11_map-1-66" points="132 369.73 107.85 441.34 141.42 441.34 152.38 404.04 148.78 369.73 132 369.73"/></g><rect class="cls-12_map-1-66" x="377.24" y="226.18" width="7.99" height="210"/><g class="cls-9_map-1-66"><rect class="cls-4_map-1-66" x="65.95" y="380.45" width="10.54" height="10.54"/></g><g class="cls-9_map-1-66"><polygon class="cls-4_map-1-66" points="83.27 389.39 92.44 383.4 92.44 394.7 83.27 389.39"/></g><g class="cls-9_map-1-66"><circle class="cls-4_map-1-66" cx="80.45" cy="405.53" r="9.93"/></g><rect class="cls-10_map-1-66" x="344.87" y="257.7" width="47.44" height="17.04" transform="translate(737.19 532.43) rotate(-180)"/><polygon class="cls-10_map-1-66" points="344.87 252.88 344.87 279.62 323.3 266.22 344.87 252.88"/><rect class="cls-10_map-1-66" x="370.52" y="217.63" width="47.44" height="17.04"/><polygon class="cls-10_map-1-66" points="417.96 212.82 417.96 239.55 439.53 226.15 417.96 212.82"/><path class="cls-4_map-1-66" d="m377.76,435.25s13.04-18.74-6.41-23.92c-19.45-5.17,4.69-30.43-13.42-33.75-18.1-3.32-15.09,23.4-15.09,23.4,0,0-12.5-10.78-21.12-1.72-8.62,9.05,3.45,18.98,3.45,18.98,0,0-17.41,6.01-6.55,17.01h59.14Z"/><path class="cls-3_map-1-66" d="m351.61,437.75s8.28-14.16,20.49-12.42c12.2,1.74,10.9,12.42,10.9,12.42h-31.38Z"/><rect class="cls-1_map-1-66" x="387.86" y="223.41" width="22.79" height="5.63"/><rect class="cls-1_map-1-66" x="351.21" y="263.44" width="22.79" height="5.63"/><circle class="cls-12_map-1-66" cx="255.65" cy="81.23" r="41.82"/></g><g id="person_map-1-66"><polygon class="cls-13_map-1-66 targetColor" points="216.76 220.75 251.24 177.79 258.68 184.32 229.3 233.43 216.76 220.75" style="fill: rgb(139, 255, 255);"/><polygon class="cls-2_map-1-66" points="173.37 164.24 179.73 183.32 164.62 192.92 159.19 159.84 173.37 164.24"/><path class="cls-2_map-1-66" d="m154.01,141.39c3.25-7.93,13.8-9.55,19.66-3.3,6.43,6.86,14.17,17.78,5.41,23.71-13.42,9.09-25.73-7.89-25.73-7.89,0,0-1.8-6.51.66-12.52Z"/><path class="cls-2_map-1-66" d="m163.82,153.1s-3.44-2.88-5,1.21,4.52,6.06,6.33,4-1.33-5.2-1.33-5.2Z"/><path class="cls-13_map-1-66 targetColor" d="m147,202.28c4.56-10.24,13.47-17.91,24.21-21.14,20.52-6.16,58.3.58,69.82,19.78,15.77,26.28-7.31,109.75-7.31,109.75l-68.96,5.36s-37.93-68.42-17.76-113.75Z" style="fill: rgb(139, 255, 255);"/><g class="cls-6_map-1-66"><path class="cls-11_map-1-66" d="m177.17,179.34s-32.26,103.89,60.89,110.78l-4.34,20.55-68.96,5.36s-24.3-38.15-23.27-91.74c0,0,.59-26.5,19.24-38.21,0,0,7.12-5.25,16.45-6.73Z"/></g><path class="cls-13_map-1-66 targetColor" d="m205.29,180.59s-11.84,16.8,0,36.78c7.52,12.69,29.4,37.41,44.36,53.75,7.28,7.95,20.21,6.45,25.46-2.97l32.13-56.65-10.9-6.99-29.45,43.18s-20.15-66.26-61.6-67.09Z" style="fill: rgb(139, 255, 255);"/><g class="cls-7_map-1-66"><path class="cls-1_map-1-66" d="m205.29,180.59s-11.84,16.8,0,36.78c7.52,12.69,29.4,37.41,44.36,53.75,7.28,7.95,20.21,6.45,25.46-2.97l32.13-56.65-10.9-6.99-29.45,43.18s-20.15-66.26-61.6-67.09Z"/></g><path class="cls-2_map-1-66" d="m303.44,209.06s18.24-6.7,10.8-17.02c-7.44-10.32-17.91,12.47-17.91,12.47l7.11,4.55Z"/><path class="cls-10_map-1-66" d="m160.19,165.91l-10.22-10.58c-2.14-2.22-3.26-5.22-3.11-8.3.25-5.38,1.4-13.96,5.85-20.4,6.99-10.1,16.29-13.92,18.6-5.19,2.31,8.74,2.79-1.64,8.42,3,5.63,4.64,4.47,7.36,0,9.82-4.47,2.46-13.74,6.01-14.57,13.38-.83,7.37,6.16,13.31-4.98,18.26Z"/><polygon class="cls-12_map-1-66" points="261.18 177.33 277.34 140.19 287.89 153.67 308.36 143.92 317.32 159.03 339.38 155.87 326.27 198.08 304.84 203.6 294.99 187.46 274.46 193.11 261.18 177.33"/><g class="cls-7_map-1-66"><polygon class="cls-1_map-1-66" points="278.38 149.38 266.67 175.39 276.46 187.63 297.57 180.59 306.18 199.21 322.51 194.58 333.07 161.24 314.12 164.49 306.18 149.38 287.01 159.13 278.38 149.38"/></g><g class="cls-6_map-1-66"><polygon class="cls-11_map-1-66" points="287.89 153.67 274.46 193.11 294.99 187.46 308.36 143.92 287.89 153.67"/></g><g class="cls-6_map-1-66"><polygon class="cls-11_map-1-66" points="317.32 159.03 304.84 203.6 326.27 198.08 339.38 155.87 317.32 159.03"/></g><path class="cls-2_map-1-66" d="m252.53,178.93s2.04-9.29,6.15-11.69c4.11-2.4,12.5-.51,8.9,4.66-3.6,5.17-8.9,12.42-8.9,12.42l-6.15-5.39Z"/><polygon class="cls-10_map-1-66" points="233.45 310.5 224.27 430.4 209.77 430.4 196.82 337.25 164.76 315.91 233.45 310.5"/><polygon class="cls-10_map-1-66" points="164.76 315.91 144.75 430.4 160.29 430.4 193.88 335.29 164.76 315.91"/><path class="cls-13_map-1-66 targetColor" d="m147.57,430.4l-9.65,7.11c-1.65,1.21-.79,3.83,1.26,3.83h16.16c1.17,0,2.12-.95,2.12-2.12v-8.82h-9.89Z" style="fill: rgb(139, 255, 255);"/><path class="cls-13_map-1-66 targetColor" d="m223.86,430.4l9.08,7.1c1.61,1.26.72,3.83-1.32,3.83h-11.51c-3.39,0-6.15-2.75-6.15-6.15v-4.79h9.89Z" style="fill: rgb(139, 255, 255);"/></g></svg>