<svg id="_0047_running" xmlns="http://www.w3.org/2000/svg" viewBox="0 0 500 500" data-imageid="running-74" imageName="Running" class="illustrations_image" style="width: 157px;"><defs><style>.cls-1_running-74{fill:#fff;}.cls-2_running-74{fill:#f4a28c;}.cls-3_running-74,.cls-4_running-74,.cls-5_running-74{fill:#a5a5a5;}.cls-4_running-74{opacity:.58;}.cls-6_running-74{opacity:.03;}.cls-6_running-74,.cls-7_running-74{fill:#000001;}.cls-8_running-74{fill:#e6e6e6;}.cls-9_running-74{fill:#ce8172;opacity:.31;}.cls-5_running-74{opacity:.23;}.cls-10_running-74{fill:#24285b;}.cls-7_running-74{opacity:.08;}.cls-11_running-74{fill:#ffd200;}.cls-12_running-74{fill:#68e1fd;}</style></defs><ellipse id="sd_running-74" class="cls-6_running-74" cx="275.07" cy="449.95" rx="165.91" ry="22.57"/><g id="panel2_running-74"><rect class="cls-8_running-74" x="42.61" y="282.44" width="121.36" height="61.95"/><path class="cls-3_running-74" d="m86.88,307.85c0-7.14-6.18-12.84-13.49-12.04-5.53.61-10,5.04-10.65,10.57-.34,2.86.32,5.55,1.68,7.78h0l10.35,16.95,10.3-16.87h0c1.15-1.85,1.82-4.04,1.82-6.38Zm-12.11,6.43c-3.27,0-5.92-2.65-5.92-5.92s2.65-5.92,5.92-5.92,5.92,2.65,5.92,5.92-2.65,5.92-5.92,5.92Z"/><rect class="cls-4_running-74" x="100.37" y="299.11" width="43.96" height="8.75"/><rect class="cls-5_running-74" x="100.37" y="315.62" width="43.96" height="8.75"/></g><g id="runner_running-74"><path class="cls-2_running-74" d="m238.15,103.95s-39.71,1.98-42.75,23.68c-3.05,21.7-62.17,67-62.17,67l19.81,32.47s100.04-38.39,85.11-123.15Z"/><path class="cls-7_running-74" d="m238.15,103.95s-39.71,1.98-42.75,23.68c-3.05,21.7-62.17,67-62.17,67l19.81,32.47s100.04-38.39,85.11-123.15Z"/><path class="cls-12_running-74 targetColor" d="m217.49,404.76s-1.55,10.09-8.79,13.74c-7.23,3.64-2.63,14.18,8.11,6.74,4.1-2.84,7.18-5.5,9.42-7.7,2.67-2.62,6.11-4.13,9.74-5.07,1.13-.29,2.12-1.16,2.5-3.12,1.08-5.59-11.74-9.82-11.74-9.82l-9.24,5.23Z" style="fill: rgb(68, 137, 129);"/><path class="cls-11_running-74" d="m230.13,68.35s-17.77,38.12,7.82,44.8c25.59,6.67,17.79-58,17.79-58l-25.61,13.2Z"/><path class="cls-2_running-74" d="m233.97,41.55s-4.74,13.49-4.77,23.26c-.01,3.96,3.24,7.23,7.21,7.19,4.92-.06,11.56-1.56,14.97-8.48l7.24-11.03s4.29-7.07-2.07-14.69-20.11-4.61-22.58,3.75Z"/><path class="cls-12_running-74 targetColor" d="m238.15,103.95s-90.85,35.96-49.68,91.44c3.44,4.64,6.09,9.82,7.6,15.4,5,18.44,21.4,46.15,38.72,74.14l88.49-25.05s-17.34-64.08-11.27-102.85c9.32-59.53-51.98-56.42-51.98-56.42l-21.87,3.34Z" style="fill: rgb(68, 137, 129);"/><polygon class="cls-2_running-74" points="255.74 55.14 263.9 101.28 238.15 103.95 242.44 70.18 255.74 55.14"/><path class="cls-2_running-74" d="m231.42,50.2l-5.23,4.35c-1.29,1.07-1.03,3.12.49,3.84l5.04,2.35-.31-10.53Z"/><path class="cls-9_running-74" d="m242.32,71.14s5.35-1.49,7.97-4.88c0,0,2.71,9.89-9.2,14.56l1.23-9.67Z"/><path class="cls-11_running-74" d="m244.09,47.46l6.22,1.44s-3.88,26.32,7.09,47.72c6.93,13.52,25.12,16.33,36.34,6.09l4.86-4.44c5.75-5.25,4.21-14.6-2.87-17.86-10.35-4.76-21.55-14-21.5-31.69.06-20.83-19.9-31.33-33.01-26.59-12.85,4.64-10.68,23.52,2.87,25.32Z"/><path class="cls-7_running-74" d="m249.73,137.54s-13.34,38.21,12.63,61.73c25.98,23.52,5.36,76.34,5.36,76.34l55.55-15.73s-13.55-51.13-12.41-76.99c1.14-25.86-61.13-45.35-61.13-45.35Z"/><path class="cls-2_running-74" d="m248.32,57.79s1.69-6.1,6.17-4.45c4.48,1.65,2.1,10.48-4.37,9.7l-1.8-5.26Z"/><path class="cls-2_running-74" d="m264.69,305.19l33.28,42.9c12.7,16.37,27.69,30.84,44.51,42.96l49.27,35.5,6.78-10.39-18.91-19.46c-23.63-24.31-41.89-53.32-53.6-85.14l-7.78-21.15-53.55,14.78Z"/><path class="cls-7_running-74" d="m264.69,305.19l33.28,42.9c12.7,16.37,27.69,30.84,44.51,42.96l49.27,35.5,6.78-10.39-18.91-19.46c-23.63-24.31-41.89-53.32-53.6-85.14l-7.78-21.15-53.55,14.78Z"/><path class="cls-2_running-74" d="m257.31,162.87c-19.68-21.05-1.93-56.06,26.56-51.78,3.08.46,6.19,1.39,9.26,2.91,12.19,6.05,42.54,21.74,67.34,34.6,22.3,11.57,35.62,35.25,33.93,60.31l-3.64,53.95s14.55,32.26.29,37.52c-14.26,5.26-18.6-29.94-18.6-29.94l-7.47-47.6c-2.57-16.39-15.9-29.02-32.42-30.56-23.45-2.18-56.18-9.02-75.25-29.41Z"/><path class="cls-2_running-74" d="m213.46,296.51h0c-20.29,6.52-30.57,29.09-22.17,48.68l25.86,60.27,10.58-6.35-13.25-51.48c-2.38-9.25,2.69-18.78,11.69-21.97l22.23-7.88-34.94-21.27Z"/><path class="cls-10_running-74" d="m211.57,294.75l15.4,34.51s37.97-11.23,75.07-11.8c11.63-.18,23.14-.98,28.69-5.7-2.41,2.04,15.09-25.24-7.46-51.89l-88.49,25.05s-11.17,3.02-23.22,9.82Z"/><path class="cls-2_running-74" d="m160.37,117.45s.63-15.02,18.01-11.47c17.37,3.55-9.07,27.5-9.07,27.5,0,0,15.25,69.07-9.05,89.18-24.31,20.1-48.49-24.55.12-105.21Z"/><path class="cls-12_running-74 targetColor" d="m391.69,426.62s6.32,8.21,3.92,16.06c-2.39,7.86,8.56,11.85,10.62-1.23.79-4.99.99-9.11.95-12.3-.06-3.79,1.25-7.37,3.1-10.69.57-1.03.64-2.37-.54-4.01-3.35-4.7-13.85-1-13.85-1l-4.2,13.17Z" style="fill: rgb(68, 137, 129);"/><path class="cls-7_running-74" d="m391.69,426.62s6.32,8.21,3.92,16.06c-2.39,7.86,8.56,11.85,10.62-1.23.79-4.99.99-9.11.95-12.3-.06-3.79,1.25-7.37,3.1-10.69.57-1.03.64-2.37-.54-4.01-3.35-4.7-13.85-1-13.85-1l-4.2,13.17Z"/><path class="cls-10_running-74" d="m271,318.52l29.86,37.01,40.12-11.1-10.44-34.59s-38.04-3.78-59.54,8.68Z"/><path class="cls-1_running-74" d="m300.12,276.8c-.02-.33-2.26-33.27-46.53-52.39-32.69-14.12-29.68-45.54-27.27-70.78,1-10.46,1.87-19.49.16-25.97-5.91-22.47,23.55-63.64,24.8-65.38l.81.58c-.3.42-30.44,42.52-24.65,64.54,1.75,6.65.88,15.76-.13,26.32-2.39,24.92-5.36,55.94,26.67,69.77,44.87,19.38,47.12,52.92,47.13,53.26l-1,.05Z"/><circle class="cls-10_running-74" cx="251.69" cy="62.57" r="4.8"/><polygon class="cls-11_running-74" points="291.52 278.26 312.39 272.86 318.93 288.29 298.13 292.39 291.52 278.26"/><polygon class="cls-12_running-74 targetColor" points="368.59 245.88 391.76 247.95 390.76 262.86 371.43 263.99 368.59 245.88" style="fill: rgb(68, 137, 129);"/><path class="cls-8_running-74" d="m228.07,107.79c-12.08-14.61-.52-47.33-.02-48.72l.94.34c-.12.33-11.87,33.57-.15,47.74l-.77.64Z"/></g><g id="panel1_running-74"><rect class="cls-8_running-74" x="337.99" y="45.07" width="121.36" height="61.95"/><rect class="cls-4_running-74" x="395.75" y="61.74" width="43.96" height="8.75"/><rect class="cls-5_running-74" x="395.75" y="78.25" width="43.96" height="8.75"/><path class="cls-3_running-74" d="m360.27,80.45s-1.41,7.72,4.78,6.67,3.24-4.33,2.36-8.56l-7.14,1.88Z"/><path class="cls-3_running-74" d="m359.54,76.89l7.16-1.65s.29-5.74-.05-11.48-5.99-10.49-9.76-6.61c-3.77,3.88-2.29,11.71,2.65,19.73Z"/><path class="cls-3_running-74" d="m373.09,87.54s-4.07,5.73,1.35,7.23c5.43,1.5,4.27-2.28,5.16-6.05l-6.51-1.18Z"/><path class="cls-3_running-74" d="m373.85,84.37l6.44,1.38s2.41-4.55,4.31-9.34c1.9-4.79-.89-10.78-5.41-9.07-4.53,1.72-6.3,8.64-5.33,17.03Z"/></g></svg>