<svg id="_0073_meditation" xmlns="http://www.w3.org/2000/svg" xmlns:xlink="http://www.w3.org/1999/xlink" viewBox="0 0 500 500" data-imageid="meditation-74" imageName="Meditation" class="illustrations_image" style="width: 157px;"><defs><style>.cls-1_meditation-74{fill:url(#linear-gradient);}.cls-1_meditation-74,.cls-2_meditation-74,.cls-3_meditation-74,.cls-4_meditation-74,.cls-5_meditation-74,.cls-6_meditation-74,.cls-7_meditation-74,.cls-8_meditation-74,.cls-9_meditation-74,.cls-10_meditation-74,.cls-11_meditation-74,.cls-12_meditation-74,.cls-13_meditation-74,.cls-14_meditation-74,.cls-15_meditation-74,.cls-16_meditation-74,.cls-17_meditation-74{stroke-width:0px;}.cls-2_meditation-74{isolation:isolate;opacity:.18;}.cls-2_meditation-74,.cls-17_meditation-74{fill:#68e1fd;}.cls-3_meditation-74{fill:url(#linear-gradient-11-meditation-74);}.cls-4_meditation-74{fill:url(#linear-gradient-12-meditation-74);}.cls-5_meditation-74{fill:url(#linear-gradient-13-meditation-74);}.cls-6_meditation-74{fill:url(#linear-gradient-10-meditation-74);}.cls-18_meditation-74{fill:none;stroke:#fff;stroke-miterlimit:10;stroke-width:1.26px;}.cls-7_meditation-74{fill:url(#linear-gradient-4-meditation-74);}.cls-8_meditation-74{fill:url(#linear-gradient-2-meditation-74);}.cls-9_meditation-74{fill:url(#linear-gradient-3-meditation-74);}.cls-10_meditation-74{fill:url(#linear-gradient-8-meditation-74);}.cls-11_meditation-74{fill:url(#linear-gradient-9-meditation-74);}.cls-12_meditation-74{fill:url(#linear-gradient-7-meditation-74);}.cls-13_meditation-74{fill:url(#linear-gradient-5-meditation-74);}.cls-14_meditation-74{fill:url(#linear-gradient-6-meditation-74);}.cls-15_meditation-74{fill:#231f20;}.cls-16_meditation-74{fill:#ffb4a3;}</style><linearGradient id="linear-gradient-meditation-74" x1="410.09" y1="3603.87" x2="405.46" y2="3694.15" gradientTransform="translate(-159.65 4075.1) scale(1 -1)" gradientUnits="userSpaceOnUse"><stop offset="0" stop-color="#231f20" stop-opacity="0"/><stop offset="1" stop-color="#231f20"/></linearGradient><linearGradient id="linear-gradient-2-meditation-74" x1="-4429.52" y1="3809.8" x2="-4414.24" y2="3809.8" gradientTransform="translate(-4067.69 4075.1) rotate(-180)" gradientUnits="userSpaceOnUse"><stop offset="0" stop-color="#000"/><stop offset="1" stop-color="#000" stop-opacity="0"/></linearGradient><linearGradient id="linear-gradient-3-meditation-74" x1="302.16" y1="3819.64" x2="313.33" y2="3819.64" gradientTransform="translate(-159.65 4075.1) scale(1 -1)" xlink:href="#linear-gradient-2-meditation-74"/><linearGradient id="linear-gradient-4-meditation-74" x1="255.81" y1="125.16" x2="256.03" y2="81.72" gradientTransform="matrix(1,0,0,1,0,0)" xlink:href="#linear-gradient-meditation-74"/><linearGradient id="linear-gradient-5-meditation-74" x1="432.14" y1="3781.55" x2="498.68" y2="3709.86" xlink:href="#linear-gradient-meditation-74"/><linearGradient id="linear-gradient-6-meditation-74" x1="396.16" y1="3705.4" x2="383.81" y2="3774.68" xlink:href="#linear-gradient-meditation-74"/><linearGradient id="linear-gradient-7-meditation-74" x1="426.14" y1="3728.56" x2="423.9" y2="3812.77" xlink:href="#linear-gradient-meditation-74"/><linearGradient id="linear-gradient-8-meditation-74" x1="412.1" y1="3794.77" x2="342.13" y2="3848.78" gradientTransform="translate(-159.65 4075.1) scale(1 -1)" xlink:href="#linear-gradient-2-meditation-74"/><linearGradient id="linear-gradient-9-meditation-74" x1="405.06" y1="3818.86" x2="481.72" y2="3834.3" gradientTransform="translate(-159.65 4075.1) scale(1 -1)" xlink:href="#linear-gradient-2-meditation-74"/><linearGradient id="linear-gradient-10-meditation-74" x1="352.34" y1="3794.56" x2="407.14" y2="3833.92" xlink:href="#linear-gradient-meditation-74"/><linearGradient id="linear-gradient-11-meditation-74" x1="419.84" y1="3830.18" x2="456.88" y2="3794.86" gradientTransform="translate(-159.65 4075.1) scale(1 -1)" xlink:href="#linear-gradient-2-meditation-74"/><linearGradient id="linear-gradient-12-meditation-74" x1="409.65" y1="3920.74" x2="418.4" y2="3957.27" xlink:href="#linear-gradient-meditation-74"/><linearGradient id="linear-gradient-13-meditation-74" x1="412.72" y1="3725.41" x2="414.78" y2="3644.12" xlink:href="#linear-gradient-meditation-74"/></defs><path id="character_meditation-74" class="cls-2_meditation-74 targetColor" d="M145.32,104.36c-5.02,22.29-5.94,46.51-18.91,65.32-15.63,22.57-44.77,31.52-63.77,51.25-24.66,25.77-27.04,69.89-5.2,98.09,11.98,15.54,29.32,25.68,44.49,38.1,29.14,24.03,50.92,57.47,84.33,75.19,35.9,19,82.68,15.53,115.39-8.68,29.88-22.11,47.51-58.74,79.57-77.48,15.9-9.31,34.54-13.7,49.88-24.03,24.13-16.26,37-46.96,33.7-75.83-3.31-28.87-21.83-55.19-46.96-69.89-14.33-8.33-31.86-14.32-39.45-29.11-6.3-12.24-3.83-26.86-5.94-40.43-2.2-13.46-8.94-25.76-19.12-34.85-21.92-19.37-54.66-19.64-83.59-15.44s-57.47.82-84.61,3c-23.81,2.12-34.5,21.4-39.81,44.78Z" style="fill: rgb(255, 153, 33);"/><g id="matt_meditation-74"><path id="matt-2_meditation-74" class="cls-17_meditation-74 targetColor" d="M468.47,444.68c-.09.5-.2,1.01-.34,1.5-.53,1.98-1.44,3.9-3.05,5.07-3,2.19-7.12,1.09-10.69.09-46.78-13.89-96.2-15.62-144.9-13.61-48.7,2.01-97.21,7.87-145.9,8.9-25.86.55-51.71-.28-77.57-1.1-13.61-.46-27.14-.82-40.75-1.28-3.56-.09-7.4-.27-10.6-1.92-3.2-1.65-5.76-5.24-4.93-8.77.55-2.37,2.46-4.21,4.38-5.76,8.24-6.45,18.5-9.59,28.25-13.63,3.51-1.41,6.92-3.06,10.21-4.92,15.72-9.05,28.14-25.4,46.14-27.5,12.51-1.5,24.66,4.66,37.27,6.03,12.61,1.37,24.66-1.92,36.91-3.11,11.06-1.28,18.18,1.09,28.51,3.2,25.46,5.3,56.28,1.19,81.62-3.65,11.79-2.28,23.48-5.2,35.36-6.48,14.62-1.56,29.33-.37,43.95.75,17.45,1.28,34.81,2.65,52.26,4.02,2.25.19,4.66.37,6.48,1.65,1.56,1,2.56,2.65,3.47,4.2,4.29,7.13,8.5,14.16,12.79,21.29,6.36,10.78,13.13,22.61,11.12,35.04Z" style="fill: rgb(255, 153, 33);"/><path class="cls-1_meditation-74" d="M468.14,446.19c-.53,1.98-1.44,3.9-3.05,5.07-3,2.19-7.12,1.09-10.69.09-46.78-13.89-96.2-15.62-144.9-13.61-48.7,2.01-97.21,7.85-145.9,8.89-25.86.55-51.71-.28-77.57-1.1-13.61-.46-27.14-.82-40.75-1.28-3.56-.09-7.4-.27-10.6-1.92-3.2-1.65-5.76-5.24-4.93-8.77.55-2.37,2.46-4.21,4.38-5.76,8.24-6.45,18.5-9.59,28.25-13.63-7.37,6.74-15.19,12.97-23.41,18.66,127.03,25.59,260.22-22.7,387.33,2.45,11.23,2.25,28.18,2.86,38.32,8.09,1.37.65,2.57,1.62,3.5,2.82Z"/></g><g id="character-2_meditation-74"><path class="cls-17_meditation-74 targetColor" d="M278.9,125.46c7.76.82,15.72,2.01,22.2,6.39,2.76,1.94,5.25,4.25,7.4,6.85,10.36,11.94,17.02,26.64,19.18,42.3,1.74,13.16.28,26.59,2.1,39.69,1,7.67,3.38,15.44,8.68,21.1,5.11,5.39,12.43,8.13,19.47,10.69.89.19,1.67.71,2.19,1.46.55,1,0,2.28-.55,3.29l-9.59,17.81c-.3.76-.85,1.41-1.56,1.83-1,.64-2.37.28-3.47-.09-9.69-3-19.74-6.3-27.05-13.25-11.51-10.96-13.7-28.23-15.17-44.04-1.18,15.53-2.37,30.97-3.65,46.5.03,1.28-.29,2.54-.91,3.65-1.09,1.65-3.38,2.1-5.38,2.38-19.81,2.71-39.76,4.23-59.75,4.57-4.75.09-10.33-.37-12.73-4.39-1.28-2.01-1.37-4.57-1.37-6.94-.46-15.81-.82-31.61-1.28-47.51-3.29,8.41-6.67,17.09-12.42,24.12-12.98,15.99-35.19,20.92-55.64,23.21-1.2-6.52-2.82-12.96-4.84-19.27,4.21.09,8.13-2.19,11.7-4.49,9.68-6.3,19-13.43,26.4-22.38s12.73-19.83,13.7-31.34c.55-5.94-.09-11.88-.46-17.82-.91-17.08,3-36.54,21.11-43.02,7.13-2.56,16.47-1.83,23.85-2.19,12.62-.71,25.27-.41,37.84.89Z" style="fill: rgb(255, 153, 33);"/><path class="cls-8_meditation-74" d="M360.02,253.67c-.3-.43-.75-.73-1.27-.85-.63-.01-1.24.22-1.71.65-6.27,4.6-10.65,11.85-10.48,19.39-.05,1.14.24,2.28.83,3.26,1.12,1.57,3.49,2,5.38,1.39,1.84-.71,3.42-1.96,4.55-3.59,2.21-2.87,3.66-6.26,4.21-9.85.49-3.15.65-7.77-1.51-10.41Z"/><path class="cls-9_meditation-74" d="M143.83,246.53c.21-.33.55-.56.93-.65.47,0,.92.17,1.25.5,4.59,3.53,7.78,9.08,7.66,14.87.04.87-.17,1.74-.61,2.5-.94,1.17-2.53,1.6-3.93,1.06-1.36-.56-2.52-1.52-3.32-2.75-1.62-2.23-2.68-4.82-3.08-7.56-.35-2.4-.47-5.96,1.1-7.98Z"/><path class="cls-15_meditation-74" d="M210.92,43.6c-5.02,10.33-6.12,22.2-4.93,33.62,1.18,11.42,4.57,22.46,7.85,33.53.22.96.69,1.85,1.38,2.56.91.75,2.1.64,3.29.64l10.33-.55c.54.02,1.08-.11,1.55-.37.48-.52.75-1.21.75-1.92.18-2.28.36-4.49.55-6.74-1,2.47.46,5.39,2.65,6.85s5.02,1.83,7.67,1.83c4.65.1,9.29-.45,13.79-1.64.46-2.65.91-5.3,1.37-8.04-.75,3.83,2.83,7.4,6.67,8.24,3.84.84,7.76-.37,11.42-1.55,1.02-3.5,1.28-7.18.75-10.78-.82,3,1.56,6.3,4.58,7.22s6.3-.19,8.86-2.01c1.59-1.04,2.6-2.76,2.74-4.66,3.48-15.52,2.47-31.72-2.92-46.69-3.47-9.68-8.87-18.82-16.63-25.46-20.96-17.88-50.29-7.38-61.71,15.92Z"/><path class="cls-16_meditation-74" d="M269.77,127.08c-.18.85-.24,1.73-.18,2.6-10.06,11.85-22.46,4.93-27.79.95.34-1.5.51-3.04.53-4.58,1.03-7.88,1.75-13.56.57-16.76.18-.18.36-.46.55-.64,3.29,2.74,7.12,4.75,11.23,4.84,4.84,0,9.14-2.74,12.42-6.39.27,10.21,2.85,19.16,2.67,19.98Z"/><path class="cls-7_meditation-74" d="M269.77,127.08c-.18.85-.24,1.73-.18,2.6-10.06,11.85-22.46,4.93-27.79.95.34-1.5.51-3.04.53-4.58,1.03-7.88,1.75-13.56.57-16.76.18-.18.36-.46.55-.64,3.29,2.74,7.12,4.75,11.23,4.84,4.84,0,9.14-2.74,12.42-6.39.27,10.21,2.85,19.16,2.67,19.98Z"/><path class="cls-16_meditation-74" d="M242.72,109.38l.09-.09c0-.09,0,0-.09.09Z"/><path class="cls-16_meditation-74" d="M277.07,73.84c-.28,10.6-1.83,21.56-7.76,30.42-.68.98-1.41,1.93-2.19,2.83-3.29,3.65-7.59,6.39-12.42,6.39-4.21,0-8.04-2.1-11.23-4.84-.09-.1-.19-.1-.28-.19l-.37.75c-.4-1.04-1.02-1.97-1.83-2.74-7.79-7.74-13.21-17.54-15.63-28.25-2.37-10.42-4.57-19.74,3.56-28.42,4.49-4.75,10.48-7.67,16.81-9.32,5.2-1.37,10.87-1.92,15.9-.09,6.21,2.25,10.78,7.86,13.07,14.07,2.28,6.21,2.46,12.8,2.37,19.38Z"/><path class="cls-17_meditation-74 targetColor" d="M371.36,337.97c-4.82,4.14-10.77,6.72-17.09,7.4-60.3,5.67-51.43-5.94-92.37-5.02-2.01.04-3.98.15-5.92.31-38.13,3-64.45,25.25-98.84,10.3-7.87-3.4-9.53-13.27-8.43-22.91.49-4.19,1.45-8.3,2.86-12.27,4.2-11.7,13.43-21.2,23.96-27.95,6.97-4.38,14.36-8.05,22.05-10.97,5.48-2.19,11.05-4.93,16.99-5.48,17.27-1.74,34.99-1.37,52.26-2.01,10.05-.46,20.1-.82,30.06-1.19,3.17-.21,6.36-.06,9.5.46,2.58.66,5.06,1.65,7.4,2.93,19.42,9.6,37.56,21.6,53.99,35.72,4.49,3.84,9.05,8.24,10.23,14.07,1.19,6.12-1.92,12.61-6.66,16.63Z" style="fill: rgb(255, 153, 33);"/><path class="cls-13_meditation-74" d="M341.18,323.37l-17.16-1.41c-1-.2-2.03-.04-2.92.45-.55.52-1.03,1.11-1.42,1.76-1.92,2.4-5.59,2.19-8.39,3.47-2.32,1.06-3.99,3.11-5.58,5.1-2.32,2.91-4.74,6.04-5.09,9.73,3,.61,2.01,1.96,4.99,2.57-16.32-1.5-33.01-6.34-50.07-4.46,12.78-4.76,19.85-8.68,52.73-19.72,4.69-1.58-3.94-8.29.75-9.93s9.55-1.55,14.41-1.5c7,.12,14.04.24,20.97,1.37,3.9.64,10.61,3,9.2,8.24-1.35,5.01-8.57,4.65-12.42,4.33Z"/><path class="cls-14_meditation-74" d="M309.69,319.42l-51.75,19.96-1.95,1.27c-38.13,3-64.45,25.25-98.84,10.3-7.87-3.4-9.53-13.27-8.43-22.91,10.83,16.39,29.01,11.34,29.01,11.34,5.63,3.09,124.45-28.29,124.45-28.29-.51,2.75,6.35,4.49,6.35,4.49l1.15,3.83Z"/><path class="cls-12_meditation-74" d="M191.6,303.27c5.24-1.77,10.67-6.95,16.14-7.77,3.17-.48,6.21-1.62,9.34-2.35,6.63-1.52,13.56-1.1,19.96,1.21,2.16.75,4.25,1.77,6.47,2.4,3.05.76,6.19,1.09,9.33.97,16.01-.13,28.2-2.73,42.04-10.77.96-.56,2.01-1.16,3.11-1.01.84.24,1.65.58,2.4,1.03,3,1.33,6.39-.51,9.67-.94,3.83-.51,7.63.95,11.23,2.43,4.77,1.98,13.58,8.63,18.26,10.79,1.74.79,3.65,1.81,4.19,3.65-1.39,1.23-3.41,1.28-5.24,1.27l-21.56-.14c-3.8,0-7.66-.07-11.28-1.22-2.67-.85-5.14-2.3-7.85-3-3.14-.84-6.47-.68-9.73-.41-14.7,1.2-29.17,4.36-43.03,9.4-2.56,1.05-5.22,1.86-7.93,2.42-3.34.55-6.74.24-10.12,0-8.77-.68-17.56-.99-26.36-.94-2.88,0-9.39,2.07-11.98.44-3.84-2.44.17-6.51,2.95-7.44Z"/><path class="cls-18_meditation-74" d="M251.58,341.79c17.73-8.38,36.17-15.2,55.09-20.37,1.19-.37,2.65-.82,3-2.01.15-.63.12-1.3-.09-1.92-1.28-5.3-4.11-10.05-6.95-14.71-1.92-3.11-3.83-4.39-7.58-3.93-18.92,2.37-37.58,6.5-55.73,12.33"/><path class="cls-16_meditation-74" d="M311.51,314.76c13.08-4.27,27.36-2.77,39.28,4.11,1.5.91,3,1.92,4.75,2.01s3.74-1,3.83-2.74c.09-1.55-1.37-2.83-2.74-3.56-2.08-1.1-4.38-1.73-6.74-1.83-1.83-5.85-7.67-9.5-13.34-11.98s-11.79-4.66-15.72-9.41c-1.09-1.27-2.19-2.92-3.83-3.1-1.28-.19-2.47.55-3.47,1.27-3.83,2.93-6.21,7.67-10.6,9.69-1.37,2.65-2.28,5.66-1.46,8.49.85,2.89,2.73,5.37,5.29,6.95,1.49.71,3.22.75,4.74.1Z"/><path class="cls-16_meditation-74" d="M235.59,302.15c-2.1-.75-4.38,0-6.57.55-2.52.57-5.09.88-7.67.91-2.92,0-5.94-.36-8.87.1-2.16.44-4.28,1.12-6.3,2.01-5.68,2.1-11.52,3.75-17.45,4.93-1.92.37-4.29,1.09-4.66,3s1.74,3.56,3.65,3.65,3.83-.64,5.76-.91c2.04-.18,4.1-.09,6.12.27,7.32.7,14.67,1.04,22.02,1,1.71.06,3.43-.06,5.11-.36,2.28-.55,4.29-2.01,6.39-3.11s8.13-2.47,9.05-4.93c.82-2.71-4.39-6.39-6.58-7.1Z"/><path class="cls-15_meditation-74" d="M245.73,63.43c.12.75.47,1.45,1,2.01.77.46,1.67.66,2.56.55l12.06-.28c1.83,0,3.74-.09,5.39-1s2.83-2.74,2.28-4.57c.09,1.64.09,3.38.19,5.02,4.38.37,8.77.82,13.25,1.18-1-8.49-2.84-16.99-6.85-24.49-4.01-7.5-10.48-13.97-18.64-16.53-8.17-2.46-17.02-.9-23.85,4.22-4.57,3.47-7.85,8.32-10.6,13.25-3.29,5.76-6.13,12.34-6.04,19.1.19,9.04,3.38,8.24,10.69,8.86,3.56.28,9.14,3.29,12.61,2.01,5.2-1.83,4.02-9.5,4.75-13.98.37,1.53.55,3.35,1.19,4.63Z"/><path class="cls-17_meditation-74 targetColor" d="M226.79,41.23c6.74-4.84,15.17-7.13,23.57-7.49,2.59-.19,5.19.09,7.67.82,2.19.9,4.25,2.1,6.12,3.56,3.17,2.12,6.14,4.54,8.87,7.22,5.71,5.95,8.75,13.96,8.43,22.2,1.27-1.65,1.64-3.74,1.83-5.85,1.54-19.1-12.69-35.83-31.79-37.37-2.19-.18-4.39-.15-6.58.1-5.04.62-9.93,2.14-14.44,4.49-1.87.89-3.64,1.96-5.3,3.2-5.02,3.74-8.4,9.41-10.05,15.35-1,3.56-1.83,7.76-1.28,11.42,2.29-1.5,3.11-6.48,4.58-8.87,2.25-3.4,5.09-6.37,8.37-8.78Z" style="fill: rgb(255, 153, 33);"/><path class="cls-16_meditation-74" d="M147.67,251.75c-2.37-1.65-11.85-4.23-14.41-5.6-4.2-2.19-8.5-3.38-13.16-1.37-4.11,1.83-7.22,5.94-7.4,10.42-.1,2.55.55,5.48-1.01,7.58-.79.93-1.79,1.65-2.92,2.1-3.12,1.54-6.4,2.72-9.78,3.53-1.27.24-2.48.74-3.56,1.46-1.01.82-1.5,2.47-.75,3.47s1.92,1,3,1c4.01,0,7.99-.64,11.79-1.92-3.74,2.19-7.05,5.03-9.78,8.4,2.37,1.1,5.24.46,7.76-.18,10.87-2.86,21.36-7,31.25-12.33,6.98-3.72,17.36-10.81,8.96-16.57ZM128.29,256.05c-.12.68-.52,1.28-1.09,1.65-.44.24-.93.38-1.44.41-.46.1-.93.1-1.39,0-.41-.16-.79-.4-1.12-.7-.6-.42-1.09-.97-1.45-1.6-.24-.6-.33-1.25-.25-1.89.02-1.01.36-1.99.98-2.79.85-.96,1.77-.85,2.84-.52s2.03.5,2.58,1.65c.23.57.36,1.18.38,1.8.09.66.07,1.34-.04,2Z"/><path class="cls-16_meditation-74" d="M414.11,271.92c-8.5.46-18.09.55-24.21-5.3-4.02-3.74-5.85-9.41-10.15-12.73-3.28-2.49-7.56-3.28-11.51-2.1-3.12.97-6.49,3.2-7.64,6.17-.45,1.24-1.68,2.03-3,1.92h0c-4.49.75-4.55,3.39-6.57,5.4-2.01,2.01-1.72,6.74-.75,9.36.64,1.64,2.19,2.64,3.74,3.56,9.81,5.69,20.92,8.74,32.25,8.87.62.09,1.24-.08,1.74-.46.75-.75.09-2.1-.82-2.74s-2.01-1.19-2.38-2.19c5.99,2.89,12.75,3.78,19.28,2.56v-2.56c-3.52-.36-6.9-1.55-9.87-3.47,5.94.35,11.89-.41,17.54-2.25,1.01-.18,1.92-.71,2.56-1.5.68-.7.68-2.07-.23-2.52ZM375.71,263.55c-.55.96-1.55,1.58-2.65,1.65-1.09.05-2.17-.16-3.16-.61-1.35-.31-2.2-1.66-1.88-3.02.02-.11.06-.21.09-.31.08-.9.42-1.76.97-2.47.37-.38.82-.68,1.31-.88,1.39-.63,3.17-.75,4.34.25.96.93,1.45,2.24,1.33,3.57,0,.63-.11,1.25-.35,1.83h0Z"/><path class="cls-18_meditation-74" d="M219.69,172.61c1.37,5.66-.64,11.6-2.37,17.17s-3.38,11.7-1.37,17.18c.75,1.92,1.74,3.56,2.28,5.58.55,2.01.19,4.29-1.37,5.48"/><path class="cls-18_meditation-74" d="M300.73,164.57c-3.29,4.2,14.53,19,1.09,57.37"/><path class="cls-10_meditation-74" d="M201.15,219.59c-2.54,4.48-5.55,8.68-8.99,12.52-8.36,8.99-19.98,14.29-31.76,17.72-4.24,1.24-9.55,3.55-9.23,7.96.2,2.79,2.91,4.86,5.65,5.31,2.75.45,5.54-.33,8.24-1.1l12.31-3.57c8.41-2.43,17.11-5.02,23.68-10.8,5.99-5.31,9.64-12.8,12.55-20.28,2.1-5.41,3.92-11.23,2.82-16.94-.52-2.72-1.7-5.28-2.25-8-.6-3-.22-6.27.19-9.25-5.03,8.07-8.19,18-13.21,26.42Z"/><path class="cls-11_meditation-74" d="M317.71,241.26c4.88,10.39,12.68,19.14,22.46,25.15,1.8,1.1,3.92,2.59,3.74,4.69-.16,1.58-1.74,2.72-3.32,2.9-1.6.07-3.19-.28-4.61-1-12.98-5.51-23.32-15.81-28.88-28.77-4.55-10.75-6.61-26.03-1.68-37,3.86,1.55,5.07,11.77,6.15,15.66,1.69,6.23,3.41,12.5,6.15,18.38Z"/><path class="cls-6_meditation-74" d="M227.54,238.52c.85,4.56,1.98,9.06,3.38,13.48,1.33,4.55,2.83,9.34,6.37,12.5,2.6,2.31,5.99,3.45,9.37,4.37,1.07.22,2.09.65,3,1.27.92.66,1.32,1.84.98,2.92-.59,1.39-2.46,1.57-3.98,1.5-8.39-.33-16.74-1.33-24.97-3-.6-.08-1.18-.29-1.71-.6-1.28-.89-1.3-2.75-1.19-4.31.85-11.39,1.5-22.64.66-34.05-.14-2.03.37-8.55,4.07-7.54,3.27.95,3.56,10.81,4.02,13.46Z"/><path class="cls-3_meditation-74" d="M266.47,274.93c16.06-.13,32.12-.63,48.16-1.5-1.24-2.71-4.33-4.06-7.25-4.63s-6.21-1.5-9.07-.75c-3.42.9-6.74,2.51-10.2,3.44-6.99,1.94-14.45,3.38-21.65,3.44Z"/><path class="cls-17_meditation-74 targetColor" d="M240.96,127.76s11.98,15.44,29.84,0l2.4,3.74s-9.43,14.58-22.46,9.43c-13.03-5.14-12.72-10.6-12.72-10.6l2.94-2.58Z" style="fill: rgb(255, 153, 33);"/><path class="cls-4_meditation-74" d="M240.96,127.76s11.98,15.44,29.84,0l2.4,3.74s-9.43,14.58-22.46,9.43c-13.03-5.14-12.72-10.6-12.72-10.6l2.94-2.58Z"/></g><path id="shadow_meditation-74" class="cls-5_meditation-74" d="M168.08,392.12c-2.49.98-5.08,2.01-6.87,4-1.8,1.98-2.53,5.24-.92,7.35,1.61,2.1,4.66,2.33,7.32,2.34l121.54.83c5.25.14,10.5-.04,15.72-.52,14.14-1.59,27.35-7.64,40.26-13.61,1.62-.75,3.42-1.71,3.82-3.45.61-2.69-2.5-4.63-5.13-5.44-16.65-5.1-34.5-1.28-51.71,1.32-21.5,3.24-43.25,4.51-64.98,3.8-10.86-.36-21.68-1.21-32.47-2.55-10.55-1.31-16.77,2.09-26.58,5.93Z"/></svg>