<svg version="1.1" id="Layer_1" xmlns="http://www.w3.org/2000/svg" xmlns:xlink="http://www.w3.org/1999/xlink" x="0px" y="0px" viewBox="0 0 500 500" style="width: 157px;" xml:space="preserve" data-imageid="swim-suit-2" imageName="Swim Suit" class="illustrations_image">
<style type="text/css">
	.st0_swim-suit-2{fill:#D9E021;}
	.st1_swim-suit-2{fill:url(#SVGID_1_);}
	.st2_swim-suit-2{fill:url(#SVGID_00000010288487640898306040000002738214441592176544_);}
	.st3_swim-suit-2{fill:url(#SVGID_00000177454063023813476030000009250387681488786049_);}
	.st4_swim-suit-2{fill:url(#SVGID_00000141413788524382048070000003102845395722191777_);}
	.st5_swim-suit-2{fill:#589AA5;}
	.st6_swim-suit-2{fill:#68E1FD;}
	.st7_swim-suit-2{fill:url(#SVGID_00000089563522116852442100000017613974412873470603_);}
	.st8_swim-suit-2{fill:#F7BF9E;}
	.st9_swim-suit-2{opacity:0.3;fill:#FF912E;enable-background:new    ;}
	.st10_swim-suit-2{fill:#ED1E79;}
	.st11_swim-suit-2{fill:#FF912E;}
	.st12_swim-suit-2{opacity:0.15;fill:#589AA5;enable-background:new    ;}
	.st13_swim-suit-2{opacity:0.7;fill:#589AA5;enable-background:new    ;}
	.st14_swim-suit-2{fill:#006837;}
	.st15_swim-suit-2{fill:#42352F;}
	.st16_swim-suit-2{fill:#FFFFFF;}
	.st17_swim-suit-2{opacity:0.67;}
	.st18_swim-suit-2{opacity:0.4;fill:#589AA5;enable-background:new    ;}
	.st19_swim-suit-2{fill:#0071BC;}
</style>
<g id="background_swim-suit-2">
	<path class="st0_swim-suit-2" d="M243.6,411.9l-223.4-132c-7.1-4-13.2-10.5-6.3-14.8l224.2-129.2c3.4-2.1,8.5-3.4,11.9-1.5l234.5,136.1&#10;&#9;&#9;c7.1,4.1,8.4,15.7,1.3,19.8L273,411.7C263.9,417,252.7,417.1,243.6,411.9z"/>
	
		<linearGradient id="SVGID_1_-swim-suit-2" gradientUnits="userSpaceOnUse" x1="189.1915" y1="265.9978" x2="100.8715" y2="205.6878" gradientTransform="matrix(1 0 0 -1 0 502)">
		<stop offset="0" style="stop-color:#589AA5"/>
		<stop offset="1" style="stop-color:#D9E021;stop-opacity:0"/>
	</linearGradient>
	<polyline class="st1_swim-suit-2" points="157.5,224.1 54.7,296.4 100.7,321.1 201.7,261 &#9;"/>
	
		<linearGradient id="SVGID_00000082364855109723724530000006221382011747629238_-swim-suit-2" gradientUnits="userSpaceOnUse" x1="276.109" y1="175.0613" x2="217.389" y2="127.8713" gradientTransform="matrix(1 0 0 -1 0 502)">
		<stop offset="0" style="stop-color:#589AA5"/>
		<stop offset="1" style="stop-color:#D9E021;stop-opacity:0"/>
	</linearGradient>
	<polyline style="fill:url(#SVGID_00000082364855109723724530000006221382011747629238_);" points="197.9,337.5 160,357.4 &#10;&#9;&#9;240.3,403 312.6,360.5 &#9;"/>
	
		<linearGradient id="SVGID_00000140709158831820799630000002476821120807199921_-swim-suit-2" gradientUnits="userSpaceOnUse" x1="400.4698" y1="241.8604" x2="335.3897" y2="205.6605" gradientTransform="matrix(1 0 0 -1 0 502)">
		<stop offset="0" style="stop-color:#589AA5"/>
		<stop offset="1" style="stop-color:#D9E021;stop-opacity:0"/>
	</linearGradient>
	<path style="fill:url(#SVGID_00000140709158831820799630000002476821120807199921_);" d="M385.5,266.8l-16.9-7.6l-56,31.2&#10;&#9;&#9;c8.3,8.9,19.1,14.9,30.2,20.6l51.5-29.9C393.3,275.1,387.4,272.4,385.5,266.8z"/>
	
		<linearGradient id="SVGID_00000013181792010499541010000006564505619165862062_-swim-suit-2" gradientUnits="userSpaceOnUse" x1="427.7496" y1="216.0605" x2="387.3396" y2="188.4706" gradientTransform="matrix(1 0 0 -1 0 502)">
		<stop offset="0" style="stop-color:#589AA5"/>
		<stop offset="1" style="stop-color:#D9E021;stop-opacity:0"/>
	</linearGradient>
	<polyline style="fill:url(#SVGID_00000013181792010499541010000006564505619165862062_);" points="401.8,290.2 363.9,310.1 &#10;&#9;&#9;394.2,326.4 435.4,300.2 &#9;"/>
</g>
<g id="character_swim-suit-2">
	<ellipse class="st5_swim-suit-2" cx="257.3" cy="348" rx="63.8" ry="25.2"/>
	<ellipse class="st6_swim-suit-2 targetColor" cx="257.3" cy="343" rx="63.8" ry="25.2" style="fill: rgb(255, 197, 128);"/>
	
		<linearGradient id="SVGID_00000010286612897197342900000003292915479502603930_-swim-suit-2" gradientUnits="userSpaceOnUse" x1="247.5991" y1="159.811" x2="227.9091" y2="142.371" gradientTransform="matrix(1 0 0 -1 0 502)">
		<stop offset="0" style="stop-color:#589AA5"/>
		<stop offset="1" style="stop-color:#68E1FD;stop-opacity:0"/>
	</linearGradient>
	<path style="fill:url(#SVGID_00000010286612897197342900000003292915479502603930_);" d="M221.8,364.1c4.3,0.9,8.7,1.5,13.1,1.7&#10;&#9;&#9;l30.4-19.8l-21.7-6.8c-11.9,6.6-24,13-36.1,19.3C211.4,361.8,216.8,363.1,221.8,364.1z"/>
	<path class="st8_swim-suit-2" d="M290.5,229.5c-0.2-3.8,3-31.9,2.3-37.5s4.6-55.7-8.8-64.3c-2-1.3-6.6-1.8-8-1.3c-7.1,6.2-1.4,16.3,0.7,24.4&#10;&#9;&#9;c1.5,6.2,0.9,12.6,0.4,18.8c-0.4,6.2-0.2,12.5,0.7,18.6c0.6,5.2,1.7,10.7,1.7,16c0.6,9.2,2.7,25.1,2.7,25.1s-8,18.5-5,19.4&#10;&#9;&#9;s6.4-12.9,6.3-8.7s0.5,12.6-1.8,16s-0.7,4.5,4.9,0.1s6.6-6.1,6.9-11.8S290.8,233.3,290.5,229.5z"/>
	<path class="st8_swim-suit-2" d="M276.3,126.1c-3.2-0.3-6.5-0.4-9.7-0.7s-6.1-0.8-9-0.9c-0.1,0.2-0.3,0.3-0.5,0.4c-0.9,0.5-1.8,1.1-2.6,1.8&#10;&#9;&#9;c-0.2,0.2-0.5,0.2-0.7,0.1c-4,5.2-10.1,13.3-9.9,13.8c0.2,0.7,5,24.1,13.3,25.2s24.5-11.6,24.6-20.4&#10;&#9;&#9;C281.9,140.6,279,132.6,276.3,126.1z"/>
	<path class="st8_swim-suit-2" d="M242.8,152.1c-0.6,3.9-3.1,21.4-3.5,22.4c-1.8,5.3-4,33.5-5,37.2s-4.9,8.3-5.7,13.9s-0.2,7.5,4.4,13&#10;&#9;&#9;s6.5,4.6,4.9,0.9s0.6-11.9,1.3-16.1s1.3,9.9,4.5,9.7s-1.1-19.9-1.1-19.9s5.1-15.3,7.4-24.1c1.8-6.9,5.4-17,7.2-23.4&#10;&#9;&#9;C251.8,165.8,248.2,151.5,242.8,152.1z"/>
	<path class="st9_swim-suit-2" d="M242.8,152.1c-0.6,3.9-3.1,21.4-3.5,22.4c-1.8,5.3-4,33.5-5,37.2s-4.9,8.3-5.7,13.9s-0.2,7.5,4.4,13&#10;&#9;&#9;s6.5,4.6,4.9,0.9s0.6-11.9,1.3-16.1s1.3,9.9,4.5,9.7s-1.1-19.9-1.1-19.9s5.1-15.3,7.4-24.1c1.8-6.9,5.4-17,7.2-23.4&#10;&#9;&#9;C251.8,165.8,248.2,151.5,242.8,152.1z"/>
	<path class="st8_swim-suit-2" d="M237.6,206.4c0,0,7.8,29.9,8.8,35.1s7.9,21.8,9.3,28s12.3,42.8,10.9,47.8s-6.1,19.2-9,21.7s-6,3.6-4.8,6.2&#10;&#9;&#9;s5.4,3.7,10.5,1.8s7.6-9.8,11.5-12.1s8.5-6.2,6.9-10.7s-5.1-9.4-5.7-12.1s1.5-39.1-4.5-51.3s3.6-59.7-8.6-77.9&#10;&#9;&#9;S232.9,179.2,237.6,206.4z"/>
	<path class="st9_swim-suit-2" d="M237.6,206.4c0,0,7.8,29.9,8.8,35.1s7.9,21.8,9.3,28s12.3,42.8,10.9,47.8s-6.1,19.2-9,21.7s-6,3.6-4.8,6.2&#10;&#9;&#9;s5.4,3.7,10.5,1.8s7.6-9.8,11.5-12.1s8.5-6.2,6.9-10.7s-5.1-9.4-5.7-12.1s1.5-39.1-4.5-51.3s3.6-59.7-8.6-77.9&#10;&#9;&#9;S232.9,179.2,237.6,206.4z"/>
	<path class="st8_swim-suit-2" d="M249.9,213.1c0,0-0.3,30.8-0.6,36.1s1.9,23.1,1.7,29.5s0.7,44.5-1.9,49s-10.9,17-14.4,18.6s-6.7,1.9-6.3,4.7&#10;&#9;&#9;s4.2,5,9.6,4.5s9.9-7.4,14.2-8.6s9.8-3.8,9.5-8.5s-2.5-10.4-2.3-13.1s11.6-37.3,9.1-50.7s19.1-56.7,12-77.4S249,206.2,249.9,213.1z&#10;&#9;&#9;"/>
	<path class="st10_swim-suit-2" d="M272.5,146.5c-1.3-6,5.7-18,5.2-19.8c-0.1-0.2-0.1-0.3-0.2-0.5c-1.9-0.2-3.9-0.3-5.8-0.4&#10;&#9;&#9;c-2.3,3.2-3.9,5.4-5.2,9.7c-1.6,5.5-7.5,10.5-13.6,8.8c-4.7-1.4-4.6-6.1-1.2-11.1c1.4-2.1,5.6-7.7,6.3-8.8h-0.4&#10;&#9;&#9;c-1.6,0-3.1,0.7-4.1,1.9c-2.6,3-5.4,5.9-8,9s-5.4,6.6-6.6,10.4c-1.1,3.7,0.1,7.5,1.7,10.9c1.3,2.6,2.1,5.4,2.2,8.3&#10;&#9;&#9;c0.1,4.9-0.3,9.8-1.3,14.6c-0.9,5-2.1,10.1-1.7,15.2c0.6,9.1,8.1,20.9,11.5,21.7s6.8-13.8,15.7-18s13.8,0,13.8,0s-3.9-8.9-7-14.4&#10;&#9;&#9;s1.8-26.6,3.7-30C277.6,154.1,273.8,152.4,272.5,146.5z"/>
	<path class="st8_swim-suit-2" d="M255.7,111.1c1.1,3.1,2,6.3,2.6,9.6c0.7,2.9,1.7,5.6,2.4,8.3l13.8-5.6l-6.9-17.2L255.7,111.1z"/>
	<path class="st9_swim-suit-2" d="M255.7,111.1c1.1,3.1,2,6.3,2.6,9.6c0.7,2.9,1.7,5.6,2.4,8.3l13.8-5.6l-6.9-17.2L255.7,111.1z"/>
	<path class="st11_swim-suit-2" d="M247.4,96.7c0,0,1.9-10.8,14.8-12.3c12.9-1.6,16.1,12.5,17,21.2s-1.6,18-1.6,18l-13.5,6.9&#10;&#9;&#9;c0,0,2.7-18.2-0.6-21.6s-8.6,7.4-8.6,10l-7.3,7.1C245.9,116.3,245.8,106.4,247.4,96.7z"/>
	<path class="st8_swim-suit-2" d="M249.9,100.1c0,0,1.9,11.9,2.6,13.8s4,8.5,6,8.9s9.5-4.1,10.9-7.8l0.5-2.7c0,0,5.5-5.5,2.4-6.9&#10;&#9;&#9;c-1.4-0.8-3.2-0.4-4,1c-0.1,0.1-0.2,0.3-0.2,0.4c-2.7,0.7-5.6,0.2-7.9-1.4C256.5,102.9,258,98.6,249.9,100.1z"/>
</g>
<g id="plant_swim-suit-2">
	<path class="st6_swim-suit-2 targetColor" d="M357.5,234.8c0,0-7.3,50,24.2,50.2c30.3,0.2,22.5-50.8,22.5-50.8S382.1,215.1,357.5,234.8z" style="fill: rgb(255, 197, 128);"/>
	<path class="st12_swim-suit-2" d="M357.5,234.8c0,0-7.3,50,24.2,50.2c30.3,0.2,22.5-50.8,22.5-50.8S382.1,215.1,357.5,234.8z"/>
	<ellipse class="st6_swim-suit-2 targetColor" cx="380.8" cy="234.8" rx="23.3" ry="9.6" style="fill: rgb(255, 197, 128);"/>
	<ellipse class="st13_swim-suit-2" cx="380.8" cy="234.8" rx="23.3" ry="9.6"/>
	<path class="st14_swim-suit-2" d="M344.1,161.8c0,0-16.2-3.9-10-17.4C334.1,144.4,345.3,146.6,344.1,161.8z"/>
	<path class="st14_swim-suit-2" d="M354,175.4c0,0-2.2-11.5,6.8-16.2C360.7,159.2,368,171.3,354,175.4z"/>
	<path class="st14_swim-suit-2" d="M364.1,193.1c0,0-2.7-13.8,8.1-19.4C372.2,173.7,380.8,188.2,364.1,193.1z"/>
	<path class="st14_swim-suit-2" d="M371.9,212.4c0,0-2.7-13.8,8.1-19.4C380,193,388.7,207.5,371.9,212.4z"/>
	<path class="st14_swim-suit-2" d="M353,175.7c0,0-5.7-10.3-15.6-8C337.4,167.7,339.6,181.6,353,175.7z"/>
	<path class="st14_swim-suit-2" d="M363.2,193.5c0,0-7.3-12-19-8.9C344.2,184.7,347.5,201.2,363.2,193.5z"/>
	<path class="st14_swim-suit-2" d="M371,212.5c0,0-8.6-11.1-19.9-6.7C351.1,205.9,356.3,221.9,371,212.5z"/>
	<path class="st15_swim-suit-2" d="M377.1,244.6h0.2c0.8,0,1.5,0,2.3,0.2c0-0.1,0-0.2,0-0.2c-3.6-30.9-15.7-60.1-35-84.5c-1-1.3-2.8,0.5-1.8,1.8&#10;&#9;&#9;C361.7,185.7,373.5,214.3,377.1,244.6C377,244.5,377.1,244.6,377.1,244.6z"/>
	<path class="st14_swim-suit-2" d="M415.5,183.8c0,0,13.9-3.3,8.6-14.9C424.1,168.9,414.5,170.8,415.5,183.8z"/>
	<path class="st14_swim-suit-2" d="M407,195.5c0,0,1.9-9.9-5.8-13.9C401.2,181.6,395,192,407,195.5z"/>
	<path class="st14_swim-suit-2" d="M398.4,210.7c0,0,2.3-11.8-6.9-16.6C391.4,194.1,384,206.5,398.4,210.7z"/>
	<path class="st14_swim-suit-2" d="M391.6,227.2c0,0,2.3-11.8-7-16.6C384.7,210.6,377.2,223,391.6,227.2z"/>
	<path class="st14_swim-suit-2" d="M407.9,195.8c0,0,4.9-8.8,13.4-6.9C421.3,188.9,419.3,200.8,407.9,195.8z"/>
	<path class="st14_swim-suit-2" d="M399.1,211.1c0,0,6.3-10.3,16.3-7.6C415.4,203.5,412.5,217.6,399.1,211.1z"/>
	<path class="st14_swim-suit-2" d="M392.4,227.4c0,0,7.4-9.6,17.1-5.8C409.5,221.6,405,235.4,392.4,227.4z"/>
	<path class="st15_swim-suit-2" d="M415,182.4c-14.3,18.1-24.1,39.3-28.4,62c0.7-0.1,1.5-0.2,2.2-0.3c4.3-22,13.8-42.6,27.7-60.2&#10;&#9;&#9;C417.5,182.8,415.9,181.3,415,182.4z"/>
</g>
<g id="ball_swim-suit-2">
	<circle class="st16_swim-suit-2" cx="419.8" cy="277.1" r="27.5"/>
	<path class="st11_swim-suit-2" d="M400.1,279.4c1.2-11.2,6.7-23.6,16.6-29.6c-15.1,1.7-25.9,15.2-24.2,30.3c0.9,8.3,5.6,15.8,12.7,20.2&#10;&#9;&#9;C401.1,294.2,399.3,286.7,400.1,279.4z"/>
	<path class="st11_swim-suit-2" d="M427.5,298.8c1.4-6.1,2.6-12.1,2.3-18.4c-0.7-10.8-3.9-21.3-9.3-30.7c-6,4.4-8.2,14-9.5,20.6&#10;&#9;&#9;c-2.5,12.2-1.3,24,6,34.1c0.9,0.1,1.9,0.2,2.9,0.2c2.2,0,4.4-0.3,6.5-0.8C426.8,302.1,427.1,300.4,427.5,298.8z"/>
	<path class="st11_swim-suit-2" d="M435.2,258.6c4.4,5.3,7.3,11.7,8.5,18.5c0.8,6-0.2,12.1-2.8,17.5c9.7-11.6,8.1-28.9-3.5-38.6&#10;&#9;&#9;c-3.2-2.7-6.9-4.6-11-5.6C430,252.3,432.9,255.8,435.2,258.6z"/>
</g>
<g id="swimming_suit_swim-suit-2">
	<path class="st6_swim-suit-2 targetColor" d="M149.5,116.9v118.2c0,1.3,0.7,2.6,1.9,3.2l44.8,25.8c1.8,1,4,0.4,5.1-1.4c0.3-0.6,0.5-1.2,0.5-1.9V143&#10;&#9;&#9;c0-1.3-0.7-2.6-1.9-3.2l-44.8-26c-1.8-1-4.1-0.4-5.1,1.3C149.7,115.6,149.5,116.3,149.5,116.9z" style="fill: rgb(255, 197, 128);"/>
	<path class="st14_swim-suit-2" d="M191.7,213.8c-0.6-2.4-1.2-4.8-1.7-7.2c-0.5-2.8-0.7-5.6-0.8-8.4c-0.1-1.8-0.1-3.5-0.1-5.3&#10;&#9;&#9;c0.1-2.7,0.5-5.3,0.7-8c0.1-1,0.1-1,0.1-1c0-0.3,0.1-0.7,0.1-1.1c-0.8-10.1-2.2-23.6-2.9-34.4c-2-0.8-3.9-1.9-5.7-3.1&#10;&#9;&#9;c-1.1,6-2,20.9-7.1,18.9c-6.3-2.5-8.8-25.8-10.1-27.6c-1.2-1.2-2.6-2.1-4.2-2.7c-0.1,2.2-0.1,4.5-0.1,6.8&#10;&#9;&#9;c0.1,10.5,0.9,21.6-0.9,31.1c0.3,2.2,0.6,4.4,0.8,6.6c0.5,5.2,0.6,10.4,0.4,15.7c-0.1,3.4-0.6,6.7-1.3,10c-0.2,0.8-0.1,1.7,0.2,2.5&#10;&#9;&#9;c0.5,1.3,1,2.7,1.6,4c1.1,2.3,2.2,4.5,3.2,6.8c2.5,6,4.9,12.1,7.3,18.1c0.7,1.8,1.5,3.6,2.4,5.4c0.3,0.7,0.8,1.3,1.5,1.7&#10;&#9;&#9;c0.1,0,0.3,0.1,0.4,0.1c0.5,0.1,1,0.2,1.5,0.4c0.4,0.2,0.8,0.4,1.2,0.6l0.2,0.1c0.4,0.2,0.8,0.2,1.2,0c1-0.7,1.8-1.7,2.1-2.9&#10;&#9;&#9;c1.4-3.6,2.8-7.2,4.2-10.8c0.8-2.3,2-4.4,3.5-6.3c1.2-1.5,2.1-3.2,2.7-5.1c0.3-0.8,0.3-1.6,0.1-2.3&#10;&#9;&#9;C192.1,215.5,191.9,214.6,191.7,213.8z"/>
	<g class="st17_swim-suit-2">
		<path class="st5_swim-suit-2" d="M149.5,116.9v118.2c0,1.3,0.7,2.6,1.9,3.2l44.8,25.8c1.8,1,4,0.4,5.1-1.4c0.3-0.6,0.5-1.2,0.5-1.9V143&#10;&#9;&#9;&#9;c0-1.3-0.7-2.6-1.9-3.2l-44.8-26c-1.8-1-4.1-0.4-5.1,1.3C149.7,115.6,149.5,116.3,149.5,116.9z"/>
		<path class="st5_swim-suit-2" d="M191.7,213.8c-0.6-2.4-1.2-4.8-1.7-7.2c-0.5-2.8-0.7-5.6-0.8-8.4c-0.1-1.8-0.1-3.5-0.1-5.3&#10;&#9;&#9;&#9;c0.1-2.7,0.5-5.3,0.7-8c0.1-1,0.1-1,0.1-1c0-0.3,0.1-0.7,0.1-1.1c-0.8-10.1-2.2-23.6-2.9-34.4c-2-0.8-3.9-1.9-5.7-3.1&#10;&#9;&#9;&#9;c-1.1,6-2,20.9-7.1,18.9c-6.3-2.5-8.8-25.8-10.1-27.6c-1.2-1.2-2.6-2.1-4.2-2.7c-0.1,2.2-0.1,4.5-0.1,6.8&#10;&#9;&#9;&#9;c0.1,10.5,0.9,21.6-0.9,31.1c0.3,2.2,0.6,4.4,0.8,6.6c0.5,5.2,0.6,10.4,0.4,15.7c-0.1,3.4-0.6,6.7-1.3,10&#10;&#9;&#9;&#9;c-0.2,0.8-0.1,1.7,0.2,2.5c0.5,1.3,1,2.7,1.6,4c1.1,2.3,2.2,4.5,3.2,6.8c2.5,6,4.9,12.1,7.3,18.1c0.7,1.8,1.5,3.6,2.4,5.4&#10;&#9;&#9;&#9;c0.3,0.7,0.8,1.3,1.5,1.7c0.1,0,0.3,0.1,0.4,0.1c0.5,0.1,1,0.2,1.5,0.4c0.4,0.2,0.8,0.4,1.2,0.6l0.2,0.1c0.4,0.2,0.8,0.2,1.2,0&#10;&#9;&#9;&#9;c1-0.7,1.8-1.7,2.1-2.9c1.4-3.6,2.8-7.2,4.2-10.8c0.8-2.3,2-4.4,3.5-6.3c1.2-1.5,2.1-3.2,2.7-5.1c0.3-0.8,0.3-1.6,0.1-2.3&#10;&#9;&#9;&#9;C192.1,215.5,191.9,214.6,191.7,213.8z"/>
	</g>
	<path class="st6_swim-suit-2 targetColor" d="M117.1,134.5v118.2c0,1.3,0.7,2.6,1.9,3.2l44.8,25.8c1.8,1,4.1,0.4,5.1-1.4c0.3-0.6,0.5-1.2,0.5-1.9v-118&#10;&#9;&#9;c0-1.3-0.7-2.6-1.9-3.2l-44.8-26c-1.8-1-4.1-0.4-5.1,1.3C117.2,133.2,117.1,133.9,117.1,134.5z" style="fill: rgb(255, 197, 128);"/>
	<path class="st18_swim-suit-2" d="M117.1,134.5v118.2c0,1.3,0.7,2.6,1.9,3.2l44.8,25.8c1.8,1,4.1,0.4,5.1-1.4c0.3-0.6,0.5-1.2,0.5-1.9v-118&#10;&#9;&#9;c0-1.3-0.7-2.6-1.9-3.2l-44.8-26c-1.8-1-4.1-0.4-5.1,1.3C117.2,133.2,117.1,133.9,117.1,134.5z"/>
	<path class="st0_swim-suit-2" d="M159.2,231.4c-0.6-2.4-1.2-4.8-1.7-7.2c-0.5-2.8-0.7-5.6-0.8-8.4c-0.1-1.8-0.1-3.5-0.1-5.3&#10;&#9;&#9;c0.1-2.7,0.5-5.3,0.7-8c0-0.3,0-0.7,0.1-1l0.1-1.1c-0.8-10.1-2.3-23.6-2.9-34.4c-2-0.8-3.9-1.9-5.7-3.1c-1.1,6-2,20.9-7.1,18.9&#10;&#9;&#9;c-6.3-2.5-8.8-25.8-10.1-27.6c-1.2-1.2-2.6-2.1-4.2-2.7c-0.1,2.2-0.1,4.5-0.1,6.8c0.1,10.5,0.9,21.6-0.9,31.1&#10;&#9;&#9;c0.3,2.2,0.6,4.4,0.8,6.6c0.5,5.2,0.6,10.4,0.4,15.7c-0.1,3.4-0.6,6.7-1.3,10c-0.2,0.8-0.1,1.7,0.2,2.5c0.5,1.3,1,2.7,1.6,4&#10;&#9;&#9;c1.1,2.3,2.2,4.5,3.2,6.8c2.5,6,4.9,12.1,7.3,18.1c0.7,1.8,1.5,3.6,2.4,5.4c0.3,0.7,0.8,1.3,1.5,1.7c0.1,0,0.3,0.1,0.4,0.1&#10;&#9;&#9;c0.5,0.1,1,0.2,1.5,0.5c0.4,0.2,0.8,0.4,1.2,0.6l0.2,0.1c0.4,0.2,0.8,0.2,1.2,0c1-0.7,1.8-1.8,2.1-3c1.4-3.6,2.8-7.2,4.2-10.8&#10;&#9;&#9;c0.8-2.3,2-4.4,3.5-6.3c1.2-1.5,2.1-3.2,2.8-5.1c0.3-0.8,0.3-1.6,0.1-2.3C159.6,233.1,159.4,232.2,159.2,231.4z"/>
	<path class="st6_swim-suit-2 targetColor" d="M83.3,155.3v118.2c0,1.3,0.7,2.6,1.9,3.2l44.8,25.8c1.8,1,4,0.4,5.1-1.4c0.3-0.6,0.5-1.2,0.5-1.9v-118&#10;&#9;&#9;c0-1.3-0.7-2.6-1.9-3.2L88.9,152c-1.8-1-4.1-0.4-5.1,1.3C83.5,153.9,83.3,154.6,83.3,155.3z" style="fill: rgb(255, 197, 128);"/>
	<path class="st10_swim-suit-2" d="M125.4,252.1c-0.6-2.4-1.2-4.8-1.7-7.2c-0.5-2.8-0.7-5.6-0.8-8.4c-0.1-1.8-0.1-3.5-0.1-5.3&#10;&#9;&#9;c0.2-2.7,0.5-5.3,0.7-8c0.1-1,0.1-1,0.1-1c0-0.3,0.1-0.7,0.1-1c-0.8-10-2.2-23.6-2.8-34.4c-2-0.8-3.9-1.9-5.7-3.1&#10;&#9;&#9;c-1.1,6-2,20.9-7.1,18.9c-6.3-2.6-8.8-25.8-10.1-27.7c-1.2-1.2-2.6-2.1-4.2-2.7c-0.1,2.2-0.1,4.5-0.1,6.8&#10;&#9;&#9;c0.1,10.5,0.9,21.6-0.9,31.1c0.3,2.2,0.6,4.4,0.8,6.6c0.5,5.2,0.6,10.4,0.3,15.7c-0.1,3.4-0.6,6.7-1.3,10c-0.2,0.9-0.1,1.8,0.2,2.6&#10;&#9;&#9;c0.5,1.3,1,2.7,1.6,4c1,2.3,2.2,4.5,3.2,6.8c2.5,6,4.9,12.1,7.3,18.1c0.7,1.8,1.5,3.6,2.4,5.4c0.3,0.7,0.8,1.3,1.5,1.7&#10;&#9;&#9;c0.1,0.1,0.3,0.1,0.4,0.1c0.5,0.1,1,0.3,1.5,0.5c0.4,0.2,0.8,0.4,1.2,0.6l0.2,0.1c0.4,0.2,0.8,0.2,1.2,0c1-0.7,1.8-1.7,2.1-2.9&#10;&#9;&#9;c1.4-3.6,2.8-7.2,4.2-10.8c0.8-2.3,2-4.4,3.5-6.3c1.2-1.5,2.1-3.3,2.7-5.1c0.3-0.8,0.3-1.6,0.1-2.3&#10;&#9;&#9;C125.8,253.8,125.7,253,125.4,252.1z"/>
	
		<ellipse transform="matrix(0.9666 -0.2561 0.2561 0.9666 -41.3556 40.6837)" class="st19_swim-suit-2" cx="135.5" cy="179.1" rx="11.8" ry="14.1"/>
	<path class="st16_swim-suit-2" d="M139,173.1c-1.9,2.5-3.8,4.9-5.7,7.3c-0.5-0.6-0.9-1.1-1.4-1.7c-0.8-0.9-2.3-1-3.2-0.2&#10;&#9;&#9;c-0.9,0.8-1,2.3-0.2,3.2c1,1.2,2,2.4,3,3.6c0.6,0.7,1.6,1,2.5,0.6c0.5-0.1,1-0.4,1.3-0.8c2.5-3.2,5-6.3,7.5-9.5&#10;&#9;&#9;C144.5,173.3,140.7,170.8,139,173.1z"/>
</g>
</svg>