<svg version="1.1" id="Layer_1" xmlns="http://www.w3.org/2000/svg" xmlns:xlink="http://www.w3.org/1999/xlink" x="0px" y="0px" viewBox="0 0 500 500" style="width: 157px;" xml:space="preserve" data-imageid="rain-35" imageName="Rain" class="illustrations_image">
<style type="text/css">
	.st0_rain-35{fill:#EAA357;}
	.st1_rain-35{fill:#FFE1BC;}
	.st2_rain-35{fill:url(#SVGID_1_);}
	.st3_rain-35{fill:url(#SVGID_00000112625398978757828930000017030118569063157652_);}
	.st4_rain-35{fill:url(#SVGID_00000034809520696022828310000008415673493754691247_);}
	.st5_rain-35{opacity:0.46;fill:url(#SVGID_00000106853066165747485500000006885866548563796634_);enable-background:new    ;}
	.st6_rain-35{fill:#A83F1E;}
	.st7_rain-35{opacity:0.5;fill:#35464D;enable-background:new    ;}
	.st8_rain-35{fill:#52AF45;}
	.st9_rain-35{fill:#35464D;}
	.st10_rain-35{fill:#62A5B5;}
	.st11_rain-35{fill:#ED5454;}
	.st12_rain-35{fill:#68E1FD;}
	.st13_rain-35{opacity:0.46;fill:url(#SVGID_00000067917326959760917800000017095674102582013337_);enable-background:new    ;}
	.st14_rain-35{opacity:0.46;fill:url(#SVGID_00000152981836765126621990000018235778579544153498_);enable-background:new    ;}
	.st15_rain-35{opacity:0.54;fill:#62A5B5;enable-background:new    ;}
</style>
<g id="field_rain-35">
	<polygon class="st0_rain-35" points="482,255.8 482,247.8 476.5,250.4 &#9;"/>
	<polygon class="st0_rain-35" points="18,259.3 18,267.7 23.9,262.7 &#9;"/>
	<g id="field-2_rain-35">
		<path class="st0_rain-35" d="M256.9,393.1L473,265.4c6.9-3.9,12.8-10.2,6.1-14.4L262.2,126c-3.2-2-8.2-3.3-11.5-1.4L23.8,256.2&#10;&#9;&#9;&#9;c-6.9,4-8.1,15.2-1.2,19.2l205.8,117.5C237.2,398,248,398.1,256.9,393.1z"/>
		<path class="st1_rain-35" d="M256.9,385.5L473,257.8c6.9-3.9,12.8-10.2,6.1-14.4l-216.9-125c-3.2-2-8.2-3.3-11.5-1.4L23.8,248.6&#10;&#9;&#9;&#9;c-6.9,4-8.1,15.2-1.2,19.1l205.8,117.5C237.2,390.4,248,390.5,256.9,385.5z"/>
	</g>
</g>
<g id="water_rain-35">
	<path class="st0_rain-35" d="M215.2,298.2c-10.4-11.4-29.7-6.3-42.7-3.2c-8.8,2.1-26,9.5-15.4,20.8c4.6,4.8,9.7,5.3,15.8,6.6&#10;&#9;&#9;c3.5,0.8,3.8,3.1,6.2,5.5c1.8,1.8,4.1,3,6.6,3.5c5.9,1.4,12.8,0.4,18.4-1.7c5-1.8,10.5-5,9.5-11.2c-0.3-2-1.2-3.9-2.5-5.4&#10;&#9;&#9;c0.6-0.3,1.1-0.6,1.7-1C217.7,308.9,219.4,302.7,215.2,298.2z"/>
	
		<linearGradient id="SVGID_1_-rain-35" gradientUnits="userSpaceOnUse" x1="189.5657" y1="220.5085" x2="167.9157" y2="142.0584" gradientTransform="matrix(1 0 0 -1 0 502)">
		<stop offset="0" style="stop-color:#62A5B5"/>
		<stop offset="0.26" style="stop-color:#62A5B5"/>
		<stop offset="0.39" style="stop-color:#CCEEF1"/>
		<stop offset="0.52" style="stop-color:#62A5B5"/>
		<stop offset="1" style="stop-color:#62A5B5"/>
	</linearGradient>
	<path class="st2_rain-35" d="M211.9,298.2c-10.4-11.4-29.7-6.3-42.7-3.2c-8.8,2.1-26,9.5-15.4,20.8c4.6,4.8,9.7,5.3,15.8,6.6&#10;&#9;&#9;c3.5,0.8,3.8,3.1,6.2,5.5c1.8,1.8,4.1,3,6.6,3.5c5.9,1.4,12.8,0.4,18.4-1.7c5-1.8,10.5-5,9.5-11.2c-0.3-2-1.2-3.9-2.5-5.4&#10;&#9;&#9;c0.6-0.3,1.1-0.6,1.7-1C214.3,308.9,216.1,302.7,211.9,298.2z"/>
	<path class="st0_rain-35" d="M422.2,241.8c-6.4-2.3-14.9,0.4-21.1,1.9c-7.3,1.8-14.5,3.9-22.2,4.2c-8.6,0.4-16-4.9-24.4-1.6&#10;&#9;&#9;c-12.4,4.9-29,27.7-4.1,27.5c18.6-0.1,33-11.4,50.8-13.9c8.2-1.1,18.5,1.4,25.5-3.3C432.8,252.7,428.6,244.1,422.2,241.8z"/>
	
		<linearGradient id="SVGID_00000158727918713946555440000010763887507616441743_-rain-35" gradientUnits="userSpaceOnUse" x1="393.7564" y1="286.6682" x2="369.6364" y2="200.7682" gradientTransform="matrix(1 0 0 -1 0 502)">
		<stop offset="0" style="stop-color:#62A5B5"/>
		<stop offset="0.26" style="stop-color:#62A5B5"/>
		<stop offset="0.39" style="stop-color:#CCEEF1"/>
		<stop offset="0.52" style="stop-color:#62A5B5"/>
		<stop offset="1" style="stop-color:#62A5B5"/>
	</linearGradient>
	<path style="fill:url(#SVGID_00000158727918713946555440000010763887507616441743_);" d="M420.5,240.9c-6.4-2.3-14.9,0.4-21.1,1.9&#10;&#9;&#9;c-7.3,1.8-14.5,3.9-22.2,4.2c-8.6,0.4-16-4.9-24.4-1.6c-12.4,4.9-29,27.7-4.1,27.5c18.6-0.1,33-11.4,50.8-13.9&#10;&#9;&#9;c8.2-1.1,18.5,1.4,25.5-3.3C431,251.7,426.8,243.2,420.5,240.9z"/>
	<path class="st0_rain-35" d="M171.6,208.8c-2.9-0.7-35.8,6.9-35.3,18.1s17.6,8.2,33.3,6.3S199.1,215.6,171.6,208.8z"/>
	
		<linearGradient id="SVGID_00000120555760990496924640000005449810238441852292_-rain-35" gradientUnits="userSpaceOnUse" x1="164.078" y1="297.1706" x2="144.848" y2="233.7206" gradientTransform="matrix(1 0 0 -1 0 502)">
		<stop offset="0" style="stop-color:#62A5B5"/>
		<stop offset="0.26" style="stop-color:#62A5B5"/>
		<stop offset="0.39" style="stop-color:#CCEEF1"/>
		<stop offset="0.52" style="stop-color:#62A5B5"/>
		<stop offset="1" style="stop-color:#62A5B5"/>
	</linearGradient>
	<path style="fill:url(#SVGID_00000120555760990496924640000005449810238441852292_);" d="M168.3,209.2c-2.8-0.3-5.6-0.1-8.4,0.5&#10;&#9;&#9;c-7.1,1.9-27.2,6.7-26.8,16.9c0.5,11.3,17.6,8.2,33.3,6.3c6.3-0.8,16.7-4.6,17.6-12.1C184.9,213.1,176,209.8,168.3,209.2z"/>
</g>
<g id="tree2_rain-35">
	
		<linearGradient id="SVGID_00000023985830947481169240000001639142681695610780_-rain-35" gradientUnits="userSpaceOnUse" x1="82.157" y1="249.1631" x2="54.217" y2="222.2331" gradientTransform="matrix(1 0 0 -1 0 502)">
		<stop offset="3.000000e-02" style="stop-color:#35464D"/>
		<stop offset="1" style="stop-color:#FFE1BC;stop-opacity:0"/>
	</linearGradient>
	<path style="opacity:0.46;fill:url(#SVGID_00000023985830947481169240000001639142681695610780_);enable-background:new    ;" d="&#10;&#9;&#9;M33.1,273.8l44.8-19.4l7.7,12.7l-18.3,26.3L33.1,273.8z"/>
	<path class="st6_rain-35" d="M85.6,267v-46.6H75.5v47C79,268.4,82.7,268.5,85.6,267z"/>
	<path class="st7_rain-35" d="M81.6,220.6v47.7c1.4-0.1,2.8-0.5,4-1.1v-46.6H81.6z"/>
	<path class="st8_rain-35" d="M94.7,224.8c6.3-0.3,14.4-2.6,12-9.6c-1.4-4.1-5.7-7.8-8.4-11.1s-2.1-5.5-5.2-8.7c2.6,0.1,6.4-0.4,7-3&#10;&#9;&#9;c0.6-2.3-11.6-16.1-16.9-21.8c-1.2-1.3-3.2-1.4-4.6-0.3c-6.3,5-22.3,18.3-20.1,22.1c1.3,2.3,4.1,3.1,6.5,3.3&#10;&#9;&#9;c-5.8,5.8-12.3,13-13,20.7c-0.6,6.7,6.2,7.6,12.6,7.2c-4.4,5.3-16.3,20.6-13.6,25.2c1.4,2.4,6.1,3.2,8.8,3.8&#10;&#9;&#9;c5.9,1.2,12,1.8,18.1,1.7c6.1,0.1,12.2-0.8,18-2.7c3.2-1,6.2-2.6,8.8-4.8c2.8-2.6,1.2-5.4-0.6-8.1&#10;&#9;&#9;C100.9,234.1,97.8,229.5,94.7,224.8z"/>
	<path class="st7_rain-35" d="M93,195.4c0,0-7.7-0.5-13-0.4l27.1,22.3c0,0,0.7-2.6-4.1-7.9S93,195.4,93,195.4z"/>
	<path class="st7_rain-35" d="M94.7,224.8H78.9l25.7,22.1c0,0,2.8-2.1,1.1-5.1S94.7,224.8,94.7,224.8z"/>
</g>
<g id="person_rain-35">
	<path class="st9_rain-35" d="M305.6,249.4c-0.2-2.6,0-5.1,0-7.7v-65.3c0-1.3-2.3-1.3-2.3,0v69.7c0,0.8,0.4,4.3-0.4,4.6&#10;&#9;&#9;c-0.4,0.1-0.7,0-1-0.2c-0.3-0.3-0.4-0.6-0.5-1c-0.1-0.5-0.2-1-0.1-1.4c0.1-0.2,0-0.5-0.1-0.7c-0.2-0.2-0.4-0.3-0.7-0.2&#10;&#9;&#9;c-0.7,0.1-1,1-0.9,1.7c0.2,1.8,0.9,3.7,2.6,4.4C304.8,254.3,305.7,251.4,305.6,249.4z"/>
	<path class="st10_rain-35" d="M258.2,317.2c0,0,1.9-0.1,2.2-2.6s0-7.1,0.3-7.6s2.4-3,2.4-3s-4.4-2.6-5-2.3s-3.6,3.1-3.6,3.1"/>
	<path class="st9_rain-35" d="M255.2,304.5c-0.5,0-1.4,0.5-1.5,2.3s1.5,2.7,1.5,3.9s1.1,6.6,3,6.5s1.1-6.2,0.7-7.6S257.4,304.5,255.2,304.5z&#10;&#9;&#9;"/>
	<path class="st10_rain-35" d="M285.9,314.9v5c0,0,0.3,2.9,2.5,3s9.7-4.3,9.7-5.1s-0.7-1.6-3.1-1.6s-4,0.2-4,0.2"/>
	<path class="st9_rain-35" d="M267.4,262.1c-0.8,0.2-1.1,20.2,0,26.4c0,0-7.9,10.2-9.7,13.5c0,0,5,1.6,4.9,3.9c0,0,11.3-8.4,14-14.4&#10;&#9;&#9;s3.9-25.7,3.9-25.7S273,260.9,267.4,262.1z"/>
	<path class="st9_rain-35" d="M288.1,268.9c0,0,2.8,15.8,3.5,21.5s0,26,0,26s-4,2-6.2,0s-1.2-21.2-2.2-23.3s-9.4-14.9-9.4-23.2&#10;&#9;&#9;S288.1,268.9,288.1,268.9z"/>
	<path class="st11_rain-35" d="M267.4,266.4c0,0-0.8-29.2,1.4-33.6s17.6-1.2,19.2,3.7s0,32.3,0,32.3c-2,2.2-5,3.4-8,3.1&#10;&#9;&#9;C275.2,271.3,267.4,266.4,267.4,266.4z"/>
	<path class="st7_rain-35" d="M267.4,266.4c0,0-0.8-29.2,1.4-33.6s17.6-1.2,19.2,3.7s0,32.3,0,32.3c-2,2.2-5,3.4-8,3.1&#10;&#9;&#9;C275.2,271.3,267.4,266.4,267.4,266.4z"/>
	<path class="st11_rain-35" d="M281.4,241.6c0,0-1.7,16.6,7.2,17.4c4.8-1.2,9.3-3.4,13.2-6.4c0.7-1.8,0-3.8-1.6-4.7l-11.3,3.4l-0.2-11.6&#10;&#9;&#9;c0,0-0.3-3.9-3.2-3.7S281.4,241.6,281.4,241.6z"/>
	<path class="st9_rain-35" d="M271.6,216.3c-0.5,0.3,0,4.5-2.2,8.8s-7.8,5.7-6.3,10.5s5.3,3,8.5,5.4s0.1,9.5,8.7,8.9s5.9-7.5,8.3-9.2&#10;&#9;&#9;s4.2-5.4,1.9-7.7s-7.4-3.4-7.1-5.4s8.2-9.9,1.4-13.5S271.6,216.3,271.6,216.3z"/>
	<path class="st0_rain-35" d="M303.9,181.2c0,0-23.9-1.9-34.5,20.1c0,0,2.7,2.2,2.4,5.3"/>
	<path class="st0_rain-35" d="M304.2,181.2c0,0,23.9-1.9,34.5,20.1c0,0-2.7,2.2-2.4,5.3"/>
	<path class="st0_rain-35" d="M289.8,226.7c0,0,10.1-6.3,28.7,0c0,0,0-37.2-14.6-45.5c0,0-9.4,3.9-11.5,13.8S289.8,226.7,289.8,226.7z"/>
	<path class="st12_rain-35 targetColor" d="M303.9,181.2c0,0-12.9,10.6-14.1,45.5c0,0-4.5-10-22.1-10.8C267.7,216,271,187.7,303.9,181.2z" style="fill: rgb(147, 230, 225);"/>
	<path class="st12_rain-35 targetColor" d="M303.9,181.2c0,0,12.9,10.6,14.1,45.5c0,0,4.5-10,22.1-10.8C340.1,216,336.8,187.7,303.9,181.2z" style="fill: rgb(147, 230, 225);"/>
	<path class="st0_rain-35" d="M306.5,247.2c-0.5-1.2-2.1,0.3-2.1,0.3s0-1.1-0.8-1c-1.2,0.5-2.3,1.2-3.3,2c0.8,1,1.2,2.3,1.3,3.6&#10;&#9;&#9;c1.5-0.3,3-0.8,4.5-1.4C307,250.2,307.1,248.3,306.5,247.2z"/>
	
		<linearGradient id="SVGID_00000179639751157680990830000002194039917693997485_-rain-35" gradientUnits="userSpaceOnUse" x1="280.6276" y1="201.7621" x2="251.0176" y2="167.1321" gradientTransform="matrix(1 0 0 -1 0 502)">
		<stop offset="3.000000e-02" style="stop-color:#35464D"/>
		<stop offset="1" style="stop-color:#FFE1BC;stop-opacity:0"/>
	</linearGradient>
	<path style="opacity:0.46;fill:url(#SVGID_00000179639751157680990830000002194039917693997485_);enable-background:new    ;" d="&#10;&#9;&#9;M223.7,328.9l35.2-19.3l39.1,8.2L258,348.4L223.7,328.9z"/>
</g>
<g id="tree1_rain-35">
	
		<linearGradient id="SVGID_00000007392017420252365660000009897477248753814702_-rain-35" gradientUnits="userSpaceOnUse" x1="441.0495" y1="255.6505" x2="414.4895" y2="230.0405" gradientTransform="matrix(1 0 0 -1 0 502)">
		<stop offset="3.000000e-02" style="stop-color:#35464D"/>
		<stop offset="1" style="stop-color:#FFE1BC;stop-opacity:0"/>
	</linearGradient>
	<path style="opacity:0.46;fill:url(#SVGID_00000007392017420252365660000009897477248753814702_);enable-background:new    ;" d="&#10;&#9;&#9;M395.9,267.9l46.9-14l5.6,7.3l-25.4,22.2L395.9,267.9z"/>
	<path class="st6_rain-35" d="M447.6,263v-33.8h-7.4v34.1C442.6,264.2,445.3,264.1,447.6,263z"/>
	<path class="st7_rain-35" d="M444.6,229.3v34.6c1-0.1,2-0.3,2.9-0.8v-33.8H444.6z"/>
	<path class="st8_rain-35" d="M454.1,232.4c4.6-0.2,10.4-1.9,8.7-7c-1-3-4.1-5.7-6.1-8.1s-1.5-4-3.8-6.3c1.9,0.1,4.6-0.3,5.1-2.2&#10;&#9;&#9;c0.4-1.6-8.4-11.7-12.2-15.8c-0.9-0.9-2.3-1-3.3-0.2c-4.5,3.6-16.2,13.3-14.6,16c1,1.7,3,2.3,4.7,2.4c-4.2,4.2-9,9.4-9.4,15&#10;&#9;&#9;c-0.4,4.8,4.5,5.5,9.1,5.2c-3.2,3.9-11.9,14.9-9.9,18.3c1,1.8,4.4,2.4,6.4,2.8c4.3,0.9,8.7,1.3,13.1,1.3c4.4,0.1,8.8-0.6,13-2&#10;&#9;&#9;c2.3-0.7,4.5-1.9,6.4-3.5c2-1.9,0.9-3.9-0.4-5.9C458.6,239.2,456.4,235.8,454.1,232.4z"/>
	<path class="st7_rain-35" d="M452.9,211.1c0,0-5.6-0.4-9.4-0.3l19.6,16.2c0,0,0.5-1.9-3-5.7C457.5,218.1,455.1,214.7,452.9,211.1z"/>
	<path class="st7_rain-35" d="M454.1,232.4h-11.4l18.7,16c1.2-0.8,1.5-2.4,0.8-3.7C460.9,242.6,454.1,232.4,454.1,232.4z"/>
</g>
<g id="cloud_rain-35">
	<path class="st12_rain-35 targetColor" d="M154.6,139.7c-8.5-5-10.8-16.6-4.3-24.1c0.2-0.3,0.5-0.5,0.7-0.8c9-9.3,26.4,0,26.4,0s5-14.3,29.2-11.1&#10;&#9;&#9;c24.5,3.2,28.4,28.5,28.4,28.5s20,8.7,20.8,21.2s-17,24.4-34.4,20.2C207.7,170.3,169.8,148.6,154.6,139.7z" style="fill: rgb(147, 230, 225);"/>
	<path class="st15_rain-35" d="M255.8,153.4c-0.4-5.4-4.4-10.2-8.8-13.8c-2.4,6.3-7.2,11.3-13.3,14.1c-10.3,4.9-22,4.8-33.1,3.4&#10;&#9;&#9;c-8.9-1.1-17.6-3.1-26.1-6c17,9.5,37.6,20.3,47,22.6C238.8,177.8,256.7,165.9,255.8,153.4z"/>
	<path class="st12_rain-35 targetColor" d="M348,150.3c-5.6-3.2-7.5-10.3-4.3-15.9c0.3-0.6,0.7-1.1,1.1-1.6c0.2-0.2,0.3-0.4,0.5-0.6&#10;&#9;&#9;c6.5-6.8,19.2,0,19.2,0s3.7-10.4,21.2-8.1c17.8,2.3,20.6,20.7,20.6,20.7s14.5,6.4,15.1,15.4s-12.3,17.7-24.9,14.7&#10;&#9;&#9;C386.5,172.5,359,156.7,348,150.3z" style="fill: rgb(147, 230, 225);"/>
	<path class="st15_rain-35" d="M421.5,160.2c-0.3-4-3.2-7.4-6.4-10c-1.8,4.5-5.2,8.2-9.7,10.2c-7.5,3.6-16,3.5-24,2.5&#10;&#9;&#9;c-6.5-0.8-12.8-2.3-19-4.4c12.3,6.9,27.2,14.7,34.1,16.4C409.1,177.9,422.1,169.3,421.5,160.2z"/>
</g>
<g id="rain_rain-35">
	<path class="st10_rain-35" d="M196.6,183.8l-2.6,8.2c-0.9,2.9,3.6,4.4,4.5,1.5l2.6-8.2C202,182.3,197.5,180.8,196.6,183.8z"/>
	<path class="st10_rain-35" d="M169.9,161.3l-2.6,8.2c-0.9,2.9,3.6,4.4,4.5,1.5l2.6-8.2C175.3,159.8,170.8,158.4,169.9,161.3z"/>
	<path class="st10_rain-35" d="M175,183.8l-2.6,8.2c-0.9,2.9,3.6,4.4,4.5,1.5l2.6-8.2C180.5,182.3,176,180.8,175,183.8z"/>
	<path class="st10_rain-35" d="M209.6,201.9l-2.6,8.1c-0.9,2.9,3.6,4.4,4.5,1.5l2.6-8.2C215.1,200.4,210.5,198.9,209.6,201.9z"/>
	<path class="st10_rain-35" d="M230.7,187.5l-2.6,8.2c-0.9,2.9,3.6,4.4,4.5,1.5l2.6-8.2C236.2,186.1,231.6,184.6,230.7,187.5z"/>
	<path class="st10_rain-35" d="M295.7,151.2l-2.6,8.2c-0.9,2.9,3.6,4.4,4.5,1.5l2.6-8.2C301.1,149.8,296.6,148.3,295.7,151.2z"/>
	<path class="st10_rain-35" d="M269,128.8l-2.6,8.2c-0.9,2.9,3.6,4.4,4.5,1.5l2.6-8.2C274.5,127.3,269.9,125.8,269,128.8z"/>
	<path class="st10_rain-35" d="M274.1,151.2l-2.6,8.2c-0.9,2.9,3.6,4.4,4.5,1.5l2.6-8.2C279.6,149.8,275.1,148.3,274.1,151.2z"/>
	<path class="st10_rain-35" d="M308.7,169.3l-2.6,8.2c-0.9,2.9,3.6,4.4,4.5,1.5l2.6-8.2C314.2,167.9,309.6,166.4,308.7,169.3z"/>
	<path class="st10_rain-35" d="M329.8,155l-2.6,8.2c-0.9,2.9,3.6,4.4,4.5,1.5l2.6-8.2C335.3,153.5,330.8,152.1,329.8,155z"/>
	<path class="st10_rain-35" d="M378.9,243.8l-2.6,8.2c-1,2.9,3.6,4.4,4.5,1.5l2.6-8.2C384.4,242.4,379.9,240.9,378.9,243.8z"/>
	<path class="st10_rain-35" d="M352.2,221.3l-2.6,8.2c-0.9,2.9,3.6,4.4,4.5,1.5l2.6-8.2C357.7,219.9,353.2,218.4,352.2,221.3z"/>
	<path class="st10_rain-35" d="M357.4,243.8l-2.6,8.2c-0.9,2.9,3.6,4.4,4.5,1.5l2.6-8.2C362.9,242.4,358.3,240.9,357.4,243.8z"/>
	<path class="st10_rain-35" d="M392,261.9l-2.6,8.2c-1,2.9,3.6,4.4,4.5,1.5l2.6-8.2C397.4,260.5,392.9,259,392,261.9z"/>
	<path class="st10_rain-35" d="M413.1,247.6l-2.6,8.2c-0.9,2.9,3.6,4.4,4.5,1.5l2.6-8.2C418.5,246.1,414,244.6,413.1,247.6z"/>
	<path class="st10_rain-35" d="M205.9,248.8l-2.6,8.2c-0.9,2.9,3.6,4.4,4.5,1.5l2.6-8.2C211.3,247.3,206.8,245.9,205.9,248.8z"/>
	<path class="st10_rain-35" d="M179.2,226.3l-2.6,8.2c-0.9,2.9,3.6,4.4,4.5,1.5l2.6-8.2C184.6,224.8,180.1,223.4,179.2,226.3z"/>
	<path class="st10_rain-35" d="M184.3,248.8l-2.6,8.2c-0.9,2.9,3.6,4.4,4.5,1.5l2.6-8.2C189.8,247.3,185.3,245.9,184.3,248.8z"/>
	<path class="st10_rain-35" d="M218.9,266.9l-2.6,8.1c-0.9,2.9,3.6,4.4,4.5,1.5l2.6-8.2C224.4,265.4,219.8,263.9,218.9,266.9z"/>
	<path class="st10_rain-35" d="M240,252.5l-2.6,8.2c-0.9,2.9,3.6,4.4,4.5,1.5l2.6-8.2C245.5,251.1,241,249.6,240,252.5z"/>
	<path class="st10_rain-35" d="M123.1,275.5l-2.6,8.2c-0.9,2.9,3.6,4.4,4.5,1.5l2.6-8.2C128.5,274,124,272.5,123.1,275.5z"/>
	<path class="st10_rain-35" d="M96.3,253l-2.6,8.2c-0.9,2.9,3.6,4.4,4.5,1.5l2.6-8.2C101.8,251.5,97.3,250.1,96.3,253z"/>
	<path class="st10_rain-35" d="M101.5,275.5l-2.6,8.2c-1,2.9,3.6,4.4,4.5,1.5l2.6-8.2C107,274,102.4,272.5,101.5,275.5z"/>
	<path class="st10_rain-35" d="M136.1,293.6l-2.6,8.2c-0.9,2.9,3.6,4.4,4.5,1.5l2.6-8.2C141.5,292.1,137,290.6,136.1,293.6z"/>
	<path class="st10_rain-35" d="M157.2,279.2l-2.6,8.2c-0.9,2.9,3.6,4.4,4.5,1.5l2.6-8.2C162.7,277.8,158.1,276.3,157.2,279.2z"/>
</g>
</svg>