<svg version="1.1" id="Layer_1" xmlns="http://www.w3.org/2000/svg" xmlns:xlink="http://www.w3.org/1999/xlink" x="0px" y="0px" viewBox="0 0 500 500" style="width: 157px;" xml:space="preserve" data-imageid="rain-89" imageName="Rain" class="illustrations_image">
<style type="text/css">
	.st0_rain-89{fill:#FFFFFF;}
	.st1_rain-89{fill:#231F20;}
	.st2_rain-89{fill:#68E1FD;}
	.st3_rain-89{fill:#D1D3D4;}
</style>
<g id="Frame_rain-89">
	<rect x="9.4" y="83.1" class="st0_rain-89" width="481.3" height="333.9"/>
	<path class="st1_rain-89" d="M490.6,83.1v334H9.4v-334H490.6 M490.6,81.7H9.4c-0.8,0-1.4,0.6-1.4,1.4v334c0,0.8,0.6,1.4,1.4,1.4h481.3&#10;&#9;&#9;c0.8,0,1.4-0.6,1.4-1.4v-334C492.1,82.3,491.5,81.7,490.6,81.7L490.6,81.7z"/>
</g>
<g id="Umbrella_Back_rain-89">
	<path class="st1_rain-89" d="M404.2,405.3c-16.1-37.6-59.7-55.1-97.3-38.9c-17.5,7.5-31.4,21.4-38.9,38.9H404.2z"/>
	<path class="st1_rain-89" d="M336.1,360.4c29.7,0,56.5,17.7,68.1,44.9H267.9C279.6,378.1,306.4,360.4,336.1,360.4 M336.1,359&#10;&#9;&#9;c-30.2,0-57.5,18-69.4,45.8c-0.3,0.7,0,1.5,0.7,1.8c0.2,0.1,0.4,0.1,0.6,0.1h136.3c0.8,0,1.4-0.6,1.4-1.4c0-0.2,0-0.4-0.1-0.6&#10;&#9;&#9;C393.6,377,366.3,359,336.1,359L336.1,359z"/>
	<path class="st0_rain-89" d="M375.7,406h-79.4c-0.4,0-0.7-0.3-0.7-0.7c0-0.1,0-0.1,0-0.2c6.6-26.6,30.8-46.9,40.4-46.9s33.7,20.3,40.4,46.9&#10;&#9;&#9;c0,0.2,0,0.4-0.1,0.6C376.2,405.9,376,406,375.7,406z M297.3,404.6h77.6c-6.8-25.6-29.7-44.9-38.8-44.9S304.1,379.1,297.3,404.6&#10;&#9;&#9;L297.3,404.6z"/>
	<path class="st0_rain-89" d="M336.1,406c-0.4,0-0.7-0.3-0.7-0.7v0v-46c0-0.4,0.3-0.7,0.7-0.7s0.7,0.3,0.7,0.7c0,0,0,0,0,0v46.1&#10;&#9;&#9;C336.7,405.7,336.4,406,336.1,406z"/>
	<path class="st1_rain-89" d="M245.4,401c-16.1-37.6-59.7-55.1-97.3-39c-17.5,7.5-31.5,21.5-39,39H245.4z"/>
	<path class="st1_rain-89" d="M177.3,356c29.7,0,56.5,17.7,68.1,45H109.1C120.8,373.7,147.6,356,177.3,356 M177.3,354.6&#10;&#9;&#9;c-30.2,0-57.5,18-69.4,45.8c-0.3,0.7,0,1.5,0.7,1.9c0.2,0.1,0.4,0.1,0.6,0.1h136.3c0.8,0,1.4-0.6,1.4-1.4c0-0.2,0-0.4-0.1-0.6&#10;&#9;&#9;C234.8,372.6,207.5,354.6,177.3,354.6L177.3,354.6z"/>
	<path class="st0_rain-89" d="M217,401.6h-79.4c-0.4,0-0.7-0.3-0.7-0.7c0-0.1,0-0.1,0-0.2c6.6-26.6,30.8-46.9,40.4-46.9s33.7,20.3,40.4,46.9&#10;&#9;&#9;c0,0.2,0,0.4-0.1,0.6C217.4,401.5,217.2,401.6,217,401.6z M138.5,400.2h77.6c-6.8-25.6-29.7-44.9-38.8-44.9&#10;&#9;&#9;S145.3,374.7,138.5,400.2L138.5,400.2z"/>
	<path class="st0_rain-89" d="M177.3,401.6c-0.4,0-0.7-0.3-0.7-0.7l0,0v-46.1c0-0.4,0.3-0.7,0.7-0.7s0.7,0.3,0.7,0.7c0,0,0,0,0,0V401&#10;&#9;&#9;C177.9,401.4,177.6,401.7,177.3,401.6z"/>
	<path class="st1_rain-89" d="M137.1,417H9.4v-73.1c5.1-0.7,10.3-1,15.5-1C73.7,342.9,117.9,372,137.1,417z"/>
	<path class="st1_rain-89" d="M24.8,342.9c48.9,0,93.1,29.2,112.3,74.1H9.4v-73.1C14.5,343.2,19.7,342.9,24.8,342.9 M24.8,341.5&#10;&#9;&#9;c-5.2,0-10.5,0.3-15.7,1c-0.7,0.1-1.2,0.7-1.2,1.4V417c0,0.8,0.6,1.4,1.4,1.4h127.8c0.8,0,1.4-0.6,1.4-1.4c0-0.2,0-0.4-0.1-0.6&#10;&#9;&#9;C119,370.9,74.3,341.4,24.8,341.5L24.8,341.5z"/>
	<path class="st0_rain-89" d="M90.2,417.6c-0.3,0-0.6-0.2-0.7-0.5c-10.6-42.5-49.4-74.9-64.7-74.9c-3.5,0-8.5,3-14.2,6.5l-0.9,0.5&#10;&#9;&#9;c-0.3,0.2-0.8,0.1-1-0.2s-0.1-0.8,0.2-1c0,0,0,0,0,0l0.9-0.5c6-3.6,11.1-6.7,15-6.7c15.7,0,55.3,32.9,66.1,76&#10;&#9;&#9;c0.1,0.4-0.1,0.8-0.5,0.8c0,0,0,0,0,0L90.2,417.6z"/>
	<path class="st0_rain-89" d="M24.8,417.6c-0.4,0-0.7-0.3-0.7-0.7l0,0v-74.4c0-0.4,0.3-0.7,0.7-0.7c0.4,0,0.7,0.3,0.7,0.7V417&#10;&#9;&#9;C25.5,417.4,25.2,417.7,24.8,417.6z"/>
	<path class="st1_rain-89" d="M490.6,343.9V417H362.9c19.3-44.9,63.4-74.1,112.3-74.1C480.3,342.9,485.5,343.2,490.6,343.9z"/>
	<path class="st1_rain-89" d="M475.2,342.9c5.2,0,10.4,0.3,15.5,1V417H362.9C382.1,372.1,426.3,342.9,475.2,342.9 M475.2,341.5&#10;&#9;&#9;c-49.4,0-94.1,29.4-113.6,74.9c-0.3,0.7,0,1.5,0.7,1.9c0.2,0.1,0.4,0.1,0.6,0.1h127.8c0.8,0,1.4-0.6,1.4-1.4v-73.1&#10;&#9;&#9;c0-0.7-0.5-1.3-1.2-1.4C485.6,341.8,480.4,341.5,475.2,341.5L475.2,341.5z"/>
	<path class="st0_rain-89" d="M409.8,417.6h-0.2c-0.4-0.1-0.6-0.5-0.5-0.8c0,0,0,0,0,0c10.8-43.1,50.4-76,66.1-76c3.9,0,9,3.1,15,6.7&#10;&#9;&#9;l0.9,0.5c0.3,0.2,0.4,0.6,0.2,1c-0.2,0.3-0.6,0.4-1,0.2l-0.9-0.5c-5.8-3.5-10.8-6.5-14.2-6.5c-15.3,0-54.1,32.4-64.7,74.9&#10;&#9;&#9;C410.4,417.5,410.1,417.7,409.8,417.6z"/>
	<path class="st0_rain-89" d="M475.2,417.6c-0.4,0-0.7-0.3-0.7-0.7v0v-75.8c0-0.4,0.3-0.7,0.7-0.7c0.4,0,0.7,0.3,0.7,0.7V417&#10;&#9;&#9;C475.8,417.4,475.5,417.7,475.2,417.6z"/>
	<path class="st1_rain-89" d="M24.8,342.9c-0.4,0-0.7-0.3-0.7-0.7l0,0V338c0-0.4,0.3-0.7,0.7-0.7s0.7,0.3,0.7,0.7c0,0,0,0,0,0v4.1&#10;&#9;&#9;C25.6,342.5,25.3,342.9,24.8,342.9C24.9,342.9,24.9,342.9,24.8,342.9z"/>
	<path class="st1_rain-89" d="M177.3,354.9c-0.4,0-0.7-0.3-0.7-0.7l0,0V350c0-0.4,0.3-0.7,0.7-0.7c0.4,0,0.7,0.3,0.7,0.7v4.1&#10;&#9;&#9;C178,354.5,177.7,354.9,177.3,354.9C177.3,354.9,177.3,354.9,177.3,354.9z"/>
	<path class="st1_rain-89" d="M336.1,359.7c-0.4,0-0.7-0.3-0.7-0.7v0v-4.1c0-0.4,0.3-0.7,0.7-0.7s0.7,0.3,0.7,0.7c0,0,0,0,0,0v4.1&#10;&#9;&#9;C336.8,359.4,336.5,359.7,336.1,359.7C336.1,359.7,336.1,359.7,336.1,359.7z"/>
	<path class="st1_rain-89" d="M475.2,342.1c-0.4,0-0.7-0.3-0.7-0.7v0v-4.1c0-0.4,0.3-0.7,0.7-0.7c0.4,0,0.7,0.3,0.7,0.7v4.1&#10;&#9;&#9;C475.9,341.8,475.5,342.1,475.2,342.1z"/>
</g>
<g id="Umbrella_Front_rain-89">
	<path class="st2_rain-89 targetColor" d="M182.3,417.3c-14.4-39-47.7-66.3-86.4-66.3s-72.1,27.3-86.5,66.3H182.3z" style="fill: rgb(68, 137, 129);"/>
	<path class="st1_rain-89" d="M182.3,418H9.4c-0.4,0-0.7-0.3-0.7-0.7c0-0.1,0-0.2,0.1-0.3c15-40.5,49.1-66.7,87.1-66.7s72.2,26.2,87.1,66.7&#10;&#9;&#9;c0.1,0.4-0.1,0.8-0.4,0.9C182.4,417.9,182.3,417.9,182.3,418L182.3,418z M10.4,416.6h170.9c-14.9-39.5-48.4-64.9-85.4-64.9&#10;&#9;&#9;S25.3,377.1,10.4,416.6L10.4,416.6z"/>
	<path class="st2_rain-89 targetColor" d="M146.2,417.3c-8.4-39-38.8-66.3-50.3-66.3s-42,27.3-50.3,66.3H146.2z" style="fill: rgb(68, 137, 129);"/>
	<path class="st1_rain-89" d="M146.2,418H45.5c-0.2,0-0.4-0.1-0.5-0.3c-0.1-0.2-0.2-0.4-0.2-0.6c8.3-38.6,38.5-66.8,51-66.8&#10;&#9;&#9;s42.7,28.2,51,66.8c0,0.2,0,0.4-0.1,0.6C146.5,417.9,146.3,418,146.2,418z M46.3,416.6h99c-8.3-36.9-37.7-64.9-49.5-64.9&#10;&#9;&#9;S54.6,379.7,46.3,416.6L46.3,416.6z"/>
	<path class="st1_rain-89" d="M95.8,418c-0.4,0-0.7-0.3-0.7-0.7l0,0v-74.2c0-0.4,0.3-0.7,0.7-0.7c0.4,0,0.7,0.3,0.7,0.7v74.1&#10;&#9;&#9;C96.5,417.7,96.2,418,95.8,418C95.8,418,95.8,418,95.8,418z"/>
	<path class="st2_rain-89 targetColor" d="M490.6,417.3c-14.4-39-47.6-66.3-86.5-66.3s-72.1,27.3-86.5,66.3H490.6z" style="fill: rgb(68, 137, 129);"/>
	<path class="st1_rain-89" d="M490.6,418H317.7c-0.4,0-0.7-0.3-0.7-0.7c0-0.1,0-0.2,0-0.2c15-40.5,49.1-66.7,87.1-66.7s72.2,26.2,87.1,66.7&#10;&#9;&#9;c0.1,0.4-0.1,0.8-0.4,0.9C490.8,417.9,490.7,417.9,490.6,418L490.6,418z M318.8,416.6h170.9c-14.9-39.5-48.4-64.9-85.5-64.9&#10;&#9;&#9;S333.7,377.1,318.8,416.6L318.8,416.6z"/>
	<path class="st2_rain-89 targetColor" d="M454.5,417.3c-8.4-39-38.7-66.3-50.4-66.3s-42,27.3-50.4,66.3H454.5z" style="fill: rgb(68, 137, 129);"/>
	<path class="st1_rain-89" d="M454.5,418H353.8c-0.2,0-0.4-0.1-0.5-0.3c-0.1-0.2-0.2-0.4-0.1-0.6c8.3-38.6,38.5-66.8,51-66.8&#10;&#9;&#9;s42.7,28.2,51,66.8c0,0.2,0,0.4-0.1,0.6C454.9,417.9,454.7,418,454.5,418z M354.7,416.6h99c-8.3-36.9-37.7-64.9-49.5-64.9&#10;&#9;&#9;S363,379.7,354.7,416.6L354.7,416.6z"/>
	<path class="st1_rain-89" d="M404.2,418c-0.4,0-0.7-0.3-0.7-0.7v0v-74.2c0-0.4,0.3-0.7,0.7-0.7s0.7,0.3,0.7,0.7c0,0,0,0,0,0v74.1&#10;&#9;&#9;C404.9,417.7,404.6,418,404.2,418C404.2,418,404.2,418,404.2,418z"/>
	<path class="st2_rain-89 targetColor" d="M337.8,417.3c-20.5-47.7-75.8-69.9-123.5-49.4c-22.2,9.5-39.9,27.2-49.4,49.4H337.8z" style="fill: rgb(68, 137, 129);"/>
	<path class="st1_rain-89" d="M337.8,418H164.8c-0.4,0-0.7-0.3-0.7-0.7c0-0.1,0-0.2,0.1-0.3c20.6-48.1,76.3-70.4,124.4-49.8&#10;&#9;&#9;c22.4,9.6,40.2,27.4,49.8,49.8c0.2,0.3,0,0.8-0.3,0.9C338,418,337.9,418,337.8,418z M165.9,416.6h170.8&#10;&#9;&#9;c-20.9-47.2-76-68.5-123.1-47.6C192.3,378.4,175.3,395.3,165.9,416.6L165.9,416.6z"/>
	<path class="st2_rain-89 targetColor" d="M301.6,417.3c-8.4-33.5-38.7-57-50.3-57s-42,23.5-50.4,57H301.6z" style="fill: rgb(68, 137, 129);"/>
	<path class="st1_rain-89" d="M301.6,418H201c-0.2,0-0.4-0.1-0.6-0.3c-0.1-0.2-0.2-0.4-0.1-0.6c8.3-33.2,38.5-57.5,51-57.5&#10;&#9;&#9;c12.5,0,42.7,24.3,51,57.5c0.1,0.2,0,0.4-0.1,0.6C302.1,417.9,301.9,418,301.6,418z M201.9,416.6h98.9&#10;&#9;&#9;c-5.1-19.3-16.9-33.2-23.5-39.9c-9.3-9.3-19.9-15.7-25.9-15.7C239.5,361,210.2,385,201.9,416.6L201.9,416.6z"/>
	<path class="st1_rain-89" d="M251.3,418c-0.4,0-0.7-0.3-0.7-0.7l0,0v-63.8c0-0.4,0.3-0.7,0.7-0.7c0.4,0,0.7,0.3,0.7,0.7v63.8&#10;&#9;&#9;C252,417.7,251.7,418,251.3,418C251.3,418,251.3,418,251.3,418z"/>
</g>
<g id="Clouds_back_rain-89">
	<path class="st3_rain-89" d="M469.1,232.4c-1.5,0-3-0.1-4.5-0.2c-14.5-1.5-28-7.8-38.5-17.9c-5.7,4.8-11.8,9.6-19.1,11.8&#10;&#9;&#9;c-7.5,2.2-14,0.7-19.9-4.6c-8.7-7.8-15-17.9-18.2-29.1c-12,11.4-24.1,17.4-35.9,17.9c-13.1,0.6-28-7.9-30.6-21.5&#10;&#9;&#9;c-15.1,24.2-47,31.5-71.1,16.4c-9.4-5.9-16.7-14.7-20.7-25c-10.6,9.8-27.2,9.2-37.1-1.4c-1.8,4.9-5.8,8.8-10.7,10.6&#10;&#9;&#9;c-5,2.1-10.6,1.7-15.3-0.9c-2.3,7.1-6.9,16.4-15.7,21.6c-9.7,5.8-21.9,3.8-28.3-4.5c-8.3,13.1-22.2,21.3-36.6,21.4h-0.2&#10;&#9;&#9;c-15.5-0.2-29.8-8.8-37.3-22.3c-0.2-0.3-0.1-0.8,0.2-1c0.3-0.2,0.8-0.1,1,0.2c0,0,0,0.1,0.1,0.1c7.3,13.1,21,21.4,36.1,21.6h0.2&#10;&#9;&#9;c14.2-0.1,28-8.4,36-21.6c0.1-0.2,0.3-0.3,0.6-0.3c0.2,0,0.5,0.1,0.6,0.3c5.8,8.3,17.6,10.5,27.1,4.9c8.8-5.2,13.2-14.6,15.3-21.6&#10;&#9;&#9;c0.1-0.4,0.5-0.6,0.9-0.5c0.1,0,0.1,0,0.2,0.1c4,2.8,9.6,3.3,14.8,1.3s9.1-6.1,10.2-10.9c0.1-0.4,0.5-0.6,0.8-0.5&#10;&#9;&#9;c0.2,0,0.3,0.1,0.4,0.3c4,5.3,10.6,8.5,18,8.8s14.2-2.4,18.6-7.3c0.2-0.2,0.4-0.3,0.7-0.2c0.2,0,0.4,0.2,0.5,0.4&#10;&#9;&#9;c9.5,26.1,38.3,39.5,64.4,30c11.1-4,20.4-11.9,26.3-22.1c0.2-0.3,0.6-0.4,1-0.2c0.2,0.1,0.3,0.3,0.3,0.5&#10;&#9;&#9;c1.2,11.2,13.3,22.9,29.5,22.2c11.7-0.5,23.8-6.6,35.8-18.3c0.2-0.2,0.4-0.2,0.7-0.2c0.2,0.1,0.4,0.3,0.5,0.5&#10;&#9;&#9;c3.1,11.4,9.3,21.7,18.1,29.6c5.5,4.9,11.6,6.3,18.6,4.3c7.2-2.1,13.3-7,19-11.9c0.3-0.2,0.7-0.2,1,0&#10;&#9;&#9;c10.3,10.1,23.7,16.5,38.1,17.9c7.5,0.8,17.8-0.1,23.9-8.3c0.2-0.3,0.7-0.4,1-0.2c0.3,0.2,0.4,0.7,0.1,1l0,0&#10;&#9;&#9;C485.4,229.3,478.3,232.4,469.1,232.4z"/>
</g>
<g id="Raindrops_rain-89">
	<path class="st3_rain-89" d="M217,355.3c-0.3,0-0.5-0.1-0.6-0.4l-3.4-6c-0.2-0.3-0.1-0.8,0.3-0.9c0,0,0,0,0,0c0.3-0.2,0.8-0.1,0.9,0.3&#10;&#9;&#9;l3.3,6c0.2,0.3,0.1,0.7-0.2,1c0,0,0,0-0.1,0C217.2,355.3,217.1,355.3,217,355.3z"/>
	<path class="st3_rain-89" d="M115.2,352.6c-0.4,0-0.7-0.3-0.7-0.7l0,0v-9.6c0-0.4,0.3-0.7,0.7-0.7c0.4,0,0.7,0.3,0.7,0.7v9.6&#10;&#9;&#9;C115.9,352.3,115.6,352.6,115.2,352.6C115.2,352.6,115.2,352.6,115.2,352.6z"/>
	<path class="st3_rain-89" d="M346.1,353.3c-0.3,0-0.5-0.1-0.6-0.4l-5.9-11c-0.2-0.3-0.1-0.8,0.3-0.9c0.3-0.2,0.8-0.1,0.9,0.3l0,0l5.9,11&#10;&#9;&#9;c0.2,0.3,0,0.8-0.3,1C346.3,353.2,346.2,353.3,346.1,353.3z"/>
	<path class="st3_rain-89" d="M130.3,356c-0.4,0-0.7-0.3-0.7-0.7c0-0.2,0.1-0.4,0.2-0.5l7.6-6.7c0.3-0.3,0.7-0.2,1,0c0,0,0,0,0,0&#10;&#9;&#9;c0.3,0.3,0.2,0.7,0,1c0,0,0,0,0,0l-7.6,6.7C130.7,355.9,130.5,356,130.3,356z"/>
	<path class="st3_rain-89" d="M264.1,357.7c-0.4,0-0.7-0.3-0.7-0.7c0-0.2,0.1-0.4,0.3-0.6l7.1-4.9c0.3-0.2,0.8-0.1,1,0.2&#10;&#9;&#9;c0.2,0.3,0.2,0.8-0.2,1c0,0,0,0,0,0l-7.1,4.9C264.4,357.6,264.2,357.7,264.1,357.7z"/>
</g>
<g id="Rainfall_rain-89">
	<path class="st3_rain-89" d="M425.9,210.8c-8.3,0.1-16.4-2.6-23-7.8c-0.3-0.2-0.4-0.7-0.1-1c0,0,0,0,0,0c0.2-0.3,0.7-0.4,1-0.1c0,0,0,0,0,0&#10;&#9;&#9;c12.2,9.8,31.3,10,43.7,0.4c0.3-0.3,0.7-0.2,1,0c0.3,0.3,0.2,0.7,0,1c0,0-0.1,0-0.1,0.1C441.8,208.3,433.9,210.8,425.9,210.8z"/>
	<path class="st3_rain-89" d="M156.9,334.8c-0.1,0-0.3,0-0.4-0.1c-0.3-0.2-0.4-0.7-0.2-1c0,0,0,0,0,0l103.4-156.8c0.2-0.3,0.6-0.4,1-0.2&#10;&#9;&#9;c0.3,0.2,0.4,0.6,0.2,1l0,0L157.5,334.5C157.3,334.7,157.1,334.8,156.9,334.8z"/>
	<path class="st3_rain-89" d="M106.4,324.6c-0.1,0-0.3,0-0.4-0.1c-0.3-0.2-0.4-0.6-0.2-0.9c0,0,0,0,0-0.1l75.8-113.8c0.2-0.3,0.7-0.4,1-0.2&#10;&#9;&#9;c0.3,0.2,0.4,0.7,0.2,1L107,324.3C106.9,324.5,106.7,324.6,106.4,324.6z"/>
	<path class="st3_rain-89" d="M73.2,278.4c-0.2,0-0.3,0-0.4-0.1c-0.3-0.2-0.4-0.7-0.1-1c0,0,0,0,0,0l97.3-127c0.2-0.3,0.7-0.4,1-0.2&#10;&#9;&#9;c0,0,0,0,0,0c0.3,0.2,0.4,0.7,0.1,1c0,0,0,0,0,0l-97.3,127C73.7,278.3,73.5,278.4,73.2,278.4z"/>
	<path class="st3_rain-89" d="M285.4,334.8c-0.2,0-0.3,0-0.4-0.1c-0.3-0.2-0.4-0.7-0.2-1c0,0,0,0,0,0l117.9-156.8c0.2-0.3,0.7-0.4,1-0.1&#10;&#9;&#9;c0.3,0.2,0.4,0.7,0.1,1L286,334.5C285.9,334.7,285.6,334.8,285.4,334.8z"/>
	<path class="st3_rain-89" d="M296.4,245.3c-0.2,0-0.3,0-0.4-0.1c-0.3-0.2-0.4-0.7-0.2-1c0,0,0,0,0,0c28.2-37.8,70.4-95.4,70.9-99.1&#10;&#9;&#9;c-0.1-0.3,0.1-0.7,0.5-0.8c0,0,0,0,0,0c0.4-0.1,0.8,0.2,0.8,0.6c0.8,3.4-54.2,77.5-71.1,100.2C296.8,245.2,296.6,245.3,296.4,245.3&#10;&#9;&#9;z"/>
	<path class="st3_rain-89" d="M217,304.4c-0.2,0-0.3,0-0.4-0.1c-0.3-0.2-0.4-0.7-0.2-1c0,0,0,0,0,0l54.2-72c0.2-0.3,0.7-0.4,1-0.1&#10;&#9;&#9;c0.3,0.2,0.4,0.7,0.1,1l-54.2,72C217.4,304.3,217.2,304.4,217,304.4z"/>
	<path class="st3_rain-89" d="M398.9,317c-0.2,0-0.3,0-0.4-0.1c-0.3-0.2-0.4-0.7-0.2-1c0,0,0,0,0,0l54-71.7c0.2-0.3,0.7-0.4,1-0.2&#10;&#9;&#9;c0,0,0,0,0,0c0.3,0.2,0.4,0.7,0.2,1c0,0,0,0,0,0l-53.9,71.7C399.4,316.9,399.1,317,398.9,317z"/>
	<path class="st3_rain-89" d="M357.9,334.8c-0.2,0-0.3-0.1-0.4-0.1c-0.3-0.2-0.4-0.7-0.1-1c0,0,0,0,0,0l36-45.1c0.2-0.3,0.7-0.4,1-0.1&#10;&#9;&#9;c0,0,0,0,0,0c0.3,0.2,0.4,0.7,0.1,1c0,0,0,0,0,0l-36,45.1C358.3,334.7,358.1,334.8,357.9,334.8z"/>
	<path class="st3_rain-89" d="M231.8,343.6c-0.2,0-0.3-0.1-0.4-0.1c-0.3-0.2-0.4-0.7-0.1-1c0,0,0,0,0,0l46.1-58.5c0.2-0.3,0.7-0.4,1-0.2&#10;&#9;&#9;c0.3,0.2,0.4,0.7,0.2,1c0,0,0,0.1-0.1,0.1l-46.1,58.5C232.2,343.5,232,343.6,231.8,343.6z"/>
	<path class="st3_rain-89" d="M68.6,329.6c-0.2,0-0.3-0.1-0.4-0.1c-0.3-0.2-0.4-0.7-0.2-1c0,0,0,0,0,0l37.8-51.2c0.2-0.3,0.6-0.4,1-0.2&#10;&#9;&#9;c0.3,0.2,0.4,0.6,0.2,1c0,0,0,0.1-0.1,0.1l-37.8,51.3C69,329.5,68.8,329.6,68.6,329.6z"/>
	<path class="st3_rain-89" d="M19.7,281.1c-0.1,0-0.3,0-0.4-0.1c-0.3-0.2-0.4-0.7-0.2-1c0,0,0,0,0,0l62.3-85.7c0.2-0.3,0.7-0.4,1-0.2&#10;&#9;&#9;c0.3,0.2,0.4,0.7,0.2,1l-62.3,85.7C20.1,281,19.9,281.2,19.7,281.1z"/>
	<path class="st3_rain-89" d="M37.8,329.6c-0.1,0-0.3,0-0.4-0.1c-0.3-0.2-0.4-0.7-0.2-1c0,0,0,0,0,0l19.6-28.4c0.2-0.3,0.7-0.4,1-0.1&#10;&#9;&#9;c0.3,0.2,0.4,0.7,0.1,1l-19.6,28.3C38.3,329.5,38.1,329.6,37.8,329.6z"/>
	<path class="st3_rain-89" d="M441.3,312.2c-0.1,0-0.3,0-0.4-0.1c-0.3-0.2-0.4-0.7-0.2-1c0,0,0,0,0,0l21.9-31.1c0.2-0.3,0.6-0.4,1-0.2&#10;&#9;&#9;s0.4,0.6,0.2,1c0,0,0,0,0,0.1L441.8,312C441.7,312.2,441.5,312.3,441.3,312.2z"/>
	<path class="st3_rain-89" d="M357.9,296.7c-0.4,0-0.7-0.3-0.7-0.7c0-0.2,0.1-0.3,0.2-0.4l51.8-64.3c0.2-0.3,0.7-0.4,1-0.1c0,0,0,0,0,0&#10;&#9;&#9;c0.3,0.2,0.4,0.7,0.1,1c0,0,0,0,0,0l-51.8,64.3C358.3,296.6,358.1,296.7,357.9,296.7z"/>
	<path class="st3_rain-89" d="M182.3,245.3c-0.1,0-0.3,0-0.4-0.1c-0.3-0.2-0.4-0.7-0.2-1c0,0,0,0,0,0l60.2-83.4c0.2-0.3,0.6-0.4,0.9-0.2&#10;&#9;&#9;c0,0,0,0,0.1,0c0.3,0.2,0.4,0.6,0.2,1c0,0,0,0,0,0L182.8,245C182.7,245.2,182.5,245.3,182.3,245.3z"/>
	<path class="st3_rain-89" d="M383.8,406c-0.2,0-0.3-0.1-0.4-0.1c-0.3-0.2-0.4-0.7-0.1-1c0,0,0,0,0,0l103.4-133.1c0.2-0.3,0.7-0.4,1-0.1&#10;&#9;&#9;c0,0,0,0,0,0c0.3,0.2,0.4,0.7,0.1,1c0,0,0,0,0,0L384.4,405.8C384.3,405.9,384,406,383.8,406z"/>
	<path class="st3_rain-89" d="M131.6,395.7c-0.1,0-0.3,0-0.4-0.1c-0.3-0.2-0.4-0.7-0.2-1c0,0,0,0,0,0l75-104.9c0.2-0.3,0.7-0.4,1-0.2&#10;&#9;&#9;c0,0,0,0,0,0c0.3,0.2,0.4,0.7,0.2,1c0,0,0,0,0,0l-75,104.9C132.1,395.6,131.8,395.7,131.6,395.7z"/>
	<path class="st3_rain-89" d="M43,395.7c-0.2,0-0.3,0-0.4-0.1c-0.3-0.2-0.4-0.7-0.2-1c0,0,0,0,0,0l68.6-94.4c0.2-0.3,0.7-0.4,1-0.2&#10;&#9;&#9;c0,0,0,0,0,0c0.3,0.2,0.4,0.7,0.2,1c0,0,0,0,0,0l-68.6,94.4C43.4,395.6,43.2,395.7,43,395.7z"/>
	<path class="st3_rain-89" d="M215.3,334.8c-0.1,0-0.3,0-0.4-0.1c-0.3-0.2-0.4-0.7-0.2-1c0,0,0,0,0,0l34.7-49.7c0.2-0.3,0.6-0.4,1-0.2&#10;&#9;&#9;c0,0,0,0,0,0c0.3,0.2,0.4,0.6,0.2,0.9c0,0,0,0,0,0.1l-34.7,49.7C215.8,334.7,215.5,334.8,215.3,334.8z"/>
	<path class="st3_rain-89" d="M292,285.1c-0.1,0-0.3,0-0.4-0.1c-0.3-0.2-0.4-0.7-0.2-1c0,0,0,0,0,0l28.9-39.8c0.2-0.3,0.7-0.4,1-0.2&#10;&#9;&#9;c0,0,0,0,0,0c0.3,0.2,0.4,0.6,0.2,1c0,0,0,0,0,0l-28.9,39.8C292.4,285,292.2,285.1,292,285.1z"/>
	<path class="st3_rain-89" d="M147.8,296.7c-0.1,0-0.3,0-0.4-0.1c-0.3-0.2-0.4-0.6-0.2-1c0,0,0,0,0,0l22.8-35.2c0.2-0.3,0.6-0.5,0.9-0.3&#10;&#9;&#9;c0.3,0.2,0.5,0.6,0.3,0.9c0,0,0,0.1-0.1,0.1l-22.8,35.2C148.3,296.6,148,296.7,147.8,296.7z"/>
	<path class="st3_rain-89" d="M292,361.1c-0.2,0-0.3-0.1-0.4-0.2c-0.3-0.2-0.4-0.7-0.1-1c0,0,0,0,0,0l31.5-39.3c0.2-0.3,0.7-0.4,1-0.1&#10;&#9;&#9;c0,0,0,0,0,0c0.3,0.2,0.4,0.7,0.1,1c0,0,0,0,0,0l-31.6,39.3C292.4,361,292.2,361.1,292,361.1z"/>
</g>
<g id="Cloud_front_rain-89">
	<path class="st1_rain-89" d="M54.1,168.5c-8.7,0-16.7-3-22.2-8.6c-0.3-0.3-0.3-0.7,0-1s0.7-0.3,1,0c7.5,7.7,20.8,10.3,33,6.3&#10;&#9;&#9;c14.6-4.9,25.6-16.8,29.3-31.7c0.1-0.4,0.5-0.6,0.8-0.5s0.6,0.5,0.5,0.8c0,0,0,0,0,0c-3.8,15.4-15.3,27.7-30.3,32.7&#10;&#9;&#9;C62.3,167.8,58.2,168.4,54.1,168.5z"/>
	<path class="st1_rain-89" d="M9.4,210.6c-0.4,0-0.7-0.3-0.7-0.7c0-0.3,0.3-0.6,0.6-0.7c0.4,0,41.4-5.9,53.8-42.9c0.1-0.2,0.3-0.4,0.5-0.5&#10;&#9;&#9;c0.2-0.1,0.5,0,0.7,0.2c0.2,0.3,24.5,26.9,53.6,7s18.8-40.7,18.7-40.9c-0.2-0.3-0.1-0.8,0.3-1c0.3-0.1,0.6-0.1,0.8,0.1&#10;&#9;&#9;c0.4,0.4,11,8.8,26.8-6.3c0.3-0.3,0.7-0.3,1,0s0.3,0.7,0,1l0,0l0,0c0,0-0.2,0.4,0.2,1.7c1.6,5.3,9.7,17.5,17,20.8&#10;&#9;&#9;c16.2,7.3,31.2,5,45.8-7.1c0.2-0.2,0.6-0.2,0.8-0.1c0.3,0.2,0.4,0.5,0.3,0.8c-0.5,2.2-0.1,4.5,1.2,6.4c2.9,4.5,9.4,8,14.1,8.9&#10;&#9;&#9;c7.6,1.3,15.3-1.5,20.2-7.4c0.1-0.2,0.4-0.3,0.6-0.2c0.2,0,0.4,0.1,0.5,0.3c8.3,11.7,22,18.4,36.4,17.7c18.2-1.1,30.6-15,39.3-27.1&#10;&#9;&#9;c0.2-0.3,0.7-0.4,1-0.2c0,0,0,0,0,0c8.3,5.8,20.8,4.6,28-2.5c0.2-0.2,0.4-0.2,0.6-0.2c0.2,0,0.4,0.1,0.5,0.3&#10;&#9;&#9;c3.8,6.3,7.7,12.7,13,18c16.6,16.3,46.6,17.2,67,1.9c0.2-0.1,0.4-0.2,0.6-0.1c0.2,0.1,0.4,0.2,0.5,0.5&#10;&#9;&#9;c4.8,15.4,22.2,25.9,38.1,22.8c0.4-0.1,0.7,0.2,0.8,0.6c0.1,0.4-0.2,0.7-0.5,0.8c0,0,0,0,0,0c-16.2,3.2-34-7.2-39.4-22.8&#10;&#9;&#9;c-20.9,15.1-51.2,14-68.1-2.6c-5.2-5.1-9.1-11.4-12.8-17.5c-7.9,7-19.6,8-28.6,2.4c-8.9,12.2-21.4,26-40,27.1&#10;&#9;&#9;c-14.5,0.7-28.4-5.9-37.1-17.6c-5.3,5.8-13.2,8.5-21,7.2c-5-0.9-12-4.7-15-9.5c-1.1-1.7-1.7-3.6-1.7-5.6&#10;&#9;&#9;C213.4,155,198,157,182,149.8c-8.1-3.6-17-17.2-18-22.6c-12.2,10.9-21.6,8.2-25.4,6.2c1.9,5.9,4.9,23.7-19.9,40.7&#10;&#9;&#9;c-27.1,18.5-50.1-1.9-54.6-6.4C50.9,204.7,9.9,210.5,9.4,210.6L9.4,210.6z"/>
	<path class="st1_rain-89" d="M333.1,140.6c-9.7,0-18.9-3.6-25.1-10.1c-0.3-0.3-0.3-0.7,0-1s0.7-0.3,1,0c7.9,8.4,21.2,11.7,33.7,8.5&#10;&#9;&#9;c10.8-2.8,21.2-10.3,29.2-21.2c0.2-0.3,0.7-0.4,1-0.2c0,0,0,0,0,0c0.3,0.2,0.4,0.6,0.2,1c0,0,0,0,0,0c-8.3,11.1-18.9,18.8-30,21.7&#10;&#9;&#9;C339.8,140.1,336.4,140.5,333.1,140.6z"/>
	<path class="st1_rain-89" d="M175.5,129c-3.1,0-6.1-0.3-9.1-1.1c-9.7-2.4-17.5-9.8-19.3-18.2c-0.1-0.4,0.1-0.7,0.5-0.8c0,0,0,0,0,0&#10;&#9;&#9;c0.4-0.1,0.7,0.2,0.8,0.5c1.7,7.9,9.1,14.8,18.3,17.1c7.4,1.9,16.1,1.2,26.4-2c0.4-0.1,0.8,0,0.9,0.4c0.1,0.4,0,0.8-0.4,0.9&#10;&#9;&#9;c0,0-0.1,0-0.1,0C187.7,127.8,181.6,128.9,175.5,129z"/>
	<path class="st1_rain-89" d="M75.9,135.2c-3.5,0-7-0.3-10.5-0.8c-2.9-0.4-6.9-1.4-8.5-4.6c-0.3-0.3-0.2-0.7,0.1-1c0.3-0.3,0.7-0.2,1,0.1&#10;&#9;&#9;c0.1,0.1,0.1,0.2,0.2,0.3c1.3,2.6,4.7,3.4,7.5,3.8c10.1,1.5,19.2,0.9,26.9-1.8c9.1-3.2,16.4-9.4,20-17.1c0.7-1.6,1.3-3.2,1.9-4.9&#10;&#9;&#9;c1.1-3.1,2.3-6.3,4.3-8.9c0.3-0.3,0.7-0.3,1,0c0.3,0.2,0.3,0.6,0.1,0.9c-1.9,2.5-3,5.4-4.1,8.5c-0.6,1.7-1.2,3.4-2,5&#10;&#9;&#9;c-3.8,8-11.3,14.5-20.8,17.8C87.4,134.3,81.6,135.2,75.9,135.2z"/>
	<path class="st1_rain-89" d="M461.4,161.2c-3.7,0-7.4-0.8-10.8-2.3c-7.2-3.1-13.2-8.7-18.5-14.4c-0.3-0.3-0.3-0.7,0-1c0.3-0.3,0.7-0.3,1,0&#10;&#9;&#9;c0,0,0,0,0,0c5.2,5.5,11,11,18,14c6,2.6,14.9,3.6,21.5-1.2c0.3-0.2,0.7-0.2,1,0.1s0.2,0.7-0.1,1c0,0-0.1,0-0.1,0.1&#10;&#9;&#9;C469.9,160,465.7,161.3,461.4,161.2z"/>
	<path class="st1_rain-89" d="M398.9,123.8L398.9,123.8c-34.9-2.7-36.7-18.1-36.8-18.8c0-0.4,0.2-0.7,0.6-0.8c0.4,0,0.7,0.2,0.8,0.6&#10;&#9;&#9;c0,0.2,1.9,15,35.4,17.5c0.4,0,0.7,0.3,0.7,0.7C399.6,123.5,399.3,123.8,398.9,123.8L398.9,123.8L398.9,123.8z"/>
	<path class="st1_rain-89" d="M476.2,119.4c-15.7,0-26.1-5.2-32.4-10.1c-8.8-6.9-11.7-14.7-11.9-15c-0.1-0.4,0.1-0.8,0.4-0.9&#10;&#9;&#9;c0.4-0.1,0.8,0.1,0.9,0.4c0.1,0.3,12.1,30.9,57.2,23c0.4-0.1,0.7,0.2,0.8,0.6c0,0,0,0,0,0c0.1,0.4-0.2,0.7-0.5,0.8c0,0,0,0,0,0&#10;&#9;&#9;C486,119,481.1,119.4,476.2,119.4z"/>
</g>
</svg>