<svg version="1.1" id="Layer_1" xmlns="http://www.w3.org/2000/svg" xmlns:xlink="http://www.w3.org/1999/xlink" x="0px" y="0px" viewBox="0 0 500 500" style="width: 157px;" xml:space="preserve" data-imageid="steak-91" imageName="Steak" class="illustrations_image">
<style type="text/css">
	.st0_steak-91{fill:#C8C8CC;}
	.st1_steak-91{fill:url(#SVGID_1_);}
	.st2_steak-91{fill:url(#SVGID_00000161631238206841245490000015936905117798309552_);}
	.st3_steak-91{fill:url(#SVGID_00000129199438067643919450000004660838286304527518_);}
	.st4_steak-91{fill:#68E1FD;}
	.st5_steak-91{opacity:0.29;fill:#093E3E;enable-background:new    ;}
	.st6_steak-91{fill:#99CE45;}
	.st7_steak-91{fill:#E91837;}
	.st8_steak-91{fill:#FFFFFF;}
	.st9_steak-91{fill:#934715;}
	.st10_steak-91{fill:#9B8B81;}
	.st11_steak-91{fill:#E5E5E5;}
</style>
<g id="background_steak-91">
	<path class="st0_steak-91" d="M246.2,397.9L24.4,266.8c-7.1-4-13.1-10.5-6.2-14.7l222.6-128.3c3.3-2.1,8.4-3.4,11.8-1.4l232.8,135.1&#10;&#9;&#9;c7.1,4.1,8.3,15.5,1.3,19.6L275.5,397.6C266.4,402.9,255.3,403,246.2,397.9z"/>
	
		<linearGradient id="SVGID_1_-steak-91" gradientUnits="userSpaceOnUse" x1="267.1179" y1="856.9769" x2="241.0479" y2="875.2269" gradientTransform="matrix(1 0 0 1 0 -498)">
		<stop offset="0" style="stop-color:#D4A397"/>
		<stop offset="1" style="stop-color:#C8C8CC;stop-opacity:0"/>
	</linearGradient>
	<path class="st1_steak-91" d="M289.8,358l-1.4-15.4L215.8,380l17.2,10.4C254.8,377.5,267.4,369.7,289.8,358z"/>
	
		<linearGradient id="SVGID_00000134943072665354691840000006257965338736058266_-steak-91" gradientUnits="userSpaceOnUse" x1="86.3271" y1="739.4089" x2="54.4671" y2="757.0789" gradientTransform="matrix(1 0 0 1 0 -498)">
		<stop offset="0" style="stop-color:#D4A397"/>
		<stop offset="1" style="stop-color:#C8C8CC;stop-opacity:0"/>
	</linearGradient>
	<path style="fill:url(#SVGID_00000134943072665354691840000006257965338736058266_);" d="M125.4,231.2l-27-5.6l-72,36.4l21.8,13.2&#10;&#9;&#9;C69.9,262.3,103,242.9,125.4,231.2z"/>
	
		<linearGradient id="SVGID_00000021094690966449003770000011982196793967503278_-steak-91" gradientUnits="userSpaceOnUse" x1="247.5476" y1="744.3481" x2="191.8176" y2="814.0181" gradientTransform="matrix(1 0 0 1 0 -498)">
		<stop offset="0" style="stop-color:#D4A397"/>
		<stop offset="1" style="stop-color:#C8C8CC;stop-opacity:0"/>
	</linearGradient>
	<polyline style="fill:url(#SVGID_00000021094690966449003770000011982196793967503278_);" points="146.8,256.4 87.8,285.4 &#10;&#9;&#9;218.7,361.3 334.5,298.3 &#9;"/>
</g>
<g id="steak_steak-91">
	<ellipse class="st4_steak-91 targetColor" cx="253.3" cy="260.7" rx="110.4" ry="56.8" style="fill: rgb(255, 182, 141);"/>
	<ellipse class="st5_steak-91" cx="253.3" cy="260.7" rx="110.4" ry="56.8"/>
	<ellipse class="st4_steak-91 targetColor" cx="253.3" cy="254.1" rx="110.4" ry="56.8" style="fill: rgb(255, 182, 141);"/>
	<ellipse class="st5_steak-91" cx="255" cy="254.1" rx="74.7" ry="35.2"/>
	<path class="st6_steak-91" d="M295.8,230.7c-0.4-1-0.8-2.1-1.2-3.2l7-0.3c1.6,4.3,3.7,8.5,6.2,12.3c4.5,9.2,9.9,18,16.2,26.1&#10;&#9;&#9;c1.3,1.9,2.6,3.6,4.1,5.3c3.5,7.6,13.2,13.4,2.6,13.7c-6.9,0.2-11-2.8-13.6-4.1c-3.4-7.1-6.7-14.2-9.8-21.3&#10;&#9;&#9;C303.8,249.6,299.8,240.2,295.8,230.7z"/>
	<path class="st6_steak-91" d="M288.4,227.9l3.2-0.1l1.4,3.3c6.4,17.7,12.9,35.5,19.3,53.3c-0.7,6.2,2,16.5-4.6,12c-5.6-3.8-6-11.2-8.2-12.8&#10;&#9;&#9;c-1.5-5-2.8-10-3.9-15.1C294,254.8,291.2,241.3,288.4,227.9z"/>
	<path class="st6_steak-91" d="M282.7,230.3c0-0.7-0.1-1.5-0.1-2.2l3-0.1c-0.4,0.3-0.6,0.7-0.5,1.2l8.5,58c-3.6,5.1-2.9,10.5-6,2.4&#10;&#9;&#9;c-2.2-5.6-2.7-9.5-4.3-11l-0.1-47.2C283.2,231,283,230.6,282.7,230.3z"/>
	<path class="st6_steak-91" d="M305.3,227.1l1.2-0.1c-0.4,0.5-0.3,1.2,0.1,1.6c0.1,0.1,0.1,0.1,0.2,0.1c9,5.3,16.7,12.9,26.3,17&#10;&#9;&#9;c0.3,0.8,0.6,1.5,1.1,2.2c4.8,7.6,8.5,9.6,3.6,14c-3.2,2.9-7.9,1.1-9.9,2.2c-8.6-10.7-15.4-22.6-21.8-34.8&#10;&#9;&#9;C305.9,228.6,305.6,227.8,305.3,227.1z"/>
	<path class="st6_steak-91" d="M313.5,226.7c0,0,21.6-2.2,24.2,7.6c1.3,4.8-0.6,6.4-2.4,7.6c-8.8-4.9-17.5-9.9-26.3-15L313.5,226.7z"/>
	<path class="st6_steak-91" d="M277.7,229l0.3-0.7h0.5c-0.1,0.3-0.3,0.7-0.5,1C278,229.2,277.8,229.1,277.7,229z"/>
	<path class="st6_steak-91" d="M280.1,231.2c0.1,1,0.1,2,0.2,3c-1.2,16-4.5,31.8-9.7,46.9c-1.7-0.1-2.3-1.6-2.4-5.2&#10;&#9;&#9;c-0.2-6.4,6.8-15.2,1.6-16.6c2.2-4.8,3.3-10.1,5.1-15C276.4,239.9,278.2,235.5,280.1,231.2z"/>
	<path class="st6_steak-91" d="M275.2,278.9c0,0.3,0,0.6,0.2,0.9l-1.1,0.4c0.3-0.8,0.7-1.5,1-2.3L275.2,278.9z"/>
	<path class="st6_steak-91" d="M306.9,228.7c-0.5-0.3-0.8-1-0.5-1.5c0-0.1,0.1-0.1,0.1-0.2l2.5-0.1c8.8,5,17.5,10.1,26.3,15&#10;&#9;&#9;c-1.4,1-2.7,1.8-2.1,3.9C323.6,241.6,315.9,234.1,306.9,228.7z"/>
	<path class="st6_steak-91" d="M307.8,239.6c-2.5-3.9-4.6-8-6.2-12.3l3.7-0.2c0.3,0.8,0.6,1.5,0.9,2.2c6.4,12.1,13.2,24.1,21.8,34.8&#10;&#9;&#9;c-1,0.5-1.4,1.8-0.7,4.6c0.2,0.8,0.5,1.5,0.8,2.3c-1.5-1.7-2.8-3.5-4.1-5.3C317.7,257.6,312.3,248.8,307.8,239.6z"/>
	<path class="st6_steak-91" d="M291.6,227.7l3-0.1c0.4,1.1,0.8,2.1,1.2,3.2c4,9.4,8,18.9,11.6,28.5c3.1,7.2,6.4,14.3,9.8,21.3&#10;&#9;&#9;c-1.8-0.9-3-1-4.1,1.1c-0.4,0.8-0.6,1.7-0.7,2.6c-6.4-17.8-12.9-35.5-19.4-53.3L291.6,227.7z"/>
	<path class="st6_steak-91" d="M285.6,228l2.8-0.1c2.9,13.5,5.7,27,7.3,40.6c1.1,5.1,2.4,10.1,3.9,15.1c-0.8-0.6-1.9-0.4-3.6,1&#10;&#9;&#9;c-0.9,0.8-1.7,1.6-2.4,2.6l-8.5-58C285,228.7,285.2,228.3,285.6,228z"/>
	<path class="st6_steak-91" d="M277.1,228.4h0.9l-0.3,0.7c0.1,0.1,0.2,0.2,0.3,0.3c0.1-0.3,0.3-0.7,0.5-1l4.1-0.2c0,0.7,0,1.5,0.1,2.2&#10;&#9;&#9;c0.3,0.3,0.5,0.7,0.5,1.1l0.1,47.2c-1.1-1-2.7-1-5.7,0.3c-0.8,0.3-1.5,0.6-2.1,0.9c-0.2-0.3-0.2-0.6-0.2-0.9l0.1-1&#10;&#9;&#9;c-0.3,0.8-0.6,1.5-1,2.3c-1.2,0.5-2.5,0.8-3.8,0.9c5.2-15.2,8.5-30.9,9.7-46.9c-0.1-1-0.1-2-0.2-3c-2,4.3-3.8,8.7-5.3,13.2&#10;&#9;&#9;c-1.7,5-2.8,10.3-5.1,15l-0.2-0.1C263.9,258.2,277.1,228.4,277.1,228.4z"/>
	<path class="st5_steak-91" d="M306.9,228.7c-0.5-0.3-0.8-1-0.5-1.5c0-0.1,0.1-0.1,0.1-0.2l2.5-0.1c8.8,5,17.5,10.1,26.3,15&#10;&#9;&#9;c-1.4,1-2.7,1.8-2.1,3.9C323.6,241.6,315.9,234.1,306.9,228.7z"/>
	<path class="st5_steak-91" d="M307.8,239.6c-2.5-3.9-4.6-8-6.2-12.3l3.7-0.2c0.3,0.8,0.6,1.5,0.9,2.2c6.4,12.1,13.2,24.1,21.8,34.8&#10;&#9;&#9;c-1,0.5-1.4,1.8-0.7,4.6c0.2,0.8,0.5,1.5,0.8,2.3c-1.5-1.7-2.8-3.5-4.1-5.3C317.7,257.6,312.3,248.8,307.8,239.6z"/>
	<path class="st5_steak-91" d="M291.6,227.7l3-0.1c0.4,1.1,0.8,2.1,1.2,3.2c4,9.4,8,18.9,11.6,28.5c3.1,7.2,6.4,14.3,9.8,21.3&#10;&#9;&#9;c-1.8-0.9-3-1-4.1,1.1c-0.4,0.8-0.6,1.7-0.7,2.6c-6.4-17.8-12.9-35.5-19.4-53.3L291.6,227.7z"/>
	<path class="st5_steak-91" d="M285.6,228l2.8-0.1c2.9,13.5,5.7,27,7.3,40.6c1.1,5.1,2.4,10.1,3.9,15.1c-0.8-0.6-1.9-0.4-3.6,1&#10;&#9;&#9;c-0.9,0.8-1.7,1.6-2.4,2.6l-8.5-58C285,228.7,285.2,228.3,285.6,228z"/>
	<path class="st5_steak-91" d="M277.1,228.4h0.9l-0.3,0.7c0.1,0.1,0.2,0.2,0.3,0.3c0.1-0.3,0.3-0.7,0.5-1l4.1-0.2c0,0.7,0,1.5,0.1,2.2&#10;&#9;&#9;c0.3,0.3,0.5,0.7,0.5,1.1l0.1,47.2c-1.1-1-2.7-1-5.7,0.3c-0.8,0.3-1.5,0.6-2.1,0.9c-0.2-0.3-0.2-0.6-0.2-0.9l0.1-1&#10;&#9;&#9;c-0.3,0.8-0.6,1.5-1,2.3c-1.2,0.5-2.5,0.8-3.8,0.9c5.2-15.2,8.5-30.9,9.7-46.9c-0.1-1-0.1-2-0.2-3c-2,4.3-3.8,8.7-5.3,13.2&#10;&#9;&#9;c-1.7,5-2.8,10.3-5.1,15l-0.2-0.1C263.9,258.2,277.1,228.4,277.1,228.4z"/>
	<circle class="st7_steak-91" cx="197.7" cy="229.4" r="8.2"/>
	<path class="st8_steak-91" d="M202.8,227.4c-0.4-1.8-1.5-3.3-3.2-4.1c-0.6-0.3-1.4-0.1-1.8,0.5c-0.3,0.6-0.1,1.4,0.5,1.8&#10;&#9;&#9;c1.1,0.4,1.8,1.4,2,2.5c0.2,0.7,0.9,1.1,1.6,0.9C202.6,228.8,203,228.1,202.8,227.4z"/>
	<path class="st8_steak-91" d="M201.2,230.4c-0.7,0.1-1.2,0.7-1.2,1.4c0.1,0.6,0.5,1.1,1.2,1.2c0.7-0.1,1.2-0.7,1.2-1.4&#10;&#9;&#9;C202.3,230.9,201.8,230.5,201.2,230.4z"/>
	<circle class="st7_steak-91" cx="191.8" cy="238.2" r="8.2"/>
	<path class="st8_steak-91" d="M196.9,236.2c-0.4-1.8-1.5-3.3-3.2-4.1c-0.6-0.3-1.4-0.1-1.8,0.5c-0.4,0.6-0.2,1.4,0.4,1.8l0,0&#10;&#9;&#9;c1.1,0.4,1.8,1.4,2,2.5c0.1,0.7,0.8,1.2,1.5,1c0.7-0.1,1.2-0.8,1-1.5C196.9,236.3,196.9,236.3,196.9,236.2L196.9,236.2z"/>
	<path class="st8_steak-91" d="M195.3,239.2c-0.7,0.1-1.2,0.7-1.2,1.4c0.1,0.6,0.5,1.1,1.2,1.2c0.7-0.1,1.2-0.7,1.2-1.4&#10;&#9;&#9;C196.4,239.7,195.9,239.2,195.3,239.2z"/>
	<polygon class="st9_steak-91" points="189.5,263.3 189.5,252.1 291.4,238.2 299.7,240.9 319.5,245.5 319.5,255.3 311.4,254.5 294.1,253.3 &#10;&#9;&#9;232.4,255.4 &#9;"/>
	<path class="st9_steak-91" d="M266.1,268.3c3.9-0.4,7.9-0.5,11.9-0.3c11.6,0.7,24.2,4.4,34.7-2.8c20.6-14.2-11.3-31.1-22.8-34.9&#10;&#9;&#9;c-16.2-5.3-33.3-6.9-50.2-4.9c-5.1,0.6-10.2,1.7-15.2,3.1c-39.3,11.8-43.8,41-21.9,48.9c12.8,4.6,26.1,0.7,38.5-3.4&#10;&#9;&#9;C249.2,271.2,257.6,269.3,266.1,268.3z"/>
	<path class="st5_steak-91" d="M266.1,268.3c3.9-0.4,7.9-0.5,11.9-0.3c11.6,0.7,24.2,4.4,34.7-2.8c20.6-14.2-11.3-31.1-22.8-34.9&#10;&#9;&#9;c-16.2-5.3-33.3-6.9-50.2-4.9c-5.1,0.6-10.2,1.7-15.2,3.1c-39.3,11.8-43.8,41-21.9,48.9c12.8,4.6,26.1,0.7,38.5-3.4&#10;&#9;&#9;C249.2,271.2,257.6,269.3,266.1,268.3z"/>
	<path class="st9_steak-91" d="M266.1,259.9c3.9-0.4,7.9-0.5,11.9-0.3c11.6,0.7,24.2,4.4,34.7-2.8c20.6-14.2-11.3-31.1-22.8-34.9&#10;&#9;&#9;c-16.2-5.3-33.3-6.9-50.2-4.9c-5.1,0.6-10.2,1.7-15.2,3.1c-39.3,11.8-43.8,41-21.9,48.9c12.8,4.6,26.1,0.7,38.5-3.4&#10;&#9;&#9;C249.2,262.8,257.6,260.9,266.1,259.9z"/>
	<path class="st5_steak-91" d="M302.5,250.5l-6.9-19.8c-0.9-2.6-5.1-1.5-4.1,1.1c2.3,6.6,4.6,13.2,6.9,19.8&#10;&#9;&#9;C299.2,254.3,303.4,253.1,302.5,250.5z"/>
	<path class="st5_steak-91" d="M285.2,250.6c-2.8-8.1-6-16-9.4-23.8c-1.1-2.5-4.8-0.3-3.7,2.2c3.3,7.5,6.3,15.1,9,22.8&#10;&#9;&#9;C282,254.3,286.2,253.2,285.2,250.6z"/>
	<path class="st5_steak-91" d="M267.7,251.5c-3.9-10.6-7.5-21.2-10.8-31.9c-0.8-2.6-5-1.5-4.1,1.1c3.3,10.7,6.9,21.4,10.8,31.9&#10;&#9;&#9;C264.5,255.2,268.6,254.1,267.7,251.5z"/>
	<path class="st5_steak-91" d="M250.4,253c-4.1-9.8-7.4-19.8-9.9-30.1c-0.6-2.7-4.8-1.6-4.1,1.1c2.5,10.3,5.8,20.4,9.9,30.1&#10;&#9;&#9;C247.4,256.6,251.5,255.5,250.4,253z"/>
	<path class="st5_steak-91" d="M236.9,251.8c-3.3-8-6.1-16.2-8.4-24.6c-0.7-2.7-4.9-1.5-4.2,1.1c2.3,8.4,5.1,16.6,8.4,24.6&#10;&#9;&#9;C233.8,255.5,237.9,254.4,236.9,251.8z"/>
	<path class="st5_steak-91" d="M225.1,258.7c-3.8-8.2-7.3-16.5-10.6-25c-1-2.6-5.1-1.4-4.1,1.1c3.3,8.8,7,17.5,11,26&#10;&#9;&#9;C222.6,263.4,226.3,261.2,225.1,258.7z"/>
	<path class="st5_steak-91" d="M210.1,256c-1.7-3.6-3.2-7.4-4.4-11.2c-0.8-2.6-5-1.5-4.1,1.1c1.3,4.2,2.9,8.3,4.8,12.2&#10;&#9;&#9;C207.5,260.7,211.2,258.5,210.1,256z"/>
</g>
<g id="knife_and_fork_steak-91">
	<path class="st10_steak-91" d="M198.9,179c-39.2,19.7-119,58.9-129.4,64.2c-1.7,0.9-2.3,2.9-1.5,4.6c0.1,0.1,0.2,0.3,0.3,0.4&#10;&#9;&#9;c2.3,3.1,7,7,15.4,5.7c12.4-2,108.7-64,118.9-69.2C200.4,182.4,200.8,181.4,198.9,179z"/>
	<path class="st10_steak-91" d="M198.9,179c0-1.8,0.7-3.5,2-4.7c2.2-2.1,17.3-12.3,20.7-15.5s15.8-14.8,16.8-14.8s1.7,0.4,1.1,1.3&#10;&#9;&#9;s-27.6,24.6-27.3,25.6s0.2,1.6,1.4,1.1s27.9-24.9,27.9-24.9s1.8-0.6,1.7,1.2l-26.8,25.5c0,0-0.6,1.8,1,1.2s26.8-24.1,26.8-24.1&#10;&#9;&#9;s1.4-0.9,2-0.3s0,1.9,0,1.9l-25.6,23.6c0,0-1,1.3-0.1,1.7s2.2-0.6,2.2-0.6l25.3-22.9c0,0,1.2-1.7,1.8-1c0.5,0.6,0.5,1.6,0,2.2&#10;&#9;&#9;c-0.6,0.7-25.3,23.8-25.3,23.8s-7.1,6.1-10.8,7.4s-9.4-1-11.3-2.2"/>
	<path class="st11_steak-91" d="M196,177.2c-39.2,19.7-119,58.9-129.5,64.2c-1.7,0.8-2.3,2.9-1.5,4.6c0.1,0.2,0.2,0.3,0.3,0.4&#10;&#9;&#9;c2.3,3.1,7,7,15.4,5.7c12.5-2,108.8-64,118.9-69.2C197.5,180.6,197.9,179.7,196,177.2z"/>
	<path class="st11_steak-91" d="M196,177.2c0-1.8,0.7-3.5,2-4.7c2.2-2.1,17.3-12.3,20.7-15.5s15.8-14.8,16.8-14.8s1.7,0.4,1.1,1.3&#10;&#9;&#9;s-27.7,24.6-27.4,25.6s0.2,1.6,1.4,1.1s27.9-24.9,27.9-24.9s1.8-0.6,1.7,1.2L213.4,172c0,0-0.6,1.8,1,1.2s26.8-24.1,26.8-24.1&#10;&#9;&#9;s1.4-0.9,2-0.3s0,1.9,0,1.9l-25.6,23.6c0,0-1,1.3-0.1,1.7s2.2-0.6,2.2-0.6l25.4-22.9c0,0,1.2-1.7,1.8-1c0.6,0.6,0.6,1.6,0,2.2&#10;&#9;&#9;c-0.6,0.7-25.3,23.7-25.3,23.7s-7.1,6.1-10.8,7.4s-9.4-1-11.3-2.2"/>
	<polygon class="st8_steak-91" points="141.6,204.3 160.1,207 149.6,213.4 130.3,209.8 &#9;"/>
	<polygon class="st8_steak-91" points="147.9,201.1 165.1,203.9 167,202.7 150.2,200 &#9;"/>
	<polygon class="st8_steak-91" points="111.2,219.1 133.2,223.5 128.9,226 106.5,221.6 &#9;"/>
	<polygon class="st8_steak-91" points="94.6,227.5 117.4,232.9 115.7,233.9 92.9,228.3 &#9;"/>
	<path class="st10_steak-91" d="M415.1,300.8c3.5-2.5,6.6-5.4,9.4-8.7c4.4-5.4,7-12.1,7.4-19l-177.3,89.2c-1.4,0.7-1.9,2.4-1.2,3.8&#10;&#9;&#9;c0.1,0.1,0.1,0.3,0.2,0.4c1.9,2.6,5.8,5.8,12.7,4.7c11.1-1.8,62.2-39.3,64.3-38.6c1.5,0.5,10.3,2.5,15.4,3.6c2.3,0.5,4.8,0.2,6.9-1&#10;&#9;&#9;l60.2-33.2L415.1,300.8z"/>
	<path class="st11_steak-91" d="M415.1,298.2c3.5-2.5,6.6-5.4,9.4-8.7c4.4-5.4,7-12.1,7.4-19l-177.3,89.2c-1.4,0.7-1.9,2.4-1.2,3.8&#10;&#9;&#9;c0.1,0.1,0.1,0.3,0.2,0.4c1.9,2.6,5.8,5.8,12.7,4.7c11.1-1.8,62.2-39.3,64.3-38.6c1.5,0.5,10.3,2.5,15.4,3.6c2.3,0.5,4.8,0.2,6.9-1&#10;&#9;&#9;l60.2-33.2L415.1,298.2z"/>
	<polygon class="st8_steak-91" points="377.5,297.9 407.6,302.3 396,308.7 366.7,303.3 &#9;"/>
	<polygon class="st8_steak-91" points="383.9,294.6 413.1,299.3 415.1,298.2 386.1,293.5 &#9;"/>
	<polygon class="st8_steak-91" points="348.1,312.6 378.1,318.5 373.6,321 343.3,315 &#9;"/>
	<polygon class="st8_steak-91" points="332.3,320.6 361.6,327.6 359.6,328.8 330.2,321.6 &#9;"/>
</g>
</svg>